M48
INCH
T57C0.157
T56C0.015
%
T56
X004630Y006400
X004650Y017630
X004660Y018250
X004660Y016970
X004670Y018890
X005200Y016350
X005200Y008050
X005200Y004850
X005660Y018890
X005700Y018270
X005720Y017620
X005730Y022870
X005750Y016990
X005870Y007040
X008170Y003440
X008330Y017030
X008590Y021360
X009160Y014570
X009390Y009780
X009700Y013860
X009750Y015010
X010240Y015220
X010370Y006460
X010630Y008060
X010780Y011380
X010780Y010420
X010910Y021680
X011430Y010420
X011440Y011340
X011470Y013020
X011560Y021080
X011610Y008280
X011620Y007260
X011650Y004590
X011960Y017550
X012060Y010460
X012070Y011340
X012110Y021680
X012590Y020920
X012780Y016370
X013090Y013060
X013210Y014680
X013280Y016360
X013340Y012580
X013550Y020280
X013580Y017510
X013750Y015360
X013840Y016350
X013930Y005040
X013930Y002970
X014450Y016690
X014870Y017050
X014950Y005010
X015240Y013210
X015270Y012610
X015300Y014700
X015750Y012200
X016150Y014700
X016245Y012585
X016250Y016220
X016590Y007220
X016600Y005640
X016730Y008820
X017100Y009710
X017150Y011750
X017160Y002460
X017530Y022960
X018080Y002440
X018180Y013190
X018760Y012030
X018970Y009710
X019100Y002960
X019190Y014040
X019630Y004910
X020230Y020970
X020410Y009630
X020690Y006730
X020690Y006180
X020790Y015200
X021100Y003540
X021560Y017570
X021640Y004250
X022050Y006730
X022080Y006110
X023100Y010300
X023200Y014900
X023200Y013450
X023200Y009100
X023220Y017560
X026300Y009640
X026690Y018340
X027290Y004890
X027730Y018330
X027760Y009630
T57
X002100Y022950
X002100Y002450
X029800Y022950
X029800Y002450
M30
