G04 start of page 3 for group 1 idx 1 *
G04 Title: (unknown), ground *
G04 Creator: pcb 20140316 *
G04 CreationDate: Wed Jul  8 15:06:37 2015 UTC *
G04 For: frankenteddy *
G04 Format: Gerber/RS-274X *
G04 PCB-Dimensions (mil): 3270.00 2515.00 *
G04 PCB-Coordinate-Origin: lower left *
%MOIN*%
%FSLAX25Y25*%
%LNGROUP1*%
%ADD34C,0.1575*%
%ADD33C,0.0150*%
%ADD32C,0.1968*%
%ADD31C,0.0350*%
%ADD30C,0.0070*%
%ADD29C,0.0300*%
G54D29*X272700Y218800D02*Y46500D01*
G54D30*X277300Y183300D02*Y96600D01*
X277600Y96300D01*
G54D29*X115700Y210400D02*Y224500D01*
X120900Y228900D02*X263700Y229700D01*
G54D30*X202300Y209700D02*X151400D01*
X144400Y216700D01*
X121000D01*
X120900Y216600D01*
X152700Y193900D02*X216300D01*
X154600Y199000D02*X218900D01*
X216300Y193900D02*X220500Y189700D01*
X218900Y199000D02*X225400Y192500D01*
X226400Y191500D02*X224850Y193050D01*
X236200Y183200D02*X266700D01*
X266900Y183400D01*
X135500Y202900D02*X152700Y193900D01*
X125600Y208800D02*X144800D01*
X154600Y199000D01*
G54D29*X232000Y91000D02*X272700Y91100D01*
G54D30*X231000Y103000D02*X249700D01*
X255600Y97100D01*
X262800D01*
X262900Y97000D01*
X189600Y88200D02*X195400Y94000D01*
X204200D01*
Y96300D01*
X216400Y42500D02*X216300Y100400D01*
X211000Y96200D02*Y35500D01*
X220500Y67500D02*X220600Y67400D01*
X220300Y61100D02*X222700D01*
X226400Y64800D01*
X196400Y49200D02*Y18500D01*
X187600Y120300D02*Y147700D01*
X181700Y153600D01*
Y132100D02*X181800Y132200D01*
X206800Y61600D02*X207000Y61800D01*
X134000Y98100D02*X158100Y98000D01*
X189700Y97100D02*X171100D01*
X118100Y61600D02*X206800D01*
X116500Y45900D02*X145300D01*
X149500Y50100D01*
X165900Y57800D02*Y38500D01*
X161700Y34300D01*
X163000Y92800D02*X165900Y72200D01*
X167300Y88200D02*X189600D01*
X220500Y189700D02*Y67500D01*
X226400Y64800D02*Y191500D01*
X181700Y153600D02*X137500D01*
X138400Y163500D02*X139200D01*
X145600Y157100D01*
X187000D01*
X152400Y132100D02*X181700D01*
X186800Y157100D02*X211500D01*
X216100Y161700D01*
Y175200D01*
X215600Y175700D01*
X232200Y175600D02*Y179200D01*
X236200Y183200D01*
X191900Y140400D02*X202600D01*
X207900Y145700D01*
Y153400D01*
G54D29*X82000Y228900D02*X57300Y228700D01*
G54D30*X57500Y169900D02*Y170000D01*
X62900Y175400D01*
X57200Y176200D02*Y176400D01*
X60300Y179500D01*
X57000Y182700D02*X58200D01*
X59300Y183800D01*
X66300Y170300D02*X82800D01*
X123800Y130300D02*X116900Y126200D01*
X144500Y142700D02*Y112700D01*
X127048Y130252D02*X121600Y123908D01*
X131000Y130600D02*X126600Y125300D01*
X121500Y123900D02*X109000Y122900D01*
X117200Y126200D02*X107300D01*
Y126400D02*X107500Y126200D01*
X123800Y150000D02*Y151400D01*
X101200Y131900D02*X94500Y125200D01*
X114500Y129500D02*Y150200D01*
X102400Y133100D02*X101100Y131800D01*
X101900Y126400D02*X107300D01*
X102000D02*X99300D01*
X95400Y122500D01*
X105700Y122900D02*X109000D01*
X107800Y113800D02*Y104200D01*
X144200Y153600D02*X137800D01*
X111800Y152900D02*X109000D01*
X104700Y157400D02*Y169400D01*
X108400Y169600D02*Y173700D01*
X46800Y188900D02*X43600D01*
X144500Y183800D02*X59400D01*
X99500Y175400D02*X62800D01*
X103000Y179500D02*X60300D01*
G54D29*X82400Y228900D02*X121000D01*
X115700Y224000D02*Y228800D01*
X115600Y228900D01*
G54D30*X58700Y162700D02*X66300Y170300D01*
X109100Y216800D02*X89100D01*
X85900Y213600D01*
X152650Y125850D02*X162750D01*
X161500Y147100D02*X153000Y147000D01*
X132900Y146500D02*X140700D01*
X133400Y125800D02*Y109514D01*
Y105300D01*
X126600Y125300D02*Y105400D01*
X157000Y189000D02*X56500D01*
X127300Y149400D02*X127187Y130413D01*
X123800Y150200D02*X123863Y130337D01*
X97500Y150100D02*X97000Y138600D01*
X102400Y152200D02*Y133100D01*
X91600Y145700D02*X84100D01*
X94500Y125200D02*X83400D01*
X95400Y122500D02*X89300D01*
G54D29*X52000Y42500D02*Y41500D01*
G54D30*X59900Y20700D02*X42700Y37900D01*
Y42800D01*
X42800Y42900D01*
X39400Y35400D02*X57400Y17400D01*
X36100Y33300D02*X55400Y14000D01*
X36150Y181750D02*X36100Y34200D01*
X42700Y172600D02*X42800Y42200D01*
X46600Y169700D02*X46300Y64000D01*
X39400Y175400D02*Y37900D01*
Y38100D02*Y35400D01*
X36100Y34300D02*Y33300D01*
G54D29*X51900Y223000D02*X52100Y41700D01*
G54D30*X75700Y137300D02*Y102000D01*
X78500Y120300D02*Y101700D01*
X58700Y70400D02*Y162700D01*
G54D29*X52000Y41500D02*X64000Y29500D01*
G54D30*X78500Y101700D02*X78900Y68700D01*
X80200Y50400D02*X75600Y55000D01*
Y65100D01*
X75504Y65196D01*
X93900Y97800D02*Y99400D01*
X116100Y82900D02*X113900D01*
X111100Y80100D01*
Y68600D01*
X139200Y50400D02*X80200D01*
X111100Y68600D02*X118100Y61600D01*
X103700Y64600D02*X83138D01*
X78838Y68900D01*
X161700Y34300D02*X81700D01*
X81600Y34200D01*
G54D29*X257500Y29500D02*X64000D01*
G54D30*X236500Y30000D02*X236000Y29500D01*
X55400Y14000D02*X191800D01*
X57300Y17400D02*X178100D01*
X169800Y20700D02*X59900D01*
X171600Y24400D02*Y22400D01*
X180800Y24400D02*Y20200D01*
X180700Y20100D01*
G54D29*X232000Y149000D02*Y134500D01*
G54D30*X151200Y105900D02*X210900D01*
X157450Y121950D02*X171500Y117500D01*
X136600Y101800D02*X205200D01*
X206600Y67300D02*X118700D01*
X162500Y162200D02*Y183500D01*
X148700Y170500D02*Y179200D01*
X119600Y175500D02*X135400D01*
X135800Y175100D01*
X123800Y151300D02*Y157100D01*
X127600Y164400D01*
X127299Y149300D02*Y154099D01*
X132800Y163700D01*
X111600Y166900D02*X144400D01*
X82200Y115400D02*Y92500D01*
X75700Y102700D02*X75500Y64500D01*
X105600Y122900D02*X100000D01*
X120700Y113400D02*Y104700D01*
X114400Y113500D02*Y104300D01*
X114500Y104200D01*
X100000Y122900D02*X93800Y117200D01*
Y98200D01*
X93900Y98100D01*
X101000Y85700D02*X89000D01*
X118700Y67300D02*X116100Y69900D01*
Y72800D01*
X116200Y72900D01*
X84700Y145700D02*G75*G03X75700Y136700I0J-9000D01*G01*
X90300Y122500D02*G75*G03X82200Y114400I0J-8100D01*G01*
X83900Y125200D02*G75*G03X78500Y119800I0J-5400D01*G01*
X82200Y93000D02*G75*G03X89500Y85700I7300J0D01*G01*
X144500Y113200D02*G75*G03X151800Y105900I7300J0D01*G01*
X210900D02*G75*G02X216300Y100500I0J-5400D01*G01*
X171600Y22700D02*G75*G02X169600Y20700I-2000J0D01*G01*
X136900Y101800D02*G75*G02X133400Y105300I0J3500D01*G01*
X211000Y96100D02*G75*G03X205300Y101800I-5700J0D01*G01*
X157700Y98100D02*G75*G02X163100Y92700I0J-5400D01*G01*
G54D29*X272900Y47700D02*G75*G02X254800Y29600I-18100J0D01*G01*
G54D30*X196400Y18800D02*G75*G02X191600Y14000I-4800J0D01*G01*
X180700Y20200D02*G75*G02X177900Y17400I-2800J0D01*G01*
X106300Y80600D02*G75*G03X101200Y85700I-5100J0D01*G01*
X126600Y105400D02*G75*G03X133900Y98100I7300J0D01*G01*
X162500Y183000D02*G75*G03X156500Y189000I-6000J0D01*G01*
X144200Y183800D02*G75*G02X148700Y179300I0J-4500D01*G01*
X98800Y175400D02*G75*G02X104700Y169500I0J-5900D01*G01*
X102200Y179500D02*G75*G02X108400Y173300I0J-6200D01*G01*
G54D29*X261000Y229700D02*G75*G02X272400Y218300I0J-11400D01*G01*
G54D30*X43700Y188900D02*G75*G03X36100Y181300I0J-7600D01*G01*
X46500Y182500D02*G75*G03X39400Y175400I0J-7100D01*G01*
X46500Y176300D02*G75*G03X42700Y172500I0J-3800D01*G01*
G54D29*X57300Y228700D02*G75*G03X52000Y223400I0J-5300D01*G01*
G54D30*X109500Y152900D02*G75*G02X104700Y157700I0J4800D01*G01*
X114500Y149800D02*G75*G03X111500Y152800I-3000J0D01*G01*
X140400Y146500D02*G75*G02X144500Y142400I0J-4100D01*G01*
X111600Y166900D02*G75*G02X108400Y170100I0J3200D01*G01*
G54D31*X153000Y147000D03*
X162500Y162200D03*
X162450Y125850D03*
X152700Y126100D03*
X157500Y122000D03*
X152400Y132100D03*
G54D32*X298000Y24500D03*
G54D31*X272900Y48900D03*
X139300Y50400D03*
X149500Y50100D03*
X216400Y42500D03*
X196300Y49100D03*
X206900Y67300D03*
X220500D03*
X220800Y61100D03*
X206900Y61800D03*
X211000Y35400D03*
X191000Y29600D03*
X180800Y24400D03*
X171600Y24600D03*
X139300Y29700D03*
X165900Y72200D03*
X166000Y56400D03*
X161500Y147000D03*
X232000Y149000D03*
X207900Y152000D03*
X232000Y91000D03*
X189700Y97100D03*
X204100Y96300D03*
X231000Y103000D03*
X171000Y97100D03*
X167300Y88200D03*
X232000Y134500D03*
X171500Y117500D03*
X187600Y120300D03*
X181800Y131900D03*
X191900Y140400D03*
X263000Y96400D03*
X277600Y96300D03*
X57200Y176200D03*
X119600Y175500D03*
X215600Y175700D03*
X232200Y175600D03*
X277300Y183300D03*
X266900Y183400D03*
X175300Y229600D03*
G54D32*X298000Y229500D03*
G54D31*X202300Y209700D03*
X121100Y216800D03*
X109100D03*
X85900Y213600D03*
G54D32*X21000Y229500D03*
G54D31*X57300Y228700D03*
X115600Y210800D03*
X125900Y209200D03*
X52000Y163500D03*
X56600Y188900D03*
X46700D03*
X46600Y182500D03*
Y169700D03*
X57000Y182700D03*
X135500Y202800D03*
X46500Y176300D03*
X57500Y169900D03*
X148700Y170500D03*
X144500Y166900D03*
X138400Y163500D03*
X83300Y170300D03*
G54D32*X21000Y24500D03*
G54D31*X52000Y48500D03*
Y80500D03*
X46300Y64000D03*
X106300Y80600D03*
X116200Y72600D03*
X116100Y82800D03*
X116500Y45900D03*
X103700Y64600D03*
X81700Y34400D03*
X58700Y70400D03*
X97500Y150100D03*
X102400Y152200D03*
X91600Y145700D03*
X97000Y138600D03*
X135800Y175100D03*
X130900Y130600D03*
X132800Y163600D03*
X127800Y163700D03*
X132100Y146800D03*
X137500Y153600D03*
X114700Y130200D03*
X133400Y125800D03*
X93900Y97800D03*
X120700Y113400D03*
X120600Y104600D03*
X114400Y113400D03*
X114300Y104200D03*
X107800Y113800D03*
Y104200D03*
G54D33*G54D34*G54D33*G54D34*G54D33*G54D34*G54D33*G54D34*G54D33*M02*
