G04 start of page 15 for group -4015 idx -4015 *
G04 Title: (unknown), toppaste *
G04 Creator: pcb 20140316 *
G04 CreationDate: Wed Jul  8 15:06:37 2015 UTC *
G04 For: frankenteddy *
G04 Format: Gerber/RS-274X *
G04 PCB-Dimensions (mil): 3270.00 2515.00 *
G04 PCB-Coordinate-Origin: lower left *
%MOIN*%
%FSLAX25Y25*%
%LNTOPPASTE*%
%ADD83R,0.0787X0.0787*%
%ADD82R,0.0157X0.0157*%
%ADD81R,0.0600X0.0600*%
%ADD80R,0.0394X0.0394*%
%ADD79R,0.1220X0.1220*%
%ADD78R,0.0560X0.0560*%
%ADD77R,0.0748X0.0748*%
%ADD76R,0.0500X0.0500*%
%ADD75R,0.0510X0.0510*%
%ADD74R,0.0118X0.0118*%
%ADD73R,0.0472X0.0472*%
G54D73*X261222Y161521D02*X263978D01*
X261222Y175300D02*X263978D01*
G54D74*X261025Y164473D02*X264175D01*
G54D75*X262600Y131400D02*X265000D01*
X262600Y143200D02*X265000D01*
G54D76*X69000Y70500D02*X74000D01*
X69000Y80500D02*X74000D01*
X69000Y90500D02*X74000D01*
X90500Y70500D02*X95500D01*
X90500Y80500D02*X95500D01*
X90500Y90500D02*X95500D01*
X69500Y38500D02*X74500D01*
X69500Y48500D02*X74500D01*
X69500Y58500D02*X74500D01*
X91000Y38500D02*X96000D01*
X91000Y48500D02*X96000D01*
X91000Y58500D02*X96000D01*
G54D77*X254185Y219473D02*X257728D01*
X254185Y199000D02*X257728D01*
X207728D02*X211272D01*
X207728Y219473D02*X211272D01*
G54D73*X188550Y206800D02*X194849D01*
X161779D02*X168078D01*
X188550Y221761D02*X194849D01*
X161779D02*X168078D01*
G54D78*X240200Y116500D02*X246800D01*
X240200Y125500D02*X246800D01*
X240200Y134600D02*X246800D01*
G54D79*X219100Y130000D02*Y121000D01*
G54D75*X262600Y103600D02*X265000D01*
X262600Y115400D02*X265000D01*
G54D80*X192327Y116055D02*Y110150D01*
Y132984D02*Y127079D01*
X221550Y158173D02*X227455D01*
X238479D02*X244384D01*
G54D73*X79000Y182149D02*Y175850D01*
Y155378D02*Y149079D01*
X64039Y182149D02*Y175850D01*
Y155378D02*Y149079D01*
G54D75*X65700Y195200D02*Y192800D01*
X77500Y195200D02*Y192800D01*
G54D76*X167200Y147100D02*X172200D01*
X167200Y157100D02*X172200D01*
X167200Y167100D02*X172200D01*
X188700Y147100D02*X193700D01*
X188700Y157100D02*X193700D01*
X188700Y167100D02*X193700D01*
G54D81*X95700Y194200D02*Y182200D01*
X105700Y194200D02*Y182200D01*
X115700Y194200D02*Y182200D01*
X125700Y194200D02*Y182200D01*
X135700Y194200D02*Y182200D01*
X145700Y194200D02*Y182200D01*
G54D75*X157800Y186600D02*Y184200D01*
X169600Y186600D02*Y184200D01*
X67350Y104150D02*X69750D01*
X67350Y115950D02*X69750D01*
X121400Y164700D02*Y162300D01*
X109600Y164700D02*Y162300D01*
G54D82*X104258Y148073D02*X107184D01*
X104258Y144924D02*X107184D01*
X104258Y141774D02*X107184D01*
X104258Y138625D02*X107184D01*
X104258Y135475D02*X107184D01*
X104258Y132325D02*X107184D01*
X104258Y129176D02*X107184D01*
X104258Y126026D02*X107184D01*
X111227Y121984D02*Y119058D01*
X114376Y121984D02*Y119058D01*
X117526Y121984D02*Y119058D01*
X120675Y121984D02*Y119058D01*
X123825Y121984D02*Y119058D01*
X126975Y121984D02*Y119058D01*
X130124Y121984D02*Y119058D01*
X133274Y121984D02*Y119058D01*
X137316Y126027D02*X140242D01*
X137316Y129176D02*X140242D01*
X137316Y132326D02*X140242D01*
X137316Y135475D02*X140242D01*
X137316Y138625D02*X140242D01*
X137316Y141775D02*X140242D01*
X137316Y144924D02*X140242D01*
X137316Y148074D02*X140242D01*
X133273Y155042D02*Y152116D01*
X130124Y155042D02*Y152116D01*
X126974Y155042D02*Y152116D01*
X123825Y155042D02*Y152116D01*
X120675Y155042D02*Y152116D01*
X117525Y155042D02*Y152116D01*
X114376Y155042D02*Y152116D01*
X111226Y155042D02*Y152116D01*
G54D83*X81556Y111282D02*X83131D01*
X81556Y127030D02*X83131D01*
G54D76*X240000Y96000D02*X245000D01*
X240000Y86000D02*X245000D01*
X240000Y76000D02*X245000D01*
X218500Y96000D02*X223500D01*
X218500Y86000D02*X223500D01*
X218500Y76000D02*X223500D01*
G54D75*X65500Y221900D02*Y219500D01*
X77300Y221900D02*Y219500D01*
X65550Y208950D02*Y206550D01*
X77350Y208950D02*Y206550D01*
G54D76*X227500Y39000D02*X232500D01*
X227500Y49000D02*X232500D01*
X227500Y59000D02*X232500D01*
X249000Y39000D02*X254000D01*
X249000Y49000D02*X254000D01*
X249000Y59000D02*X254000D01*
G54D75*X67750Y125450D02*X70150D01*
X67750Y137250D02*X70150D01*
G54D76*X200900Y40700D02*Y35700D01*
X190900Y40700D02*Y35700D01*
X180900Y40700D02*Y35700D01*
X200900Y62200D02*Y57200D01*
X190900Y62200D02*Y57200D01*
X180900Y62200D02*Y57200D01*
G54D75*X195050Y88950D02*Y86550D01*
X206850Y88950D02*Y86550D01*
X195050Y77450D02*Y75050D01*
X206850Y77450D02*Y75050D01*
G54D76*X149400Y40800D02*Y35800D01*
X139400Y40800D02*Y35800D01*
X129400Y40800D02*Y35800D01*
X149400Y62300D02*Y57300D01*
X139400Y62300D02*Y57300D01*
X129400Y62300D02*Y57300D01*
X125900Y73000D02*X130900D01*
X125900Y83000D02*X130900D01*
X125900Y93000D02*X130900D01*
X147400Y73000D02*X152400D01*
X147400Y83000D02*X152400D01*
X147400Y93000D02*X152400D01*
M02*
