G04 start of page 4 for group 2 idx 2 *
G04 Title: (unknown), signal2 *
G04 Creator: pcb 20140316 *
G04 CreationDate: Wed Jul  8 14:59:58 2015 UTC *
G04 For: frankenteddy *
G04 Format: Gerber/RS-274X *
G04 PCB-Dimensions (mil): 3270.00 2515.00 *
G04 PCB-Coordinate-Origin: lower left *
%MOIN*%
%FSLAX25Y25*%
%LNGROUP2*%
%ADD39C,0.0150*%
%ADD38C,0.1575*%
%ADD37C,0.0350*%
%ADD36C,0.1968*%
G54D36*X21000Y24500D03*
G54D37*X52000Y48500D03*
Y80500D03*
X59900Y70400D03*
G54D36*X21000Y229500D03*
G54D37*X57300Y228700D03*
X52000Y163500D03*
X56600Y188900D03*
X46700D03*
X46600Y182500D03*
X57000Y182700D03*
X46600Y169700D03*
X46500Y176300D03*
X57200Y176200D03*
X57500Y169900D03*
X71500Y169300D03*
X71400Y200500D03*
X97500Y150100D03*
X97000Y138600D03*
X135800Y175100D03*
X135200Y162000D03*
X132100Y146800D03*
X137500Y153600D03*
X153400Y141200D03*
X128800Y162200D03*
X162500D03*
X157100Y162700D03*
X145500Y159400D03*
X102400Y152200D03*
X91600Y145700D03*
X159300Y67000D03*
X136300Y49800D03*
X113600Y65500D03*
X149200Y24600D03*
X124100Y24500D03*
X174100D03*
X119600Y175500D03*
X175300Y229600D03*
X115600Y210800D03*
X121800Y219200D03*
X110300Y219100D03*
X90800Y219200D03*
X121700Y224600D03*
X109700Y224000D03*
X153000Y147000D03*
X161500D03*
X232000Y134500D03*
Y149000D03*
X180000Y102000D03*
X155900Y99300D03*
G54D36*X298000Y229500D03*
G54D37*X274200Y75800D03*
X232500Y91000D03*
X229500Y76000D03*
X154800Y74300D03*
X240000Y29500D03*
X174900Y93600D03*
X220100Y39000D03*
X261000Y41500D03*
X242800Y59500D03*
X260500Y49100D03*
G54D36*X298000Y24500D03*
G54D37*X274500Y65500D03*
X199200Y24400D03*
X162450Y125850D03*
X152700Y126100D03*
X130900Y130600D03*
X114700Y130200D03*
X119000Y131900D03*
X133400Y125800D03*
X100900Y118600D03*
X125000Y94500D03*
X109800Y104400D03*
X107000Y118800D03*
X93900Y97800D03*
X83900Y49800D03*
Y58500D03*
X103400Y80300D03*
X101000Y85700D03*
X123700Y66400D03*
X111200Y80300D03*
X125400Y83000D03*
X136700Y91600D03*
X132100Y88700D03*
X149400Y67100D03*
X147603Y71897D03*
X142500Y91800D03*
X133800Y78200D03*
G54D38*G54D39*G54D38*G54D39*G54D38*G54D39*G54D38*G54D39*M02*
