G04 start of page 11 for group -4063 idx -4063 *
G04 Title: (unknown), componentmask *
G04 Creator: pcb 20140316 *
G04 CreationDate: Wed Jul  8 14:59:58 2015 UTC *
G04 For: frankenteddy *
G04 Format: Gerber/RS-274X *
G04 PCB-Dimensions (mil): 3270.00 2515.00 *
G04 PCB-Coordinate-Origin: lower left *
%MOIN*%
%FSLAX25Y25*%
%LNTOPMASK*%
%ADD70R,0.0187X0.0187*%
%ADD69R,0.0700X0.0700*%
%ADD68R,0.1280X0.1280*%
%ADD67R,0.0494X0.0494*%
%ADD66R,0.0620X0.0620*%
%ADD65R,0.0218X0.0218*%
%ADD64R,0.0572X0.0572*%
%ADD63R,0.0848X0.0848*%
%ADD62R,0.0230X0.0230*%
%ADD61R,0.0887X0.0887*%
%ADD60R,0.0610X0.0610*%
%ADD59R,0.0600X0.0600*%
G54D59*X69000Y70500D02*X74000D01*
X69000Y80500D02*X74000D01*
X69500Y38500D02*X74500D01*
X69500Y48500D02*X74500D01*
X69500Y58500D02*X74500D01*
X90500Y70500D02*X95500D01*
X91000Y38500D02*X96000D01*
X91000Y48500D02*X96000D01*
X91000Y58500D02*X96000D01*
G54D60*X118200Y59200D02*Y56800D01*
X130000Y59200D02*Y56800D01*
X143200Y59200D02*Y56800D01*
X155000Y59200D02*Y56800D01*
X118250Y42150D02*Y39750D01*
X130050Y42150D02*Y39750D01*
X143250Y42150D02*Y39750D01*
X155050Y42150D02*Y39750D01*
G54D59*X69000Y90500D02*X74000D01*
X90500Y80500D02*X95500D01*
X90500Y90500D02*X95500D01*
G54D60*X67350Y104150D02*X69750D01*
X67350Y115950D02*X69750D01*
G54D61*X81556Y111282D02*X83131D01*
G54D60*X116300Y110000D02*X118700D01*
X116300Y98200D02*X118700D01*
X131300Y109800D02*X133700D01*
X131300Y98000D02*X133700D01*
X104800Y110000D02*X107200D01*
X104800Y98200D02*X107200D01*
G54D62*X115383Y87856D02*X119989D01*
X115383Y85297D02*X119989D01*
X115383Y82738D02*X119989D01*
X115383Y80179D02*X119989D01*
X115383Y77621D02*X119989D01*
X115383Y75062D02*X119989D01*
X115383Y72503D02*X119989D01*
G54D60*X146800Y109800D02*X149200D01*
X146800Y98000D02*X149200D01*
G54D62*X115383Y69944D02*X119989D01*
X138611D02*X143217D01*
X138611Y72503D02*X143217D01*
X138611Y75062D02*X143217D01*
X138611Y77621D02*X143217D01*
X138611Y80179D02*X143217D01*
X138611Y82738D02*X143217D01*
X138611Y85297D02*X143217D01*
X138611Y87856D02*X143217D01*
G54D63*X254185Y219473D02*X257728D01*
X254185Y199000D02*X257728D01*
X207728D02*X211272D01*
X207728Y219473D02*X211272D01*
G54D64*X188550Y206800D02*X194849D01*
X188550Y221761D02*X194849D01*
X161779Y206800D02*X168078D01*
X161779Y221761D02*X168078D01*
X261222Y161521D02*X263978D01*
X261222Y175300D02*X263978D01*
G54D65*X261025Y164473D02*X264175D01*
G54D60*X262600Y143200D02*X265000D01*
X262600Y131400D02*X265000D01*
G54D66*X240200Y116500D02*X246800D01*
X240200Y125500D02*X246800D01*
X240200Y134600D02*X246800D01*
G54D67*X221550Y158173D02*X227455D01*
X238479D02*X244384D01*
G54D60*X262600Y115400D02*X265000D01*
G54D68*X219100Y130000D02*Y121000D01*
G54D59*X167200Y147100D02*X172200D01*
X167200Y157100D02*X172200D01*
X167200Y167100D02*X172200D01*
X188700Y147100D02*X193700D01*
X188700Y157100D02*X193700D01*
X188700Y167100D02*X193700D01*
G54D60*X262600Y103600D02*X265000D01*
G54D59*X240000Y96000D02*X245000D01*
X240000Y86000D02*X245000D01*
X240000Y76000D02*X245000D01*
X218500Y96000D02*X223500D01*
X218500Y86000D02*X223500D01*
X218500Y76000D02*X223500D01*
X227500Y39000D02*X232500D01*
X227500Y49000D02*X232500D01*
X227500Y59000D02*X232500D01*
X249000Y39000D02*X254000D01*
X249000Y49000D02*X254000D01*
X249000Y59000D02*X254000D01*
G54D67*X192327Y116055D02*Y110150D01*
Y132984D02*Y127079D01*
G54D68*X189000Y89000D02*Y80000D01*
G54D60*X168050Y59150D02*Y56750D01*
X168100Y42100D02*Y39700D01*
G54D66*X161300Y75400D02*X167900D01*
G54D60*X179850Y59150D02*Y56750D01*
X179900Y42100D02*Y39700D01*
X193200Y59200D02*Y56800D01*
X205000Y59200D02*Y56800D01*
X193250Y42150D02*Y39750D01*
X205050Y42150D02*Y39750D01*
X204800Y74000D02*X207200D01*
X204800Y85800D02*X207200D01*
G54D66*X161300Y93500D02*X167900D01*
X161300Y84500D02*X167900D01*
G54D60*X174000Y107700D02*Y105300D01*
X162200Y107700D02*Y105300D01*
G54D64*X79000Y155378D02*Y149079D01*
X64039Y182149D02*Y175850D01*
Y155378D02*Y149079D01*
X79000Y182149D02*Y175850D01*
G54D60*X65700Y195200D02*Y192800D01*
X77500Y195200D02*Y192800D01*
G54D69*X95700Y194200D02*Y182200D01*
G54D60*X65500Y221900D02*Y219500D01*
X77300Y221900D02*Y219500D01*
X65550Y208950D02*Y206550D01*
X77350Y208950D02*Y206550D01*
G54D69*X105700Y194200D02*Y182200D01*
X115700Y194200D02*Y182200D01*
X125700Y194200D02*Y182200D01*
G54D60*X121400Y164700D02*Y162300D01*
G54D69*X135700Y194200D02*Y182200D01*
X145700Y194200D02*Y182200D01*
G54D60*X157800Y186600D02*Y184200D01*
X169600Y186600D02*Y184200D01*
X109600Y164700D02*Y162300D01*
G54D70*X104258Y148073D02*X107184D01*
X104258Y144924D02*X107184D01*
X104258Y141774D02*X107184D01*
X104258Y138625D02*X107184D01*
X104258Y135475D02*X107184D01*
X111226Y155042D02*Y152116D01*
X104258Y132325D02*X107184D01*
X104258Y129176D02*X107184D01*
X104258Y126026D02*X107184D01*
X111227Y121984D02*Y119058D01*
G54D61*X81556Y127030D02*X83131D01*
G54D60*X67750Y125450D02*X70150D01*
X67750Y137250D02*X70150D01*
G54D70*X114376Y121984D02*Y119058D01*
X117526Y121984D02*Y119058D01*
X120675Y121984D02*Y119058D01*
X123825Y121984D02*Y119058D01*
X126975Y121984D02*Y119058D01*
X130124Y121984D02*Y119058D01*
X133274Y121984D02*Y119058D01*
X137316Y126027D02*X140242D01*
X137316Y129176D02*X140242D01*
X137316Y132326D02*X140242D01*
X137316Y135475D02*X140242D01*
X137316Y138625D02*X140242D01*
X137316Y141775D02*X140242D01*
X137316Y144924D02*X140242D01*
X137316Y148074D02*X140242D01*
X133273Y155042D02*Y152116D01*
X130124Y155042D02*Y152116D01*
X126974Y155042D02*Y152116D01*
X123825Y155042D02*Y152116D01*
X120675Y155042D02*Y152116D01*
X117525Y155042D02*Y152116D01*
X114376Y155042D02*Y152116D01*
M02*
