G04 start of page 13 for group -4079 idx -4079 *
G04 Title: (unknown), topsilk *
G04 Creator: pcb 20140316 *
G04 CreationDate: Wed Jul  8 14:59:58 2015 UTC *
G04 For: frankenteddy *
G04 Format: Gerber/RS-274X *
G04 PCB-Dimensions (mil): 3270.00 2515.00 *
G04 PCB-Coordinate-Origin: lower left *
%MOIN*%
%FSLAX25Y25*%
%LNTOPSILK*%
%ADD74C,0.0250*%
%ADD73C,0.0080*%
%ADD72C,0.0100*%
%ADD71C,0.0060*%
G54D71*X177100Y163100D02*Y171500D01*
X177000Y171600D01*
X162800Y163100D02*X177100D01*
X168100Y174100D02*X172000D01*
Y174000D01*
X169900Y171900D01*
Y172400D01*
X168200Y174100D01*
G54D72*X84800Y214010D02*Y210050D01*
Y210545D02*X85295Y210050D01*
X86285D01*
X86780Y210545D01*
Y211535D02*Y210545D01*
X86285Y212030D02*X86780Y211535D01*
X85295Y212030D02*X86285D01*
X84800Y211535D02*X85295Y212030D01*
X87968Y214010D02*Y210545D01*
X88463Y210050D01*
X89453Y214010D02*Y210050D01*
Y211535D02*X90938Y210050D01*
X89453Y211535D02*X90443Y212525D01*
X150385Y212930D02*X150880Y212435D01*
X149395Y212930D02*X150385D01*
X148900Y212435D02*X149395Y212930D01*
X148900Y212435D02*Y211445D01*
X149395Y210950D01*
X150385D01*
X150880Y211445D01*
X148900Y209960D02*X149395Y209465D01*
X150385D01*
X150880Y209960D01*
Y212930D02*Y209960D01*
X152563Y212435D02*Y210950D01*
Y212435D02*X153058Y212930D01*
X154048D01*
X152068D02*X152563Y212435D01*
X155731D02*Y210950D01*
Y212435D02*X156226Y212930D01*
X156721D01*
X157216Y212435D01*
Y210950D01*
X155236Y212930D02*X155731Y212435D01*
X76500Y228030D02*X78480D01*
X77490Y229020D02*Y227040D01*
X266574Y192500D02*X265430Y193644D01*
X271150D01*
Y194645D02*Y192500D01*
X265430Y198506D02*X266145Y199221D01*
X265430Y198506D02*Y197076D01*
X266145Y196361D02*X265430Y197076D01*
X266145Y196361D02*X270435D01*
X271150Y197076D01*
X268004Y198506D02*X268719Y199221D01*
X268004Y198506D02*Y196361D01*
X271150Y198506D02*Y197076D01*
Y198506D02*X270435Y199221D01*
X268719D02*X270435D01*
X265430Y200937D02*X271150Y202367D01*
X265430Y203797D01*
X269005Y208802D02*X271150D01*
X269005D02*X268290Y209517D01*
Y210232D02*Y209517D01*
Y210232D02*X269005Y210947D01*
X271150D01*
X269005D02*X268290Y211662D01*
Y212377D02*Y211662D01*
Y212377D02*X269005Y213092D01*
X271150D01*
X268290Y208087D02*X269005Y208802D01*
X268290Y216953D02*X269005Y217668D01*
X268290Y216953D02*Y215523D01*
X269005Y214808D02*X268290Y215523D01*
X269005Y214808D02*X270435D01*
X271150Y215523D01*
X268290Y217668D02*X270435D01*
X271150Y218383D01*
Y216953D02*Y215523D01*
Y216953D02*X270435Y217668D01*
X268290Y220099D02*X271150Y222959D01*
Y220099D02*X268290Y222959D01*
X250900Y97630D02*Y96145D01*
X251395Y95650D01*
X252385D01*
X252880Y96145D01*
Y97630D02*Y96145D01*
X254761Y95650D02*X256048D01*
X254068Y96343D02*X254761Y95650D01*
X254068Y98917D02*Y96343D01*
Y98917D02*X254761Y99610D01*
X256048D01*
X250395Y85635D02*Y84150D01*
Y85635D02*X250890Y86130D01*
X251385D01*
X251880Y85635D01*
Y84150D01*
Y85635D02*X252375Y86130D01*
X252870D01*
X253365Y85635D01*
Y84150D01*
X249900Y86130D02*X250395Y85635D01*
X255048Y88110D02*Y84645D01*
X255543Y84150D01*
X254553Y86625D02*X255543D01*
X257028Y85635D02*Y84150D01*
Y85635D02*X257523Y86130D01*
X258513D01*
X256533D02*X257028Y85635D01*
X260196Y84150D02*X261681D01*
X262176Y84645D01*
X261681Y85140D02*X262176Y84645D01*
X260196Y85140D02*X261681D01*
X259701Y85635D02*X260196Y85140D01*
X259701Y85635D02*X260196Y86130D01*
X261681D01*
X262176Y85635D01*
X259701Y84645D02*X260196Y84150D01*
X251395Y75135D02*Y73650D01*
Y75135D02*X251890Y75630D01*
X252385D01*
X252880Y75135D01*
Y73650D01*
Y75135D02*X253375Y75630D01*
X253870D01*
X254365Y75135D01*
Y73650D01*
X250900Y75630D02*X251395Y75135D01*
X256048Y77610D02*Y74145D01*
X256543Y73650D01*
X255553Y76125D02*X256543D01*
X258028Y75135D02*Y73650D01*
Y75135D02*X258523Y75630D01*
X259513D01*
X257533D02*X258028Y75135D01*
X261196Y73650D02*X262681D01*
X263176Y74145D01*
X262681Y74640D02*X263176Y74145D01*
X261196Y74640D02*X262681D01*
X260701Y75135D02*X261196Y74640D01*
X260701Y75135D02*X261196Y75630D01*
X262681D01*
X263176Y75135D01*
X260701Y74145D02*X261196Y73650D01*
X259900Y81630D02*X260890Y82620D01*
X259900Y81630D02*X260890Y80640D01*
X262078Y81630D02*X264058D01*
X267028Y83610D02*X268018Y79650D01*
X269008Y83610D01*
X270196Y82620D02*Y82521D01*
Y81135D02*Y79650D01*
X271681Y81135D02*Y79650D01*
Y81135D02*X272176Y81630D01*
X272671D01*
X273166Y81135D01*
Y79650D01*
X271186Y81630D02*X271681Y81135D01*
X254182Y92630D02*X255172Y93620D01*
X254182Y92630D02*X255172Y91640D01*
X256360Y92630D02*X258340D01*
X261310Y94610D02*X262300Y90650D01*
X263290Y94610D01*
X264478Y93620D02*Y93521D01*
Y92135D02*Y90650D01*
X265963Y92135D02*Y90650D01*
Y92135D02*X266458Y92630D01*
X266953D01*
X267448Y92135D01*
Y90650D01*
X265468Y92630D02*X265963Y92135D01*
X277430Y79215D02*X283150D01*
X277430Y81360D02*Y78500D01*
Y81360D02*X278145Y82075D01*
X279575D01*
X280290Y81360D02*X279575Y82075D01*
X280290Y81360D02*Y79215D01*
Y83791D02*X282435D01*
X283150Y84506D01*
Y85221D02*Y84506D01*
Y85221D02*X282435Y85936D01*
X280290D02*X282435D01*
X283150Y86651D01*
Y87366D02*Y86651D01*
Y87366D02*X282435Y88081D01*
X280290D02*X282435D01*
X281005Y90512D02*X283150D01*
X281005D02*X280290Y91227D01*
Y92657D02*Y91227D01*
Y89797D02*X281005Y90512D01*
X258400Y71130D02*X259390Y72120D01*
X258400Y71130D02*X259390Y70140D01*
X260578Y71130D02*X262558D01*
X265528Y73110D02*X266518Y69150D01*
X267508Y73110D01*
X269191Y71130D02*X270676D01*
X268696Y70635D02*X269191Y71130D01*
X268696Y70635D02*Y69645D01*
X269191Y69150D01*
X270676D01*
X272359Y71130D02*X273844D01*
X271864Y70635D02*X272359Y71130D01*
X271864Y70635D02*Y69645D01*
X272359Y69150D01*
X273844D01*
X262000Y42010D02*Y38050D01*
Y42010D02*X263485Y40030D01*
X264970Y42010D01*
Y38050D01*
X266158D02*X268138D01*
X268633Y38545D01*
Y39733D02*Y38545D01*
X268138Y40228D02*X268633Y39733D01*
X266653Y40228D02*X268138D01*
X266653Y42010D02*Y38050D01*
X266158Y42010D02*X268138D01*
X268633Y41515D01*
Y40723D01*
X268138Y40228D02*X268633Y40723D01*
X278430Y41500D02*X284150D01*
Y44360D02*Y41500D01*
Y48936D02*Y46791D01*
X283435Y46076D02*X284150Y46791D01*
X282005Y46076D02*X283435D01*
X282005D02*X281290Y46791D01*
Y48221D02*Y46791D01*
Y48221D02*X282005Y48936D01*
X282720D02*Y46076D01*
X282005Y48936D02*X282720D01*
X279145Y51367D02*X284150D01*
X279145D02*X278430Y52082D01*
Y52797D02*Y52082D01*
X281290D02*Y50652D01*
X278430Y54942D02*X283435D01*
X284150Y55657D01*
X280575D02*Y54227D01*
X262000Y50228D02*X263485D01*
X262000Y48050D02*X263980D01*
X262000Y52010D02*Y48050D01*
Y52010D02*X263980D01*
X265168Y50030D02*X267148D01*
X268336Y51020D02*Y48050D01*
Y51020D02*X269029Y52010D01*
X270118D01*
X270811Y51020D01*
Y48050D01*
X268336Y50030D02*X270811D01*
X271999Y51515D02*X272494Y52010D01*
X273979D01*
X274474Y51515D01*
Y50525D01*
X271999Y48050D02*X274474Y50525D01*
X271999Y48050D02*X274474D01*
X212500Y51010D02*X213490Y47050D01*
X214480Y51010D01*
X216361Y47050D02*X217648D01*
X215668Y47743D02*X216361Y47050D01*
X215668Y50317D02*Y47743D01*
Y50317D02*X216361Y51010D01*
X217648D01*
X219529Y47050D02*X220816D01*
X218836Y47743D02*X219529Y47050D01*
X218836Y50317D02*Y47743D01*
Y50317D02*X219529Y51010D01*
X220816D01*
X227300Y14800D02*X228600D01*
X226600Y15500D02*X227300Y14800D01*
X226600Y18100D02*Y15500D01*
Y18100D02*X227300Y18800D01*
X228600D01*
X230500Y14800D02*X231800D01*
X229800Y15500D02*X230500Y14800D01*
X229800Y18100D02*Y15500D01*
Y18100D02*X230500Y18800D01*
X231800D01*
X234800Y14800D02*X236800D01*
X237300Y15300D01*
Y16500D02*Y15300D01*
X236800Y17000D02*X237300Y16500D01*
X235300Y17000D02*X236800D01*
X235300Y18800D02*Y14800D01*
X234800Y18800D02*X236800D01*
X237300Y18300D01*
Y17500D01*
X236800Y17000D02*X237300Y17500D01*
X238500Y18800D02*X239500Y16800D01*
X240500Y18800D01*
X239500Y16800D02*Y14800D01*
X241700Y16800D02*X243700D01*
X246900Y18800D02*X247400Y18300D01*
X245400Y18800D02*X246900D01*
X244900Y18300D02*X245400Y18800D01*
X244900Y18300D02*Y17300D01*
X245400Y16800D01*
X246900D01*
X247400Y16300D01*
Y15300D01*
X246900Y14800D02*X247400Y15300D01*
X245400Y14800D02*X246900D01*
X244900Y15300D02*X245400Y14800D01*
X248600Y17800D02*Y14800D01*
Y17800D02*X249300Y18800D01*
X250400D01*
X251100Y17800D01*
Y14800D01*
X248600Y16800D02*X251100D01*
X261500Y59228D02*X262985D01*
X261500Y57050D02*X263480D01*
X261500Y61010D02*Y57050D01*
Y61010D02*X263480D01*
X264668Y59030D02*X266648D01*
X267836Y60515D02*X268331Y61010D01*
X269321D01*
X269816Y60515D01*
X269321Y57050D02*X269816Y57545D01*
X268331Y57050D02*X269321D01*
X267836Y57545D02*X268331Y57050D01*
Y59228D02*X269321D01*
X269816Y60515D02*Y59723D01*
Y58733D02*Y57545D01*
Y58733D02*X269321Y59228D01*
X269816Y59723D02*X269321Y59228D01*
X212980Y61010D02*X213475Y60515D01*
X211495Y61010D02*X212980D01*
X211000Y60515D02*X211495Y61010D01*
X211000Y60515D02*Y57545D01*
X211495Y57050D01*
X212980D01*
X213475Y57545D01*
Y58535D02*Y57545D01*
X212980Y59030D02*X213475Y58535D01*
X211990Y59030D02*X212980D01*
X214663Y61010D02*Y57050D01*
Y61010D02*X217138Y57050D01*
Y61010D02*Y57050D01*
X218821Y61010D02*Y57050D01*
X220108Y61010D02*X220801Y60317D01*
Y57743D01*
X220108Y57050D02*X220801Y57743D01*
X218326Y57050D02*X220108D01*
X218326Y61010D02*X220108D01*
X179050Y47980D02*X181030D01*
X180040Y48970D02*Y46990D01*
X204050Y47980D02*X206030D01*
X205040Y48970D02*Y46990D01*
X168050Y33960D02*Y30000D01*
X170030D01*
X173000Y31980D02*X174980D01*
X177950Y32970D02*Y30000D01*
Y32970D02*X178643Y33960D01*
X179732D01*
X180425Y32970D01*
Y30000D01*
X177950Y31980D02*X180425D01*
X193050Y33960D02*Y30000D01*
X195030D01*
X198000Y31980D02*X199980D01*
X202950Y30000D02*X204930D01*
X205425Y30495D01*
Y31683D02*Y30495D01*
X204930Y32178D02*X205425Y31683D01*
X203445Y32178D02*X204930D01*
X203445Y33960D02*Y30000D01*
X202950Y33960D02*X204930D01*
X205425Y33465D01*
Y32673D01*
X204930Y32178D02*X205425Y32673D01*
X213500Y40010D02*Y36050D01*
Y40010D02*X214985Y38030D01*
X216470Y40010D01*
Y36050D01*
X217658Y39020D02*Y36050D01*
Y39020D02*X218351Y40010D01*
X219440D01*
X220133Y39020D01*
Y36050D01*
X217658Y38030D02*X220133D01*
X201430Y151930D02*Y150500D01*
Y151215D02*X207150D01*
Y151930D02*Y150500D01*
Y156506D02*Y154647D01*
X206149Y153646D02*X207150Y154647D01*
X202431Y153646D02*X206149D01*
X202431D02*X201430Y154647D01*
Y156506D02*Y154647D01*
Y161082D02*X202145Y161797D01*
X201430Y161082D02*Y158937D01*
X202145Y158222D02*X201430Y158937D01*
X202145Y158222D02*X203575D01*
X204290Y158937D01*
Y161082D02*Y158937D01*
Y161082D02*X205005Y161797D01*
X206435D01*
X207150Y161082D02*X206435Y161797D01*
X207150Y161082D02*Y158937D01*
X206435Y158222D02*X207150Y158937D01*
X201430Y164228D02*X207150D01*
X201430Y166373D02*Y163513D01*
Y166373D02*X202145Y167088D01*
X203575D01*
X204290Y166373D02*X203575Y167088D01*
X204290Y166373D02*Y164228D01*
X103000Y70718D02*X103792Y71510D01*
Y67550D01*
X103000D02*X104485D01*
X105673Y70718D02*X106465Y71510D01*
Y67550D01*
X105673D02*X107158D01*
X102500Y81520D02*Y78550D01*
Y81520D02*X103193Y82510D01*
X104282D01*
X104975Y81520D01*
Y78550D01*
X102500Y80530D02*X104975D01*
X106163Y82510D02*X108143D01*
X106163D02*Y80530D01*
X106658Y81025D01*
X107648D01*
X108143Y80530D01*
Y79045D01*
X107648Y78550D02*X108143Y79045D01*
X106658Y78550D02*X107648D01*
X106163Y79045D02*X106658Y78550D01*
X53980Y93010D02*X54475Y92515D01*
X52495Y93010D02*X53980D01*
X52000Y92515D02*X52495Y93010D01*
X52000Y92515D02*Y89545D01*
X52495Y89050D01*
X53980D01*
X54475Y89545D01*
Y90535D02*Y89545D01*
X53980Y91030D02*X54475Y90535D01*
X52990Y91030D02*X53980D01*
X55663Y93010D02*Y89050D01*
Y93010D02*X58138Y89050D01*
Y93010D02*Y89050D01*
X59821Y93010D02*Y89050D01*
X61108Y93010D02*X61801Y92317D01*
Y89743D01*
X61108Y89050D02*X61801Y89743D01*
X59326Y89050D02*X61108D01*
X59326Y93010D02*X61108D01*
X103000Y92020D02*Y89050D01*
Y92020D02*X103693Y93010D01*
X104782D01*
X105475Y92020D01*
Y89050D01*
X103000Y91030D02*X105475D01*
X106663Y90535D02*X108643Y93010D01*
X106663Y90535D02*X109138D01*
X108643Y93010D02*Y89050D01*
X54000Y82510D02*X54990Y78550D01*
X55980Y82510D01*
X57861Y78550D02*X59148D01*
X57168Y79243D02*X57861Y78550D01*
X57168Y81817D02*Y79243D01*
Y81817D02*X57861Y82510D01*
X59148D01*
X61029Y78550D02*X62316D01*
X60336Y79243D02*X61029Y78550D01*
X60336Y81817D02*Y79243D01*
Y81817D02*X61029Y82510D01*
X62316D01*
X56000Y72020D02*Y69050D01*
Y72020D02*X56693Y73010D01*
X57782D01*
X58475Y72020D01*
Y69050D01*
X56000Y71030D02*X58475D01*
X59663Y69545D02*X60158Y69050D01*
X59663Y72515D02*Y69545D01*
Y72515D02*X60158Y73010D01*
X61148D01*
X61643Y72515D01*
Y69545D01*
X61148Y69050D02*X61643Y69545D01*
X60158Y69050D02*X61148D01*
X59663Y70040D02*X61643Y72020D01*
X54000Y50510D02*X54990Y46550D01*
X55980Y50510D01*
X57861Y46550D02*X59148D01*
X57168Y47243D02*X57861Y46550D01*
X57168Y49817D02*Y47243D01*
Y49817D02*X57861Y50510D01*
X59148D01*
X61029Y46550D02*X62316D01*
X60336Y47243D02*X61029Y46550D01*
X60336Y49817D02*Y47243D01*
Y49817D02*X61029Y50510D01*
X62316D01*
X54480Y60510D02*X54975Y60015D01*
X52995Y60510D02*X54480D01*
X52500Y60015D02*X52995Y60510D01*
X52500Y60015D02*Y57045D01*
X52995Y56550D01*
X54480D01*
X54975Y57045D01*
Y58035D02*Y57045D01*
X54480Y58530D02*X54975Y58035D01*
X53490Y58530D02*X54480D01*
X56163Y60510D02*Y56550D01*
Y60510D02*X58638Y56550D01*
Y60510D02*Y56550D01*
X60321Y60510D02*Y56550D01*
X61608Y60510D02*X62301Y59817D01*
Y57243D01*
X61608Y56550D02*X62301Y57243D01*
X59826Y56550D02*X61608D01*
X59826Y60510D02*X61608D01*
X55000Y39510D02*Y35550D01*
Y39510D02*X56485Y37530D01*
X57970Y39510D01*
Y35550D01*
X59158Y38520D02*Y35550D01*
Y38520D02*X59851Y39510D01*
X60940D01*
X61633Y38520D01*
Y35550D01*
X59158Y37530D02*X61633D01*
X103000Y40010D02*Y36050D01*
Y40010D02*X104485Y38030D01*
X105970Y40010D01*
Y36050D01*
X107158D02*X109138D01*
X109633Y36545D01*
Y37733D02*Y36545D01*
X109138Y38228D02*X109633Y37733D01*
X107653Y38228D02*X109138D01*
X107653Y40010D02*Y36050D01*
X107158Y40010D02*X109138D01*
X109633Y39515D01*
Y38723D01*
X109138Y38228D02*X109633Y38723D01*
X103000Y48728D02*X104485D01*
X103000Y46550D02*X104980D01*
X103000Y50510D02*Y46550D01*
Y50510D02*X104980D01*
X106168Y48530D02*X108148D01*
X109336Y48035D02*X111316Y50510D01*
X109336Y48035D02*X111811D01*
X111316Y50510D02*Y46550D01*
X102500Y58228D02*X103985D01*
X102500Y56050D02*X104480D01*
X102500Y60010D02*Y56050D01*
Y60010D02*X104480D01*
X105668Y58030D02*X107648D01*
X108836Y59515D02*X109331Y60010D01*
X110816D01*
X111311Y59515D01*
Y58525D01*
X108836Y56050D02*X111311Y58525D01*
X108836Y56050D02*X111311D01*
X117050Y33960D02*X119030D01*
X119525Y33465D01*
Y32475D01*
X119030Y31980D02*X119525Y32475D01*
X117545Y31980D02*X119030D01*
X117545Y33960D02*Y30000D01*
X118337Y31980D02*X119525Y30000D01*
X122495Y31980D02*X124475D01*
X127445Y32970D02*Y30000D01*
Y32970D02*X128138Y33960D01*
X129227D01*
X129920Y32970D01*
Y30000D01*
X127445Y31980D02*X129920D01*
X129050Y47980D02*X131030D01*
X130040Y48970D02*Y46990D01*
X154050Y47980D02*X156030D01*
X155040Y48970D02*Y46990D01*
X143050Y33960D02*X145030D01*
X145525Y33465D01*
Y32475D01*
X145030Y31980D02*X145525Y32475D01*
X143545Y31980D02*X145030D01*
X143545Y33960D02*Y30000D01*
X144337Y31980D02*X145525Y30000D01*
X148495Y31980D02*X150475D01*
X153445Y30000D02*X155425D01*
X155920Y30495D01*
Y31683D02*Y30495D01*
X155425Y32178D02*X155920Y31683D01*
X153940Y32178D02*X155425D01*
X153940Y33960D02*Y30000D01*
X153445Y33960D02*X155425D01*
X155920Y33465D01*
Y32673D01*
X155425Y32178D02*X155920Y32673D01*
X101000Y21640D02*X104720D01*
X105650Y20710D01*
Y18850D01*
X104720Y17920D02*X105650Y18850D01*
X101930Y17920D02*X104720D01*
X101930Y21640D02*Y14200D01*
X103418Y17920D02*X105650Y14200D01*
X108812Y21640D02*Y14200D01*
X111230Y21640D02*X112532Y20338D01*
Y15502D01*
X111230Y14200D02*X112532Y15502D01*
X107882Y14200D02*X111230D01*
X107882Y21640D02*X111230D01*
X114764Y19780D02*Y14200D01*
Y19780D02*X116066Y21640D01*
X118112D01*
X119414Y19780D01*
Y14200D01*
X114764Y17920D02*X119414D01*
X125366Y21640D02*X126296Y20710D01*
X122576Y21640D02*X125366D01*
X121646Y20710D02*X122576Y21640D01*
X121646Y20710D02*Y18850D01*
X122576Y17920D01*
X125366D01*
X126296Y16990D01*
Y15130D01*
X125366Y14200D02*X126296Y15130D01*
X122576Y14200D02*X125366D01*
X121646Y15130D02*X122576Y14200D01*
X131876Y21640D02*Y14200D01*
Y21640D02*X134666Y17920D01*
X137456Y21640D01*
Y14200D01*
X139688Y16990D02*Y15130D01*
Y16990D02*X140618Y17920D01*
X142478D01*
X143408Y16990D01*
Y15130D01*
X142478Y14200D02*X143408Y15130D01*
X140618Y14200D02*X142478D01*
X139688Y15130D02*X140618Y14200D01*
X146570Y21640D02*Y15130D01*
X147500Y14200D01*
X145640Y18850D02*X147500D01*
X149360Y16990D02*Y15130D01*
Y16990D02*X150290Y17920D01*
X152150D01*
X153080Y16990D01*
Y15130D01*
X152150Y14200D02*X153080Y15130D01*
X150290Y14200D02*X152150D01*
X149360Y15130D02*X150290Y14200D01*
X156242Y16990D02*Y14200D01*
Y16990D02*X157172Y17920D01*
X159032D01*
X155312D02*X156242Y16990D01*
X164612Y14200D02*X168332D01*
X169262Y15130D01*
Y17362D02*Y15130D01*
X168332Y18292D02*X169262Y17362D01*
X165542Y18292D02*X168332D01*
X165542Y21640D02*Y14200D01*
X164612Y21640D02*X168332D01*
X169262Y20710D01*
Y19222D01*
X168332Y18292D02*X169262Y19222D01*
X171494Y16990D02*Y15130D01*
Y16990D02*X172424Y17920D01*
X174284D01*
X175214Y16990D01*
Y15130D01*
X174284Y14200D02*X175214Y15130D01*
X172424Y14200D02*X174284D01*
X171494Y15130D02*X172424Y14200D01*
X180236Y17920D02*X181166Y16990D01*
X178376Y17920D02*X180236D01*
X177446Y16990D02*X178376Y17920D01*
X177446Y16990D02*Y15130D01*
X178376Y14200D01*
X181166Y17920D02*Y15130D01*
X182096Y14200D01*
X178376D02*X180236D01*
X181166Y15130D01*
X185258Y16990D02*Y14200D01*
Y16990D02*X186188Y17920D01*
X188048D01*
X184328D02*X185258Y16990D01*
X194000Y21640D02*Y14200D01*
X193070D02*X194000Y15130D01*
X191210Y14200D02*X193070D01*
X190280Y15130D02*X191210Y14200D01*
X190280Y16990D02*Y15130D01*
Y16990D02*X191210Y17920D01*
X193070D01*
X194000Y16990D01*
X199580Y17920D02*X201440Y14200D01*
X203300Y17920D02*X201440Y14200D01*
X205532Y20152D02*X207020Y21640D01*
Y14200D01*
X205532D02*X208322D01*
X210554D02*X211484D01*
X213716Y15130D02*X214646Y14200D01*
X213716Y20710D02*Y15130D01*
Y20710D02*X214646Y21640D01*
X216506D01*
X217436Y20710D01*
Y15130D01*
X216506Y14200D02*X217436Y15130D01*
X214646Y14200D02*X216506D01*
X213716Y16060D02*X217436Y19780D01*
X48570Y55500D02*Y52640D01*
X47855Y51925D01*
X46425D02*X47855D01*
X45710Y52640D02*X46425Y51925D01*
X45710Y54785D02*Y52640D01*
X42850Y54785D02*X48570D01*
X45710Y53641D02*X42850Y51925D01*
X46997Y50209D02*X47140D01*
X42850D02*X44995D01*
X45710Y46634D02*X44995Y45919D01*
X45710Y48064D02*Y46634D01*
X44995Y48779D02*X45710Y48064D01*
X43565Y48779D02*X44995D01*
X43565D02*X42850Y48064D01*
Y46634D01*
X43565Y45919D01*
X41420Y48779D02*X40705Y48064D01*
Y46634D01*
X41420Y45919D01*
X45710D01*
X42850Y44203D02*X48570D01*
X44995D02*X45710Y43488D01*
Y42058D01*
X44995Y41343D01*
X42850D02*X44995D01*
X43565Y38912D02*X48570D01*
X43565D02*X42850Y38197D01*
X46425Y39627D02*Y38197D01*
X48488Y98640D02*X47773Y97925D01*
X48488Y100785D02*Y98640D01*
X47773Y101500D02*X48488Y100785D01*
X46343Y101500D02*X47773D01*
X46343D02*X45628Y100785D01*
Y98640D01*
X44913Y97925D01*
X43483D02*X44913D01*
X42768Y98640D02*X43483Y97925D01*
X42768Y100785D02*Y98640D01*
X43483Y101500D02*X42768Y100785D01*
Y95494D02*X44913D01*
X45628Y94779D01*
Y94064D01*
X44913Y93349D01*
X42768D02*X44913D01*
X45628Y96209D02*X44913Y95494D01*
X42768Y90918D02*Y88773D01*
X43483Y88058D01*
X44198Y88773D02*X43483Y88058D01*
X44198Y90918D02*Y88773D01*
X44913Y91633D02*X44198Y90918D01*
X44913Y91633D02*X45628Y90918D01*
Y88773D01*
X44913Y88058D01*
X43483Y91633D02*X42768Y90918D01*
Y85627D02*X44913D01*
X45628Y84912D01*
Y83482D01*
Y86342D02*X44913Y85627D01*
X42768Y78191D02*Y76332D01*
X43769Y79192D02*X42768Y78191D01*
X43769Y79192D02*X47487D01*
X48488Y78191D01*
Y76332D01*
X43483Y74616D02*X44913D01*
X45628Y73901D01*
Y72471D01*
X44913Y71756D01*
X43483D02*X44913D01*
X42768Y72471D02*X43483Y71756D01*
X42768Y73901D02*Y72471D01*
X43483Y74616D02*X42768Y73901D01*
Y69325D02*X44913D01*
X45628Y68610D01*
Y67895D01*
X44913Y67180D01*
X42768D02*X44913D01*
X45628Y70040D02*X44913Y69325D01*
X42768Y64749D02*X44913D01*
X45628Y64034D01*
Y63319D01*
X44913Y62604D01*
X42768D02*X44913D01*
X45628Y65464D02*X44913Y64749D01*
G54D71*X258072Y178450D02*Y158371D01*
X267127Y178450D02*Y158371D01*
X258072Y178450D02*X267127D01*
X258072Y164670D02*X267127D01*
X258072Y165064D02*X267127D01*
X258072Y158371D02*X267127D01*
X215012Y179119D02*X250445D01*
Y237386D02*Y179119D01*
X215012Y237386D02*X250445D01*
X215012D02*Y179119D01*
X220917Y235418D02*X244933D01*
Y235417D02*G75*G03X246902Y237386I0J1969D01*G01*
X218948D02*G75*G03X220917Y235417I1969J0D01*G01*
G54D73*X259050Y146950D02*Y127950D01*
Y146950D02*X268650D01*
Y127850D01*
X259050D02*X268650D01*
G54D71*X198393Y225304D02*Y203257D01*
X158235Y225304D02*X198393D01*
X158235D02*Y203257D01*
X198393D01*
G54D72*X210600Y111300D02*X252000D01*
Y139800D02*Y111300D01*
X210600Y139800D02*X252000D01*
X210600D02*Y111300D01*
G54D71*X237691Y172346D02*Y144393D01*
X239660Y171165D02*Y145181D01*
X218006Y158567D02*G75*G03X232967Y143606I14961J0D01*G01*
G75*G03X247928Y158567I0J14961D01*G01*
X247927Y157779D02*G75*G03X232573Y173133I-15354J0D01*G01*
Y173134D02*G75*G03X218006Y158567I0J-14567D01*G01*
X162700Y171600D02*Y142600D01*
Y171600D02*X198700D01*
Y142600D01*
X162700D02*X198700D01*
X87700Y207200D02*Y197200D01*
X90700D02*Y179200D01*
X150700D01*
X87700Y197200D02*X153700D01*
X87700Y207200D02*X153700D01*
G54D74*X95700Y208200D02*Y238200D01*
X105700Y208200D02*Y238200D01*
X115700Y208200D02*Y238200D01*
X125700Y208200D02*Y238200D01*
X135700Y208200D02*Y238200D01*
X145700Y208200D02*Y238200D01*
G54D71*X153700Y207200D02*Y197200D01*
X150700D02*Y179200D01*
G54D73*X105850Y158750D02*X124850D01*
X105850Y168350D02*Y158750D01*
Y168350D02*X124950D01*
Y158750D01*
X111771Y150429D02*X135629D01*
Y123671D01*
X108871D01*
Y147529D01*
X111771Y150429D01*
X110771Y147529D02*G75*G03X110771Y147529I1000J0D01*G01*
X154350Y190150D02*X173350D01*
Y180550D01*
X154250D02*X173350D01*
X154250Y190150D02*Y180550D01*
G54D71*X64500Y95000D02*Y66000D01*
Y95000D02*X100500D01*
Y66000D01*
X64500D02*X100500D01*
X65000Y63000D02*Y34000D01*
Y63000D02*X101000D01*
Y34000D01*
X65000D02*X101000D01*
X60496Y185693D02*X82543D01*
X60496D02*Y145535D01*
X82543D01*
Y185693D02*Y145535D01*
G54D73*X62250Y198750D02*X81250D01*
Y189150D01*
X62150D02*X81250D01*
X62150Y198750D02*Y189150D01*
X63800Y119700D02*Y100700D01*
Y119700D02*X73400D01*
Y100600D01*
X63800D02*X73400D01*
X64200Y141000D02*Y122000D01*
Y141000D02*X73800D01*
Y121900D01*
X64200D02*X73800D01*
G54D71*X76832Y131755D02*Y106558D01*
Y131755D02*X87856D01*
Y106558D01*
X76832D02*X87856D01*
G54D73*X62050Y225450D02*X81050D01*
Y215850D01*
X61950D02*X81050D01*
X61950Y225450D02*Y215850D01*
X62100Y212500D02*X81100D01*
Y202900D01*
X62000D02*X81100D01*
X62000Y212500D02*Y202900D01*
X259050Y119150D02*Y100150D01*
Y119150D02*X268650D01*
Y100050D01*
X259050D02*X268650D01*
G54D71*X249500Y100500D02*Y71500D01*
X213500D02*X249500D01*
X213500Y100500D02*Y71500D01*
Y100500D02*X249500D01*
X223000Y63500D02*Y34500D01*
Y63500D02*X259000D01*
Y34500D01*
X223000D02*X259000D01*
G54D73*X189800Y45700D02*X208800D01*
Y36100D01*
X189700D02*X208800D01*
X189700Y45700D02*Y36100D01*
G54D71*X178154Y126291D02*X206107D01*
X179335Y128260D02*X205319D01*
X191933Y106606D02*G75*G03X206894Y121567I0J14961D01*G01*
G75*G03X191933Y136528I-14961J0D01*G01*
X192721Y136527D02*G75*G03X177367Y121173I0J-15354D01*G01*
X177366D02*G75*G03X191933Y106606I14567J0D01*G01*
G54D73*X164600Y62700D02*X183600D01*
Y53100D01*
X164500D02*X183600D01*
X164500Y62700D02*Y53100D01*
X189750Y62750D02*X208750D01*
Y53150D01*
X189650D02*X208750D01*
X189650Y62750D02*Y53150D01*
X201250Y89550D02*Y70550D01*
Y89550D02*X210850D01*
Y70450D01*
X201250D02*X210850D01*
X158450Y101750D02*X177450D01*
X158450Y111350D02*Y101750D01*
Y111350D02*X177550D01*
Y101750D01*
X114750Y62750D02*X133750D01*
Y53150D01*
X114650D02*X133750D01*
X114650Y62750D02*Y53150D01*
X139750Y62750D02*X158750D01*
Y53150D01*
X139650D02*X158750D01*
X139650Y62750D02*Y53150D01*
X114800Y45700D02*X133800D01*
Y36100D01*
X114700D02*X133800D01*
X114700Y45700D02*Y36100D01*
X139800Y45700D02*X158800D01*
Y36100D01*
X139700D02*X158800D01*
X139700Y45700D02*Y36100D01*
X164650Y45650D02*X183650D01*
Y36050D01*
X164550D02*X183650D01*
X164550Y45650D02*Y36050D01*
G54D72*X156100Y98700D02*X197500D01*
X156100D02*Y70200D01*
X197500D01*
Y98700D02*Y70200D01*
G54D73*X122250Y113450D02*Y94450D01*
X112650D02*X122250D01*
X112650Y113550D02*Y94450D01*
Y113550D02*X122250D01*
X137250Y113250D02*Y94250D01*
X127650D02*X137250D01*
X127650Y113350D02*Y94250D01*
Y113350D02*X137250D01*
X152750Y113250D02*Y94250D01*
X143150D02*X152750D01*
X143150Y113350D02*Y94250D01*
Y113350D02*X152750D01*
G54D72*X113734Y89506D02*Y68294D01*
X144866D01*
Y89506D02*Y68294D01*
X113734Y89506D02*X126800D01*
X131800D02*X144866D01*
X126800D02*G75*G03X131800Y89506I2500J0D01*G01*
G54D73*X110750Y113450D02*Y94450D01*
X101150D02*X110750D01*
X101150Y113550D02*Y94450D01*
Y113550D02*X110750D01*
G54D72*X268901Y170597D02*Y166597D01*
X270201Y170597D02*X270901Y169897D01*
Y167297D01*
X270201Y166597D02*X270901Y167297D01*
X268401Y166597D02*X270201D01*
X268401Y170597D02*X270201D01*
X272101Y170097D02*X272601Y170597D01*
X274101D01*
X274601Y170097D01*
Y169097D01*
X272101Y166597D02*X274601Y169097D01*
X272101Y166597D02*X274601D01*
X270650Y135550D02*X271950D01*
X269950Y136250D02*X270650Y135550D01*
X269950Y138850D02*Y136250D01*
Y138850D02*X270650Y139550D01*
X271950D01*
X274650D02*X275150Y139050D01*
X273650Y139550D02*X274650D01*
X273150Y139050D02*X273650Y139550D01*
X273150Y139050D02*Y136050D01*
X273650Y135550D01*
X274650Y137750D02*X275150Y137250D01*
X273150Y137750D02*X274650D01*
X273650Y135550D02*X274650D01*
X275150Y136050D01*
Y137250D02*Y136050D01*
X171873Y125934D02*X173173D01*
X171173Y126634D02*X171873Y125934D01*
X171173Y129234D02*Y126634D01*
Y129234D02*X171873Y129934D01*
X173173D01*
X174373D02*X176373D01*
X174373D02*Y127934D01*
X174873Y128434D01*
X175873D01*
X176373Y127934D01*
Y126434D01*
X175873Y125934D02*X176373Y126434D01*
X174873Y125934D02*X175873D01*
X174373Y126434D02*X174873Y125934D01*
X207078Y232536D02*X207878D01*
Y229036D01*
X207378Y228536D02*X207878Y229036D01*
X206878Y228536D02*X207378D01*
X206378Y229036D02*X206878Y228536D01*
X206378Y229536D02*Y229036D01*
X209078Y232036D02*X209578Y232536D01*
X211078D01*
X211578Y232036D01*
Y231036D01*
X209078Y228536D02*X211578Y231036D01*
X209078Y228536D02*X211578D01*
X162186Y231007D02*X162686Y230507D01*
X160686Y231007D02*X162186D01*
X160186Y230507D02*X160686Y231007D01*
X160186Y230507D02*Y229507D01*
X160686Y229007D01*
X162186D01*
X162686Y228507D01*
Y227507D01*
X162186Y227007D02*X162686Y227507D01*
X160686Y227007D02*X162186D01*
X160186Y227507D02*X160686Y227007D01*
X163886Y230207D02*X164686Y231007D01*
Y227007D01*
X163886D02*X165386D01*
X211600Y145800D02*Y142300D01*
X212100Y141800D01*
X213100D01*
X213600Y142300D01*
Y145800D02*Y142300D01*
X214800Y145300D02*X215300Y145800D01*
X216800D01*
X217300Y145300D01*
Y144300D01*
X214800Y141800D02*X217300Y144300D01*
X214800Y141800D02*X217300D01*
X210973Y157234D02*X212273D01*
X210273Y157934D02*X210973Y157234D01*
X210273Y160534D02*Y157934D01*
Y160534D02*X210973Y161234D01*
X212273D01*
X213473Y158734D02*X215473Y161234D01*
X213473Y158734D02*X215973D01*
X215473Y161234D02*Y157234D01*
X178800Y176800D02*X179600D01*
Y173300D01*
X179100Y172800D02*X179600Y173300D01*
X178600Y172800D02*X179100D01*
X178100Y173300D02*X178600Y172800D01*
X178100Y173800D02*Y173300D01*
X180800Y176300D02*X181300Y176800D01*
X182300D01*
X182800Y176300D01*
X182300Y172800D02*X182800Y173300D01*
X181300Y172800D02*X182300D01*
X180800Y173300D02*X181300Y172800D01*
Y175000D02*X182300D01*
X182800Y176300D02*Y175500D01*
Y174500D02*Y173300D01*
Y174500D02*X182300Y175000D01*
X182800Y175500D02*X182300Y175000D01*
X161350Y191650D02*X162650D01*
X160650Y192350D02*X161350Y191650D01*
X160650Y194950D02*Y192350D01*
Y194950D02*X161350Y195650D01*
X162650D01*
X163850Y194850D02*X164650Y195650D01*
Y191650D01*
X163850D02*X165350D01*
X80200Y100000D02*X81000D01*
Y96500D01*
X80500Y96000D02*X81000Y96500D01*
X80000Y96000D02*X80500D01*
X79500Y96500D02*X80000Y96000D01*
X79500Y97000D02*Y96500D01*
X82700Y96000D02*X84700Y100000D01*
X82200D02*X84700D01*
X67200Y32500D02*X68000D01*
Y29000D01*
X67500Y28500D02*X68000Y29000D01*
X67000Y28500D02*X67500D01*
X66500Y29000D02*X67000Y28500D01*
X66500Y29500D02*Y29000D01*
X70700Y32500D02*X71200Y32000D01*
X69700Y32500D02*X70700D01*
X69200Y32000D02*X69700Y32500D01*
X69200Y32000D02*Y29000D01*
X69700Y28500D01*
X70700Y30700D02*X71200Y30200D01*
X69200Y30700D02*X70700D01*
X69700Y28500D02*X70700D01*
X71200Y29000D01*
Y30200D02*Y29000D01*
X80050Y137550D02*X81050Y135550D01*
X82050Y137550D01*
X81050Y135550D02*Y133550D01*
X83250Y136750D02*X84050Y137550D01*
Y133550D01*
X83250D02*X84750D01*
X53886Y165807D02*X54386Y165307D01*
X52386Y165807D02*X53886D01*
X51886Y165307D02*X52386Y165807D01*
X51886Y165307D02*Y164307D01*
X52386Y163807D01*
X53886D01*
X54386Y163307D01*
Y162307D01*
X53886Y161807D02*X54386Y162307D01*
X52386Y161807D02*X53886D01*
X51886Y162307D02*X52386Y161807D01*
X55586Y165307D02*X56086Y165807D01*
X57586D01*
X58086Y165307D01*
Y164307D01*
X55586Y161807D02*X58086Y164307D01*
X55586Y161807D02*X58086D01*
X54050Y196450D02*X56050D01*
X56550Y195950D01*
Y194950D01*
X56050Y194450D02*X56550Y194950D01*
X54550Y194450D02*X56050D01*
X54550Y196450D02*Y192450D01*
X55350Y194450D02*X56550Y192450D01*
X57750Y195950D02*X58250Y196450D01*
X59250D01*
X59750Y195950D01*
X59250Y192450D02*X59750Y192950D01*
X58250Y192450D02*X59250D01*
X57750Y192950D02*X58250Y192450D01*
Y194650D02*X59250D01*
X59750Y195950D02*Y195150D01*
Y194150D02*Y192950D01*
Y194150D02*X59250Y194650D01*
X59750Y195150D02*X59250Y194650D01*
X54850Y222650D02*Y218650D01*
X56150Y222650D02*X56850Y221950D01*
Y219350D01*
X56150Y218650D02*X56850Y219350D01*
X54350Y218650D02*X56150D01*
X54350Y222650D02*X56150D01*
X58050Y221850D02*X58850Y222650D01*
Y218650D01*
X58050D02*X59550D01*
X53400Y210200D02*X55400D01*
X55900Y209700D01*
Y208700D01*
X55400Y208200D02*X55900Y208700D01*
X53900Y208200D02*X55400D01*
X53900Y210200D02*Y206200D01*
X54700Y208200D02*X55900Y206200D01*
X57100Y209700D02*X57600Y210200D01*
X59100D01*
X59600Y209700D01*
Y208700D01*
X57100Y206200D02*X59600Y208700D01*
X57100Y206200D02*X59600D01*
X87900Y236200D02*X88700D01*
Y232700D01*
X88200Y232200D02*X88700Y232700D01*
X87700Y232200D02*X88200D01*
X87200Y232700D02*X87700Y232200D01*
X87200Y233200D02*Y232700D01*
X89900Y235400D02*X90700Y236200D01*
Y232200D01*
X89900D02*X91400D01*
X57200Y107600D02*X58500D01*
X56500Y108300D02*X57200Y107600D01*
X56500Y110900D02*Y108300D01*
Y110900D02*X57200Y111600D01*
X58500D01*
X59700Y111100D02*X60200Y111600D01*
X61200D01*
X61700Y111100D01*
X61200Y107600D02*X61700Y108100D01*
X60200Y107600D02*X61200D01*
X59700Y108100D02*X60200Y107600D01*
Y109800D02*X61200D01*
X61700Y111100D02*Y110300D01*
Y109300D02*Y108100D01*
Y109300D02*X61200Y109800D01*
X61700Y110300D02*X61200Y109800D01*
X57500Y129200D02*X58800D01*
X56800Y129900D02*X57500Y129200D01*
X56800Y132500D02*Y129900D01*
Y132500D02*X57500Y133200D01*
X58800D01*
X60000Y132700D02*X60500Y133200D01*
X62000D01*
X62500Y132700D01*
Y131700D01*
X60000Y129200D02*X62500Y131700D01*
X60000Y129200D02*X62500D01*
X97554Y165504D02*X99554D01*
X100054Y165004D01*
Y164004D01*
X99554Y163504D02*X100054Y164004D01*
X98054Y163504D02*X99554D01*
X98054Y165504D02*Y161504D01*
X98854Y163504D02*X100054Y161504D01*
X101254Y164704D02*X102054Y165504D01*
Y161504D01*
X101254D02*X102754D01*
X103250Y155050D02*Y151550D01*
X103750Y151050D01*
X104750D01*
X105250Y151550D01*
Y155050D02*Y151550D01*
X106450Y154250D02*X107250Y155050D01*
Y151050D01*
X106450D02*X107950D01*
X121550Y67450D02*X123550D01*
X124050Y66950D01*
Y65950D01*
X123550Y65450D02*X124050Y65950D01*
X122050Y65450D02*X123550D01*
X122050Y67450D02*Y63450D01*
X122850Y65450D02*X124050Y63450D01*
X125250Y67450D02*X127250D01*
X125250D02*Y65450D01*
X125750Y65950D01*
X126750D01*
X127250Y65450D01*
Y63950D01*
X126750Y63450D02*X127250Y63950D01*
X125750Y63450D02*X126750D01*
X125250Y63950D02*X125750Y63450D01*
X121600Y50900D02*Y46900D01*
X122900Y50900D02*X123600Y50200D01*
Y47600D01*
X122900Y46900D02*X123600Y47600D01*
X121100Y46900D02*X122900D01*
X121100Y50900D02*X122900D01*
X124800Y50400D02*X125300Y50900D01*
X126300D01*
X126800Y50400D01*
X126300Y46900D02*X126800Y47400D01*
X125300Y46900D02*X126300D01*
X124800Y47400D02*X125300Y46900D01*
Y49100D02*X126300D01*
X126800Y50400D02*Y49600D01*
Y48600D02*Y47400D01*
Y48600D02*X126300Y49100D01*
X126800Y49600D02*X126300Y49100D01*
X113550Y114250D02*X114850D01*
X112850Y114950D02*X113550Y114250D01*
X112850Y117550D02*Y114950D01*
Y117550D02*X113550Y118250D01*
X114850D01*
X116050Y117450D02*X116850Y118250D01*
Y114250D01*
X116050D02*X117550D01*
X118750Y117750D02*X119250Y118250D01*
X120750D01*
X121250Y117750D01*
Y116750D01*
X118750Y114250D02*X121250Y116750D01*
X118750Y114250D02*X121250D01*
X102250Y118450D02*X104250D01*
X104750Y117950D01*
Y116950D01*
X104250Y116450D02*X104750Y116950D01*
X102750Y116450D02*X104250D01*
X102750Y118450D02*Y114450D01*
X103550Y116450D02*X104750Y114450D01*
X105950Y115950D02*X107950Y118450D01*
X105950Y115950D02*X108450D01*
X107950Y118450D02*Y114450D01*
X271150Y106950D02*X272450D01*
X270450Y107650D02*X271150Y106950D01*
X270450Y110250D02*Y107650D01*
Y110250D02*X271150Y110950D01*
X272450D01*
X274150Y106950D02*X276150Y110950D01*
X273650D02*X276150D01*
X214700Y107000D02*X215500D01*
Y103500D01*
X215000Y103000D02*X215500Y103500D01*
X214500Y103000D02*X215000D01*
X214000Y103500D02*X214500Y103000D01*
X214000Y104000D02*Y103500D01*
X216700Y104500D02*X218700Y107000D01*
X216700Y104500D02*X219200D01*
X218700Y107000D02*Y103000D01*
X224700Y69500D02*X225500D01*
Y66000D01*
X225000Y65500D02*X225500Y66000D01*
X224500Y65500D02*X225000D01*
X224000Y66000D02*X224500Y65500D01*
X224000Y66500D02*Y66000D01*
X226700Y69500D02*X228700D01*
X226700D02*Y67500D01*
X227200Y68000D01*
X228200D01*
X228700Y67500D01*
Y66000D01*
X228200Y65500D02*X228700Y66000D01*
X227200Y65500D02*X228200D01*
X226700Y66000D02*X227200Y65500D01*
X196050Y67450D02*X198050D01*
X198550Y66950D01*
Y65950D01*
X198050Y65450D02*X198550Y65950D01*
X196550Y65450D02*X198050D01*
X196550Y67450D02*Y63450D01*
X197350Y65450D02*X198550Y63450D01*
X200250D02*X202250Y67450D01*
X199750D02*X202250D01*
X196600Y50900D02*Y46900D01*
X197900Y50900D02*X198600Y50200D01*
Y47600D01*
X197900Y46900D02*X198600Y47600D01*
X196100Y46900D02*X197900D01*
X196100Y50900D02*X197900D01*
X201300D02*X201800Y50400D01*
X200300Y50900D02*X201300D01*
X199800Y50400D02*X200300Y50900D01*
X199800Y50400D02*Y47400D01*
X200300Y46900D01*
X201300Y49100D02*X201800Y48600D01*
X199800Y49100D02*X201300D01*
X200300Y46900D02*X201300D01*
X201800Y47400D01*
Y48600D02*Y47400D01*
X146050Y67450D02*X148050D01*
X148550Y66950D01*
Y65950D01*
X148050Y65450D02*X148550Y65950D01*
X146550Y65450D02*X148050D01*
X146550Y67450D02*Y63450D01*
X147350Y65450D02*X148550Y63450D01*
X151250Y67450D02*X151750Y66950D01*
X150250Y67450D02*X151250D01*
X149750Y66950D02*X150250Y67450D01*
X149750Y66950D02*Y63950D01*
X150250Y63450D01*
X151250Y65650D02*X151750Y65150D01*
X149750Y65650D02*X151250D01*
X150250Y63450D02*X151250D01*
X151750Y63950D01*
Y65150D02*Y63950D01*
X171400Y67400D02*X173400D01*
X173900Y66900D01*
Y65900D01*
X173400Y65400D02*X173900Y65900D01*
X171900Y65400D02*X173400D01*
X171900Y67400D02*Y63400D01*
X172700Y65400D02*X173900Y63400D01*
X176600Y67400D02*X177100Y66900D01*
X175600Y67400D02*X176600D01*
X175100Y66900D02*X175600Y67400D01*
X175100Y66900D02*Y63900D01*
X175600Y63400D01*
X176600Y65600D02*X177100Y65100D01*
X175100Y65600D02*X176600D01*
X175600Y63400D02*X176600D01*
X177100Y63900D01*
Y65100D02*Y63900D01*
X146600Y50900D02*Y46900D01*
X147900Y50900D02*X148600Y50200D01*
Y47600D01*
X147900Y46900D02*X148600Y47600D01*
X146100Y46900D02*X147900D01*
X146100Y50900D02*X147900D01*
X149800Y48400D02*X151800Y50900D01*
X149800Y48400D02*X152300D01*
X151800Y50900D02*Y46900D01*
X171450Y50850D02*Y46850D01*
X172750Y50850D02*X173450Y50150D01*
Y47550D01*
X172750Y46850D02*X173450Y47550D01*
X170950Y46850D02*X172750D01*
X170950Y50850D02*X172750D01*
X174650D02*X176650D01*
X174650D02*Y48850D01*
X175150Y49350D01*
X176150D01*
X176650Y48850D01*
Y47350D01*
X176150Y46850D02*X176650Y47350D01*
X175150Y46850D02*X176150D01*
X174650Y47350D02*X175150Y46850D01*
X191500Y104800D02*Y101300D01*
X192000Y100800D01*
X193000D01*
X193500Y101300D01*
Y104800D02*Y101300D01*
X194700Y104300D02*X195200Y104800D01*
X196200D01*
X196700Y104300D01*
X196200Y100800D02*X196700Y101300D01*
X195200Y100800D02*X196200D01*
X194700Y101300D02*X195200Y100800D01*
Y103000D02*X196200D01*
X196700Y104300D02*Y103500D01*
Y102500D02*Y101300D01*
Y102500D02*X196200Y103000D01*
X196700Y103500D02*X196200Y103000D01*
X165050Y112750D02*X166350D01*
X164350Y113450D02*X165050Y112750D01*
X164350Y116050D02*Y113450D01*
Y116050D02*X165050Y116750D01*
X166350D01*
X168050Y112750D02*X169550Y114750D01*
Y116250D02*Y114750D01*
X169050Y116750D02*X169550Y116250D01*
X168050Y116750D02*X169050D01*
X167550Y116250D02*X168050Y116750D01*
X167550Y116250D02*Y115250D01*
X168050Y114750D01*
X169550D01*
X129729Y113524D02*X131029D01*
X129029Y114224D02*X129729Y113524D01*
X129029Y116824D02*Y114224D01*
Y116824D02*X129729Y117524D01*
X131029D01*
X132229Y116724D02*X133029Y117524D01*
Y113524D01*
X132229D02*X133729D01*
X134929Y116724D02*X135729Y117524D01*
Y113524D01*
X134929D02*X136429D01*
X144750Y113750D02*X146050D01*
X144050Y114450D02*X144750Y113750D01*
X144050Y117050D02*Y114450D01*
Y117050D02*X144750Y117750D01*
X146050D01*
X147250Y116950D02*X148050Y117750D01*
Y113750D01*
X147250D02*X148750D01*
X149950Y114250D02*X150450Y113750D01*
X149950Y117250D02*Y114250D01*
Y117250D02*X150450Y117750D01*
X151450D01*
X151950Y117250D01*
Y114250D01*
X151450Y113750D02*X151950Y114250D01*
X150450Y113750D02*X151450D01*
X149950Y114750D02*X151950Y116750D01*
X203550Y91750D02*X204850D01*
X202850Y92450D02*X203550Y91750D01*
X202850Y95050D02*Y92450D01*
Y95050D02*X203550Y95750D01*
X204850D01*
X206050Y92250D02*X206550Y91750D01*
X206050Y93050D02*Y92250D01*
Y93050D02*X206750Y93750D01*
X207350D01*
X208050Y93050D01*
Y92250D01*
X207550Y91750D02*X208050Y92250D01*
X206550Y91750D02*X207550D01*
X206050Y94450D02*X206750Y93750D01*
X206050Y95250D02*Y94450D01*
Y95250D02*X206550Y95750D01*
X207550D01*
X208050Y95250D01*
Y94450D01*
X207350Y93750D02*X208050Y94450D01*
X125300Y93900D02*Y90400D01*
X125800Y89900D01*
X126800D01*
X127300Y90400D01*
Y93900D02*Y90400D01*
X128500Y91400D02*X130500Y93900D01*
X128500Y91400D02*X131000D01*
X130500Y93900D02*Y89900D01*
M02*
