G04 start of page 17 for group -3984 idx -3984 *
G04 Title: (unknown), fab *
G04 Creator: pcb 20140316 *
G04 CreationDate: Wed Jul  8 14:59:58 2015 UTC *
G04 For: frankenteddy *
G04 Format: Gerber/RS-274X *
G04 PCB-Dimensions (mil): 3270.00 2515.00 *
G04 PCB-Coordinate-Origin: lower left *
%MOIN*%
%FSLAX25Y25*%
%LNFAB*%
%ADD90C,0.0100*%
%ADD89C,0.0075*%
%ADD88C,0.0060*%
%ADD87R,0.0080X0.0080*%
G54D87*X21000Y231100D02*Y227900D01*
X19400Y229500D02*X22600D01*
X21000Y26100D02*Y22900D01*
X19400Y24500D02*X22600D01*
X298000Y231100D02*Y227900D01*
X296400Y229500D02*X299600D01*
X298000Y26100D02*Y22900D01*
X296400Y24500D02*X299600D01*
X15000Y294350D02*Y291150D01*
X13400Y292750D02*X16600D01*
G54D88*X135000Y295000D02*X136500Y292000D01*
X138000Y295000D01*
X136500Y292000D02*Y289000D01*
X139800Y292300D02*X142050D01*
X139800Y289000D02*X142800D01*
X139800Y295000D02*Y289000D01*
Y295000D02*X142800D01*
X147600D02*X148350Y294250D01*
X145350Y295000D02*X147600D01*
X144600Y294250D02*X145350Y295000D01*
X144600Y294250D02*Y292750D01*
X145350Y292000D01*
X147600D01*
X148350Y291250D01*
Y289750D01*
X147600Y289000D02*X148350Y289750D01*
X145350Y289000D02*X147600D01*
X144600Y289750D02*X145350Y289000D01*
X98000Y291250D02*X101000Y295000D01*
X98000Y291250D02*X101750D01*
X101000Y295000D02*Y289000D01*
X45000Y289750D02*X45750Y289000D01*
X45000Y294250D02*Y289750D01*
Y294250D02*X45750Y295000D01*
X47250D01*
X48000Y294250D01*
Y289750D01*
X47250Y289000D02*X48000Y289750D01*
X45750Y289000D02*X47250D01*
X45000Y290500D02*X48000Y293500D01*
X49800Y289000D02*X50550D01*
X52350Y293800D02*X53550Y295000D01*
Y289000D01*
X52350D02*X54600D01*
X56400Y295000D02*X59400D01*
X56400D02*Y292000D01*
X57150Y292750D01*
X58650D01*
X59400Y292000D01*
Y289750D01*
X58650Y289000D02*X59400Y289750D01*
X57150Y289000D02*X58650D01*
X56400Y289750D02*X57150Y289000D01*
X61200Y289750D02*X61950Y289000D01*
X61200Y290950D02*Y289750D01*
Y290950D02*X62250Y292000D01*
X63150D01*
X64200Y290950D01*
Y289750D01*
X63450Y289000D02*X64200Y289750D01*
X61950Y289000D02*X63450D01*
X61200Y293050D02*X62250Y292000D01*
X61200Y294250D02*Y293050D01*
Y294250D02*X61950Y295000D01*
X63450D01*
X64200Y294250D01*
Y293050D01*
X63150Y292000D02*X64200Y293050D01*
X175300Y229600D02*Y228000D01*
Y229600D02*X176687Y230400D01*
X175300Y229600D02*X173913Y230400D01*
X57300Y228700D02*Y227100D01*
Y228700D02*X58687Y229500D01*
X57300Y228700D02*X55913Y229500D01*
X115600Y210800D02*Y209200D01*
Y210800D02*X116987Y211600D01*
X115600Y210800D02*X114213Y211600D01*
X162450Y125850D02*Y124250D01*
Y125850D02*X163837Y126650D01*
X162450Y125850D02*X161063Y126650D01*
X152700Y126100D02*Y124500D01*
Y126100D02*X154087Y126900D01*
X152700Y126100D02*X151313Y126900D01*
X97500Y150100D02*Y148500D01*
Y150100D02*X98887Y150900D01*
X97500Y150100D02*X96113Y150900D01*
X135800Y175100D02*Y173500D01*
Y175100D02*X137187Y175900D01*
X135800Y175100D02*X134413Y175900D01*
X153000Y147000D02*Y145400D01*
Y147000D02*X154387Y147800D01*
X153000Y147000D02*X151613Y147800D01*
X161500Y147000D02*Y145400D01*
Y147000D02*X162887Y147800D01*
X161500Y147000D02*X160113Y147800D01*
X274200Y75800D02*Y74200D01*
Y75800D02*X275587Y76600D01*
X274200Y75800D02*X272813Y76600D01*
X232500Y91000D02*Y89400D01*
Y91000D02*X233887Y91800D01*
X232500Y91000D02*X231113Y91800D01*
X240000Y29500D02*Y27900D01*
Y29500D02*X241387Y30300D01*
X240000Y29500D02*X238613Y30300D01*
X52000Y48500D02*Y46900D01*
Y48500D02*X53387Y49300D01*
X52000Y48500D02*X50613Y49300D01*
X52000Y80500D02*Y78900D01*
Y80500D02*X53387Y81300D01*
X52000Y80500D02*X50613Y81300D01*
X52000Y163500D02*Y161900D01*
Y163500D02*X53387Y164300D01*
X52000Y163500D02*X50613Y164300D01*
X232000Y134500D02*Y132900D01*
Y134500D02*X233387Y135300D01*
X232000Y134500D02*X230613Y135300D01*
X232000Y149000D02*Y147400D01*
Y149000D02*X233387Y149800D01*
X232000Y149000D02*X230613Y149800D01*
X174900Y93600D02*Y92000D01*
Y93600D02*X176287Y94400D01*
X174900Y93600D02*X173513Y94400D01*
X180000Y102000D02*Y100400D01*
Y102000D02*X181387Y102800D01*
X180000Y102000D02*X178613Y102800D01*
X154800Y74300D02*Y72700D01*
Y74300D02*X156187Y75100D01*
X154800Y74300D02*X153413Y75100D01*
X155900Y99300D02*Y97700D01*
Y99300D02*X157287Y100100D01*
X155900Y99300D02*X154513Y100100D01*
X229500Y76000D02*Y74400D01*
Y76000D02*X230887Y76800D01*
X229500Y76000D02*X228113Y76800D01*
X125000Y94500D02*Y92900D01*
Y94500D02*X126387Y95300D01*
X125000Y94500D02*X123613Y95300D01*
X103400Y80300D02*Y78700D01*
Y80300D02*X104787Y81100D01*
X103400Y80300D02*X102013Y81100D01*
X220100Y39000D02*Y37400D01*
Y39000D02*X221487Y39800D01*
X220100Y39000D02*X218713Y39800D01*
X261000Y41500D02*Y39900D01*
Y41500D02*X262387Y42300D01*
X261000Y41500D02*X259613Y42300D01*
X109800Y104400D02*Y102800D01*
Y104400D02*X111187Y105200D01*
X109800Y104400D02*X108413Y105200D01*
X100900Y118600D02*Y117000D01*
Y118600D02*X102287Y119400D01*
X100900Y118600D02*X99513Y119400D01*
X107000Y118800D02*Y117200D01*
Y118800D02*X108387Y119600D01*
X107000Y118800D02*X105613Y119600D01*
X130900Y130600D02*Y129000D01*
Y130600D02*X132287Y131400D01*
X130900Y130600D02*X129513Y131400D01*
X133400Y125800D02*Y124200D01*
Y125800D02*X134787Y126600D01*
X133400Y125800D02*X132013Y126600D01*
X93900Y97800D02*Y96200D01*
Y97800D02*X95287Y98600D01*
X93900Y97800D02*X92513Y98600D01*
X135200Y162000D02*Y160400D01*
Y162000D02*X136587Y162800D01*
X135200Y162000D02*X133813Y162800D01*
X101000Y85700D02*Y84100D01*
Y85700D02*X102387Y86500D01*
X101000Y85700D02*X99613Y86500D01*
X128800Y162200D02*Y160600D01*
Y162200D02*X130187Y163000D01*
X128800Y162200D02*X127413Y163000D01*
X102400Y152200D02*Y150600D01*
Y152200D02*X103787Y153000D01*
X102400Y152200D02*X101013Y153000D01*
X83900Y49800D02*Y48200D01*
Y49800D02*X85287Y50600D01*
X83900Y49800D02*X82513Y50600D01*
X91600Y145700D02*Y144100D01*
Y145700D02*X92987Y146500D01*
X91600Y145700D02*X90213Y146500D01*
X83900Y58500D02*Y56900D01*
Y58500D02*X85287Y59300D01*
X83900Y58500D02*X82513Y59300D01*
X132100Y146800D02*Y145200D01*
Y146800D02*X133487Y147600D01*
X132100Y146800D02*X130713Y147600D01*
X137500Y153600D02*Y152000D01*
Y153600D02*X138887Y154400D01*
X137500Y153600D02*X136113Y154400D01*
X242800Y59500D02*Y57900D01*
Y59500D02*X244187Y60300D01*
X242800Y59500D02*X241413Y60300D01*
X260500Y49100D02*Y47500D01*
Y49100D02*X261887Y49900D01*
X260500Y49100D02*X259113Y49900D01*
X162500Y162200D02*Y160600D01*
Y162200D02*X163887Y163000D01*
X162500Y162200D02*X161113Y163000D01*
X56600Y188900D02*Y187300D01*
Y188900D02*X57987Y189700D01*
X56600Y188900D02*X55213Y189700D01*
X46700Y188900D02*Y187300D01*
Y188900D02*X48087Y189700D01*
X46700Y188900D02*X45313Y189700D01*
X46600Y182500D02*Y180900D01*
Y182500D02*X47987Y183300D01*
X46600Y182500D02*X45213Y183300D01*
X57000Y182700D02*Y181100D01*
Y182700D02*X58387Y183500D01*
X57000Y182700D02*X55613Y183500D01*
X157100Y162700D02*Y161100D01*
Y162700D02*X158487Y163500D01*
X157100Y162700D02*X155713Y163500D01*
X114700Y130200D02*Y128600D01*
Y130200D02*X116087Y131000D01*
X114700Y130200D02*X113313Y131000D01*
X46600Y169700D02*Y168100D01*
Y169700D02*X47987Y170500D01*
X46600Y169700D02*X45213Y170500D01*
X46500Y176300D02*Y174700D01*
Y176300D02*X47887Y177100D01*
X46500Y176300D02*X45113Y177100D01*
X57200Y176200D02*Y174600D01*
Y176200D02*X58587Y177000D01*
X57200Y176200D02*X55813Y177000D01*
X57500Y169900D02*Y168300D01*
Y169900D02*X58887Y170700D01*
X57500Y169900D02*X56113Y170700D01*
X119000Y131900D02*Y130300D01*
Y131900D02*X120387Y132700D01*
X119000Y131900D02*X117613Y132700D01*
X136700Y91600D02*Y90000D01*
Y91600D02*X138087Y92400D01*
X136700Y91600D02*X135313Y92400D01*
X132100Y88700D02*Y87100D01*
Y88700D02*X133487Y89500D01*
X132100Y88700D02*X130713Y89500D01*
X149400Y67100D02*Y65500D01*
Y67100D02*X150787Y67900D01*
X149400Y67100D02*X148013Y67900D01*
X147603Y71897D02*Y70297D01*
Y71897D02*X148990Y72697D01*
X147603Y71897D02*X146216Y72697D01*
X142500Y91800D02*Y90200D01*
Y91800D02*X143887Y92600D01*
X142500Y91800D02*X141113Y92600D01*
X123700Y66400D02*Y64800D01*
Y66400D02*X125087Y67200D01*
X123700Y66400D02*X122313Y67200D01*
X111200Y80300D02*Y78700D01*
Y80300D02*X112587Y81100D01*
X111200Y80300D02*X109813Y81100D01*
X125400Y83000D02*Y81400D01*
Y83000D02*X126787Y83800D01*
X125400Y83000D02*X124013Y83800D01*
X133800Y78200D02*Y76600D01*
Y78200D02*X135187Y79000D01*
X133800Y78200D02*X132413Y79000D01*
X159300Y67000D02*Y65400D01*
Y67000D02*X160687Y67800D01*
X159300Y67000D02*X157913Y67800D01*
X274500Y65500D02*Y63900D01*
Y65500D02*X275887Y66300D01*
X274500Y65500D02*X273113Y66300D01*
X119600Y175500D02*Y173900D01*
Y175500D02*X120987Y176300D01*
X119600Y175500D02*X118213Y176300D01*
X136300Y49800D02*Y48200D01*
Y49800D02*X137687Y50600D01*
X136300Y49800D02*X134913Y50600D01*
X113600Y65500D02*Y63900D01*
Y65500D02*X114987Y66300D01*
X113600Y65500D02*X112213Y66300D01*
X97000Y138600D02*Y137000D01*
Y138600D02*X98387Y139400D01*
X97000Y138600D02*X95613Y139400D01*
X199200Y24400D02*Y22800D01*
Y24400D02*X200587Y25200D01*
X199200Y24400D02*X197813Y25200D01*
X149200Y24600D02*Y23000D01*
Y24600D02*X150587Y25400D01*
X149200Y24600D02*X147813Y25400D01*
X124100Y24500D02*Y22900D01*
Y24500D02*X125487Y25300D01*
X124100Y24500D02*X122713Y25300D01*
X174100Y24500D02*Y22900D01*
Y24500D02*X175487Y25300D01*
X174100Y24500D02*X172713Y25300D01*
X145500Y159400D02*Y157800D01*
Y159400D02*X146887Y160200D01*
X145500Y159400D02*X144113Y160200D01*
X121800Y219200D02*Y217600D01*
Y219200D02*X123187Y220000D01*
X121800Y219200D02*X120413Y220000D01*
X110300Y219100D02*Y217500D01*
Y219100D02*X111687Y219900D01*
X110300Y219100D02*X108913Y219900D01*
X90800Y219200D02*Y217600D01*
Y219200D02*X92187Y220000D01*
X90800Y219200D02*X89413Y220000D01*
X59900Y70400D02*Y68800D01*
Y70400D02*X61287Y71200D01*
X59900Y70400D02*X58513Y71200D01*
X153400Y141200D02*Y139600D01*
Y141200D02*X154787Y142000D01*
X153400Y141200D02*X152013Y142000D01*
X121700Y224600D02*Y223000D01*
Y224600D02*X123087Y225400D01*
X121700Y224600D02*X120313Y225400D01*
X109700Y224000D02*Y222400D01*
Y224000D02*X111087Y224800D01*
X109700Y224000D02*X108313Y224800D01*
X71400Y200500D02*Y198900D01*
Y200500D02*X72787Y201300D01*
X71400Y200500D02*X70013Y201300D01*
X71500Y169300D02*Y167700D01*
Y169300D02*X72887Y170100D01*
X71500Y169300D02*X70113Y170100D01*
X15000Y307750D02*Y306150D01*
Y307750D02*X16387Y308550D01*
X15000Y307750D02*X13613Y308550D01*
X135000Y310000D02*X136500Y307000D01*
X138000Y310000D01*
X136500Y307000D02*Y304000D01*
X139800Y307300D02*X142050D01*
X139800Y304000D02*X142800D01*
X139800Y310000D02*Y304000D01*
Y310000D02*X142800D01*
X147600D02*X148350Y309250D01*
X145350Y310000D02*X147600D01*
X144600Y309250D02*X145350Y310000D01*
X144600Y309250D02*Y307750D01*
X145350Y307000D01*
X147600D01*
X148350Y306250D01*
Y304750D01*
X147600Y304000D02*X148350Y304750D01*
X145350Y304000D02*X147600D01*
X144600Y304750D02*X145350Y304000D01*
X98000Y304750D02*X98750Y304000D01*
X98000Y305950D02*Y304750D01*
Y305950D02*X99050Y307000D01*
X99950D01*
X101000Y305950D01*
Y304750D01*
X100250Y304000D02*X101000Y304750D01*
X98750Y304000D02*X100250D01*
X98000Y308050D02*X99050Y307000D01*
X98000Y309250D02*Y308050D01*
Y309250D02*X98750Y310000D01*
X100250D01*
X101000Y309250D01*
Y308050D01*
X99950Y307000D02*X101000Y308050D01*
X102800Y306250D02*X105800Y310000D01*
X102800Y306250D02*X106550D01*
X105800Y310000D02*Y304000D01*
X45000Y304750D02*X45750Y304000D01*
X45000Y309250D02*Y304750D01*
Y309250D02*X45750Y310000D01*
X47250D01*
X48000Y309250D01*
Y304750D01*
X47250Y304000D02*X48000Y304750D01*
X45750Y304000D02*X47250D01*
X45000Y305500D02*X48000Y308500D01*
X49800Y304000D02*X50550D01*
X52350Y304750D02*X53100Y304000D01*
X52350Y309250D02*Y304750D01*
Y309250D02*X53100Y310000D01*
X54600D01*
X55350Y309250D01*
Y304750D01*
X54600Y304000D02*X55350Y304750D01*
X53100Y304000D02*X54600D01*
X52350Y305500D02*X55350Y308500D01*
X57150Y308800D02*X58350Y310000D01*
Y304000D01*
X57150D02*X59400D01*
X61200Y310000D02*X64200D01*
X61200D02*Y307000D01*
X61950Y307750D01*
X63450D01*
X64200Y307000D01*
Y304750D01*
X63450Y304000D02*X64200Y304750D01*
X61950Y304000D02*X63450D01*
X61200Y304750D02*X61950Y304000D01*
X3000Y325000D02*X3750Y324250D01*
X750Y325000D02*X3000D01*
X0Y324250D02*X750Y325000D01*
X0Y324250D02*Y322750D01*
X750Y322000D01*
X3000D01*
X3750Y321250D01*
Y319750D01*
X3000Y319000D02*X3750Y319750D01*
X750Y319000D02*X3000D01*
X0Y319750D02*X750Y319000D01*
X5550Y322000D02*Y319750D01*
X6300Y319000D01*
X8550Y322000D02*Y317500D01*
X7800Y316750D02*X8550Y317500D01*
X6300Y316750D02*X7800D01*
X5550Y317500D02*X6300Y316750D01*
Y319000D02*X7800D01*
X8550Y319750D01*
X11100Y321250D02*Y319000D01*
Y321250D02*X11850Y322000D01*
X12600D01*
X13350Y321250D01*
Y319000D01*
Y321250D02*X14100Y322000D01*
X14850D01*
X15600Y321250D01*
Y319000D01*
X10350Y322000D02*X11100Y321250D01*
X17400Y325000D02*Y319000D01*
Y319750D02*X18150Y319000D01*
X19650D01*
X20400Y319750D01*
Y321250D02*Y319750D01*
X19650Y322000D02*X20400Y321250D01*
X18150Y322000D02*X19650D01*
X17400Y321250D02*X18150Y322000D01*
X22200Y321250D02*Y319750D01*
Y321250D02*X22950Y322000D01*
X24450D01*
X25200Y321250D01*
Y319750D01*
X24450Y319000D02*X25200Y319750D01*
X22950Y319000D02*X24450D01*
X22200Y319750D02*X22950Y319000D01*
X27000Y325000D02*Y319750D01*
X27750Y319000D01*
X0Y315750D02*X29250D01*
X41750Y325000D02*Y319000D01*
X43700Y325000D02*X44750Y323950D01*
Y320050D01*
X43700Y319000D02*X44750Y320050D01*
X41000Y319000D02*X43700D01*
X41000Y325000D02*X43700D01*
G54D89*X46550Y323500D02*Y323350D01*
G54D88*Y321250D02*Y319000D01*
X50300Y322000D02*X51050Y321250D01*
X48800Y322000D02*X50300D01*
X48050Y321250D02*X48800Y322000D01*
X48050Y321250D02*Y319750D01*
X48800Y319000D01*
X51050Y322000D02*Y319750D01*
X51800Y319000D01*
X48800D02*X50300D01*
X51050Y319750D01*
X54350Y321250D02*Y319000D01*
Y321250D02*X55100Y322000D01*
X55850D01*
X56600Y321250D01*
Y319000D01*
Y321250D02*X57350Y322000D01*
X58100D01*
X58850Y321250D01*
Y319000D01*
X53600Y322000D02*X54350Y321250D01*
X60650Y319000D02*X61400D01*
X65900Y319750D02*X66650Y319000D01*
X65900Y324250D02*X66650Y325000D01*
X65900Y324250D02*Y319750D01*
X68450Y325000D02*X69950D01*
X69200D02*Y319000D01*
X68450D02*X69950D01*
X72500Y321250D02*Y319000D01*
Y321250D02*X73250Y322000D01*
X74000D01*
X74750Y321250D01*
Y319000D01*
X71750Y322000D02*X72500Y321250D01*
X77300Y322000D02*X79550D01*
X76550Y321250D02*X77300Y322000D01*
X76550Y321250D02*Y319750D01*
X77300Y319000D01*
X79550D01*
X81350Y325000D02*Y319000D01*
Y321250D02*X82100Y322000D01*
X83600D01*
X84350Y321250D01*
Y319000D01*
X86150Y325000D02*X86900Y324250D01*
Y319750D01*
X86150Y319000D02*X86900Y319750D01*
X41000Y315750D02*X88700D01*
X96050Y319000D02*X98000D01*
X95000Y320050D02*X96050Y319000D01*
X95000Y323950D02*Y320050D01*
Y323950D02*X96050Y325000D01*
X98000D01*
X99800Y321250D02*Y319750D01*
Y321250D02*X100550Y322000D01*
X102050D01*
X102800Y321250D01*
Y319750D01*
X102050Y319000D02*X102800Y319750D01*
X100550Y319000D02*X102050D01*
X99800Y319750D02*X100550Y319000D01*
X104600Y322000D02*Y319750D01*
X105350Y319000D01*
X106850D01*
X107600Y319750D01*
Y322000D02*Y319750D01*
X110150Y321250D02*Y319000D01*
Y321250D02*X110900Y322000D01*
X111650D01*
X112400Y321250D01*
Y319000D01*
X109400Y322000D02*X110150Y321250D01*
X114950Y325000D02*Y319750D01*
X115700Y319000D01*
X114200Y322750D02*X115700D01*
X95000Y315750D02*X117200D01*
X130750Y325000D02*Y319000D01*
X130000Y325000D02*X133000D01*
X133750Y324250D01*
Y322750D01*
X133000Y322000D02*X133750Y322750D01*
X130750Y322000D02*X133000D01*
X135550Y325000D02*Y319750D01*
X136300Y319000D01*
X140050Y322000D02*X140800Y321250D01*
X138550Y322000D02*X140050D01*
X137800Y321250D02*X138550Y322000D01*
X137800Y321250D02*Y319750D01*
X138550Y319000D01*
X140800Y322000D02*Y319750D01*
X141550Y319000D01*
X138550D02*X140050D01*
X140800Y319750D01*
X144100Y325000D02*Y319750D01*
X144850Y319000D01*
X143350Y322750D02*X144850D01*
X147100Y319000D02*X149350D01*
X146350Y319750D02*X147100Y319000D01*
X146350Y321250D02*Y319750D01*
Y321250D02*X147100Y322000D01*
X148600D01*
X149350Y321250D01*
X146350Y320500D02*X149350D01*
Y321250D02*Y320500D01*
X154150Y325000D02*Y319000D01*
X153400D02*X154150Y319750D01*
X151900Y319000D02*X153400D01*
X151150Y319750D02*X151900Y319000D01*
X151150Y321250D02*Y319750D01*
Y321250D02*X151900Y322000D01*
X153400D01*
X154150Y321250D01*
X157450Y322000D02*Y321250D01*
Y319750D02*Y319000D01*
X155950Y324250D02*Y323500D01*
Y324250D02*X156700Y325000D01*
X158200D01*
X158950Y324250D01*
Y323500D01*
X157450Y322000D02*X158950Y323500D01*
X130000Y315750D02*X160750D01*
X0Y340000D02*X3000D01*
X1500D02*Y334000D01*
X4800Y340000D02*Y334000D01*
Y336250D02*X5550Y337000D01*
X7050D01*
X7800Y336250D01*
Y334000D01*
X10350D02*X12600D01*
X9600Y334750D02*X10350Y334000D01*
X9600Y336250D02*Y334750D01*
Y336250D02*X10350Y337000D01*
X11850D01*
X12600Y336250D01*
X9600Y335500D02*X12600D01*
Y336250D02*Y335500D01*
X15150Y336250D02*Y334000D01*
Y336250D02*X15900Y337000D01*
X17400D01*
X14400D02*X15150Y336250D01*
X19950Y334000D02*X22200D01*
X19200Y334750D02*X19950Y334000D01*
X19200Y336250D02*Y334750D01*
Y336250D02*X19950Y337000D01*
X21450D01*
X22200Y336250D01*
X19200Y335500D02*X22200D01*
Y336250D02*Y335500D01*
X28950Y337000D02*X29700Y336250D01*
X27450Y337000D02*X28950D01*
X26700Y336250D02*X27450Y337000D01*
X26700Y336250D02*Y334750D01*
X27450Y334000D01*
X29700Y337000D02*Y334750D01*
X30450Y334000D01*
X27450D02*X28950D01*
X29700Y334750D01*
X33000Y336250D02*Y334000D01*
Y336250D02*X33750Y337000D01*
X35250D01*
X32250D02*X33000Y336250D01*
X37800Y334000D02*X40050D01*
X37050Y334750D02*X37800Y334000D01*
X37050Y336250D02*Y334750D01*
Y336250D02*X37800Y337000D01*
X39300D01*
X40050Y336250D01*
X37050Y335500D02*X40050D01*
Y336250D02*Y335500D01*
X44550Y339250D02*X45300Y340000D01*
X47550D01*
X48300Y339250D01*
Y337750D01*
X44550Y334000D02*X48300Y337750D01*
X44550Y334000D02*X48300D01*
X55800Y340000D02*Y334000D01*
X55050D02*X55800Y334750D01*
X53550Y334000D02*X55050D01*
X52800Y334750D02*X53550Y334000D01*
X52800Y336250D02*Y334750D01*
Y336250D02*X53550Y337000D01*
X55050D01*
X55800Y336250D01*
G54D89*X57600Y338500D02*Y338350D01*
G54D88*Y336250D02*Y334000D01*
X59850Y339250D02*Y334000D01*
Y339250D02*X60600Y340000D01*
X61350D01*
X59100Y337000D02*X60600D01*
X63600Y339250D02*Y334000D01*
Y339250D02*X64350Y340000D01*
X65100D01*
X62850Y337000D02*X64350D01*
X67350Y334000D02*X69600D01*
X66600Y334750D02*X67350Y334000D01*
X66600Y336250D02*Y334750D01*
Y336250D02*X67350Y337000D01*
X68850D01*
X69600Y336250D01*
X66600Y335500D02*X69600D01*
Y336250D02*Y335500D01*
X72150Y336250D02*Y334000D01*
Y336250D02*X72900Y337000D01*
X74400D01*
X71400D02*X72150Y336250D01*
X76950Y334000D02*X79200D01*
X76200Y334750D02*X76950Y334000D01*
X76200Y336250D02*Y334750D01*
Y336250D02*X76950Y337000D01*
X78450D01*
X79200Y336250D01*
X76200Y335500D02*X79200D01*
Y336250D02*Y335500D01*
X81750Y336250D02*Y334000D01*
Y336250D02*X82500Y337000D01*
X83250D01*
X84000Y336250D01*
Y334000D01*
X81000Y337000D02*X81750Y336250D01*
X86550Y340000D02*Y334750D01*
X87300Y334000D01*
X85800Y337750D02*X87300D01*
X94500Y340000D02*Y334000D01*
X93750D02*X94500Y334750D01*
X92250Y334000D02*X93750D01*
X91500Y334750D02*X92250Y334000D01*
X91500Y336250D02*Y334750D01*
Y336250D02*X92250Y337000D01*
X93750D01*
X94500Y336250D01*
X97050D02*Y334000D01*
Y336250D02*X97800Y337000D01*
X99300D01*
X96300D02*X97050Y336250D01*
G54D89*X101100Y338500D02*Y338350D01*
G54D88*Y336250D02*Y334000D01*
X102600Y340000D02*Y334750D01*
X103350Y334000D01*
X104850Y340000D02*Y334750D01*
X105600Y334000D01*
X110550D02*X112800D01*
X113550Y334750D01*
X112800Y335500D02*X113550Y334750D01*
X110550Y335500D02*X112800D01*
X109800Y336250D02*X110550Y335500D01*
X109800Y336250D02*X110550Y337000D01*
X112800D01*
X113550Y336250D01*
X109800Y334750D02*X110550Y334000D01*
G54D89*X115350Y338500D02*Y338350D01*
G54D88*Y336250D02*Y334000D01*
X116850Y337000D02*X119850D01*
X116850Y334000D02*X119850Y337000D01*
X116850Y334000D02*X119850D01*
X122400D02*X124650D01*
X121650Y334750D02*X122400Y334000D01*
X121650Y336250D02*Y334750D01*
Y336250D02*X122400Y337000D01*
X123900D01*
X124650Y336250D01*
X121650Y335500D02*X124650D01*
Y336250D02*Y335500D01*
X127200Y334000D02*X129450D01*
X130200Y334750D01*
X129450Y335500D02*X130200Y334750D01*
X127200Y335500D02*X129450D01*
X126450Y336250D02*X127200Y335500D01*
X126450Y336250D02*X127200Y337000D01*
X129450D01*
X130200Y336250D01*
X126450Y334750D02*X127200Y334000D01*
X134700Y337000D02*Y334750D01*
X135450Y334000D01*
X136950D01*
X137700Y334750D01*
Y337000D02*Y334750D01*
X140250Y334000D02*X142500D01*
X143250Y334750D01*
X142500Y335500D02*X143250Y334750D01*
X140250Y335500D02*X142500D01*
X139500Y336250D02*X140250Y335500D01*
X139500Y336250D02*X140250Y337000D01*
X142500D01*
X143250Y336250D01*
X139500Y334750D02*X140250Y334000D01*
X145800D02*X148050D01*
X145050Y334750D02*X145800Y334000D01*
X145050Y336250D02*Y334750D01*
Y336250D02*X145800Y337000D01*
X147300D01*
X148050Y336250D01*
X145050Y335500D02*X148050D01*
Y336250D02*Y335500D01*
X152850Y340000D02*Y334000D01*
X152100D02*X152850Y334750D01*
X150600Y334000D02*X152100D01*
X149850Y334750D02*X150600Y334000D01*
X149850Y336250D02*Y334750D01*
Y336250D02*X150600Y337000D01*
X152100D01*
X152850Y336250D01*
G54D89*X157350Y338500D02*Y338350D01*
G54D88*Y336250D02*Y334000D01*
X159600Y336250D02*Y334000D01*
Y336250D02*X160350Y337000D01*
X161100D01*
X161850Y336250D01*
Y334000D01*
X158850Y337000D02*X159600Y336250D01*
X167100Y340000D02*Y334750D01*
X167850Y334000D01*
X166350Y337750D02*X167850D01*
X169350Y340000D02*Y334000D01*
Y336250D02*X170100Y337000D01*
X171600D01*
X172350Y336250D01*
Y334000D01*
G54D89*X174150Y338500D02*Y338350D01*
G54D88*Y336250D02*Y334000D01*
X176400D02*X178650D01*
X179400Y334750D01*
X178650Y335500D02*X179400Y334750D01*
X176400Y335500D02*X178650D01*
X175650Y336250D02*X176400Y335500D01*
X175650Y336250D02*X176400Y337000D01*
X178650D01*
X179400Y336250D01*
X175650Y334750D02*X176400Y334000D01*
X183900Y340000D02*Y334750D01*
X184650Y334000D01*
X188400Y337000D02*X189150Y336250D01*
X186900Y337000D02*X188400D01*
X186150Y336250D02*X186900Y337000D01*
X186150Y336250D02*Y334750D01*
X186900Y334000D01*
X189150Y337000D02*Y334750D01*
X189900Y334000D01*
X186900D02*X188400D01*
X189150Y334750D01*
X191700Y337000D02*Y334750D01*
X192450Y334000D01*
X194700Y337000D02*Y332500D01*
X193950Y331750D02*X194700Y332500D01*
X192450Y331750D02*X193950D01*
X191700Y332500D02*X192450Y331750D01*
Y334000D02*X193950D01*
X194700Y334750D01*
X196500Y336250D02*Y334750D01*
Y336250D02*X197250Y337000D01*
X198750D01*
X199500Y336250D01*
Y334750D01*
X198750Y334000D02*X199500Y334750D01*
X197250Y334000D02*X198750D01*
X196500Y334750D02*X197250Y334000D01*
X201300Y337000D02*Y334750D01*
X202050Y334000D01*
X203550D01*
X204300Y334750D01*
Y337000D02*Y334750D01*
X206850Y340000D02*Y334750D01*
X207600Y334000D01*
X206100Y337750D02*X207600D01*
X209100Y332500D02*X210600Y334000D01*
X215100Y334750D02*X215850Y334000D01*
X215100Y335950D02*Y334750D01*
Y335950D02*X216150Y337000D01*
X217050D01*
X218100Y335950D01*
Y334750D01*
X217350Y334000D02*X218100Y334750D01*
X215850Y334000D02*X217350D01*
X215100Y338050D02*X216150Y337000D01*
X215100Y339250D02*Y338050D01*
Y339250D02*X215850Y340000D01*
X217350D01*
X218100Y339250D01*
Y338050D01*
X217050Y337000D02*X218100Y338050D01*
X219900Y334750D02*X220650Y334000D01*
X219900Y335950D02*Y334750D01*
Y335950D02*X220950Y337000D01*
X221850D01*
X222900Y335950D01*
Y334750D01*
X222150Y334000D02*X222900Y334750D01*
X220650Y334000D02*X222150D01*
X219900Y338050D02*X220950Y337000D01*
X219900Y339250D02*Y338050D01*
Y339250D02*X220650Y340000D01*
X222150D01*
X222900Y339250D01*
Y338050D01*
X221850Y337000D02*X222900Y338050D01*
X227400Y340000D02*Y334000D01*
Y336250D02*X228150Y337000D01*
X229650D01*
X230400Y336250D01*
Y334000D01*
X232200Y336250D02*Y334750D01*
Y336250D02*X232950Y337000D01*
X234450D01*
X235200Y336250D01*
Y334750D01*
X234450Y334000D02*X235200Y334750D01*
X232950Y334000D02*X234450D01*
X232200Y334750D02*X232950Y334000D01*
X237000Y340000D02*Y334750D01*
X237750Y334000D01*
X240000D02*X242250D01*
X239250Y334750D02*X240000Y334000D01*
X239250Y336250D02*Y334750D01*
Y336250D02*X240000Y337000D01*
X241500D01*
X242250Y336250D01*
X239250Y335500D02*X242250D01*
Y336250D02*Y335500D01*
X244800Y334000D02*X247050D01*
X247800Y334750D01*
X247050Y335500D02*X247800Y334750D01*
X244800Y335500D02*X247050D01*
X244050Y336250D02*X244800Y335500D01*
X244050Y336250D02*X244800Y337000D01*
X247050D01*
X247800Y336250D01*
X244050Y334750D02*X244800Y334000D01*
X253050Y340000D02*Y334750D01*
X253800Y334000D01*
X252300Y337750D02*X253800D01*
X255300Y336250D02*Y334750D01*
Y336250D02*X256050Y337000D01*
X257550D01*
X258300Y336250D01*
Y334750D01*
X257550Y334000D02*X258300Y334750D01*
X256050Y334000D02*X257550D01*
X255300Y334750D02*X256050Y334000D01*
X260850Y340000D02*Y334750D01*
X261600Y334000D01*
X260100Y337750D02*X261600D01*
X265350Y337000D02*X266100Y336250D01*
X263850Y337000D02*X265350D01*
X263100Y336250D02*X263850Y337000D01*
X263100Y336250D02*Y334750D01*
X263850Y334000D01*
X266100Y337000D02*Y334750D01*
X266850Y334000D01*
X263850D02*X265350D01*
X266100Y334750D01*
X268650Y340000D02*Y334750D01*
X269400Y334000D01*
G54D90*X20000Y244500D02*X302500D01*
X300000Y10500D02*X19500D01*
X30000Y39500D02*X30400Y214100D01*
X18500Y39500D02*X30000D01*
X30400Y214100D02*X17200D01*
X6000Y27000D02*Y24500D01*
X6100Y231000D02*Y225500D01*
X314000Y232500D02*Y227000D01*
X313000Y24000D02*Y26500D01*
X289000Y39102D02*Y215100D01*
X301900D02*X288700D01*
X299500Y39000D02*X289200Y39100D01*
X20500Y244500D02*G75*G03X6100Y230100I0J-14400D01*G01*
X17700Y214100D02*G75*G02X6100Y225700I0J11600D01*G01*
X301900Y244500D02*G75*G02X314000Y232400I0J-12100D01*G01*
X314100Y227300D02*G75*G02X302000Y215200I-12100J0D01*G01*
X299300Y39000D02*G75*G02X312900Y25400I0J-13600D01*G01*
X313000Y24300D02*G75*G02X299300Y10600I-13700J0D01*G01*
X18600Y39500D02*G75*G03X6000Y26900I0J-12600D01*G01*
Y24700D02*G75*G03X20200Y10500I14200J0D01*G01*
G54D88*X77175Y-9500D02*X80175D01*
X80925Y-8750D01*
Y-6950D02*Y-8750D01*
X80175Y-6200D02*X80925Y-6950D01*
X77925Y-6200D02*X80175D01*
X77925Y-3500D02*Y-9500D01*
X77175Y-3500D02*X80175D01*
X80925Y-4250D01*
Y-5450D01*
X80175Y-6200D02*X80925Y-5450D01*
X82725Y-7250D02*Y-8750D01*
Y-7250D02*X83475Y-6500D01*
X84975D01*
X85725Y-7250D01*
Y-8750D01*
X84975Y-9500D02*X85725Y-8750D01*
X83475Y-9500D02*X84975D01*
X82725Y-8750D02*X83475Y-9500D01*
X89775Y-6500D02*X90525Y-7250D01*
X88275Y-6500D02*X89775D01*
X87525Y-7250D02*X88275Y-6500D01*
X87525Y-7250D02*Y-8750D01*
X88275Y-9500D01*
X90525Y-6500D02*Y-8750D01*
X91275Y-9500D01*
X88275D02*X89775D01*
X90525Y-8750D01*
X93825Y-7250D02*Y-9500D01*
Y-7250D02*X94575Y-6500D01*
X96075D01*
X93075D02*X93825Y-7250D01*
X100875Y-3500D02*Y-9500D01*
X100125D02*X100875Y-8750D01*
X98625Y-9500D02*X100125D01*
X97875Y-8750D02*X98625Y-9500D01*
X97875Y-7250D02*Y-8750D01*
Y-7250D02*X98625Y-6500D01*
X100125D01*
X100875Y-7250D01*
X105375D02*Y-8750D01*
Y-7250D02*X106125Y-6500D01*
X107625D01*
X108375Y-7250D01*
Y-8750D01*
X107625Y-9500D02*X108375Y-8750D01*
X106125Y-9500D02*X107625D01*
X105375Y-8750D02*X106125Y-9500D01*
X110175Y-6500D02*Y-8750D01*
X110925Y-9500D01*
X112425D01*
X113175Y-8750D01*
Y-6500D02*Y-8750D01*
X115725Y-3500D02*Y-8750D01*
X116475Y-9500D01*
X114975Y-5750D02*X116475D01*
X117975Y-3500D02*Y-8750D01*
X118725Y-9500D01*
G54D89*X120225Y-5000D02*Y-5150D01*
G54D88*Y-7250D02*Y-9500D01*
X122475Y-7250D02*Y-9500D01*
Y-7250D02*X123225Y-6500D01*
X123975D01*
X124725Y-7250D01*
Y-9500D01*
X121725Y-6500D02*X122475Y-7250D01*
X127275Y-9500D02*X129525D01*
X126525Y-8750D02*X127275Y-9500D01*
X126525Y-7250D02*Y-8750D01*
Y-7250D02*X127275Y-6500D01*
X128775D01*
X129525Y-7250D01*
X126525Y-8000D02*X129525D01*
Y-7250D02*Y-8000D01*
G54D89*X134025Y-5000D02*Y-5150D01*
G54D88*Y-7250D02*Y-9500D01*
X136275D02*X138525D01*
X139275Y-8750D01*
X138525Y-8000D02*X139275Y-8750D01*
X136275Y-8000D02*X138525D01*
X135525Y-7250D02*X136275Y-8000D01*
X135525Y-7250D02*X136275Y-6500D01*
X138525D01*
X139275Y-7250D01*
X135525Y-8750D02*X136275Y-9500D01*
X144525Y-3500D02*Y-8750D01*
X145275Y-9500D01*
X143775Y-5750D02*X145275D01*
X146775Y-3500D02*Y-9500D01*
Y-7250D02*X147525Y-6500D01*
X149025D01*
X149775Y-7250D01*
Y-9500D01*
X152325D02*X154575D01*
X151575Y-8750D02*X152325Y-9500D01*
X151575Y-7250D02*Y-8750D01*
Y-7250D02*X152325Y-6500D01*
X153825D01*
X154575Y-7250D01*
X151575Y-8000D02*X154575D01*
Y-7250D02*Y-8000D01*
X159825Y-6500D02*X162075D01*
X159075Y-7250D02*X159825Y-6500D01*
X159075Y-7250D02*Y-8750D01*
X159825Y-9500D01*
X162075D01*
X164625D02*X166875D01*
X163875Y-8750D02*X164625Y-9500D01*
X163875Y-7250D02*Y-8750D01*
Y-7250D02*X164625Y-6500D01*
X166125D01*
X166875Y-7250D01*
X163875Y-8000D02*X166875D01*
Y-7250D02*Y-8000D01*
X169425Y-7250D02*Y-9500D01*
Y-7250D02*X170175Y-6500D01*
X170925D01*
X171675Y-7250D01*
Y-9500D01*
X168675Y-6500D02*X169425Y-7250D01*
X174225Y-3500D02*Y-8750D01*
X174975Y-9500D01*
X173475Y-5750D02*X174975D01*
X177225Y-9500D02*X179475D01*
X176475Y-8750D02*X177225Y-9500D01*
X176475Y-7250D02*Y-8750D01*
Y-7250D02*X177225Y-6500D01*
X178725D01*
X179475Y-7250D01*
X176475Y-8000D02*X179475D01*
Y-7250D02*Y-8000D01*
X182025Y-7250D02*Y-9500D01*
Y-7250D02*X182775Y-6500D01*
X184275D01*
X181275D02*X182025Y-7250D01*
X186075Y-3500D02*Y-8750D01*
X186825Y-9500D01*
G54D89*X188325Y-5000D02*Y-5150D01*
G54D88*Y-7250D02*Y-9500D01*
X190575Y-7250D02*Y-9500D01*
Y-7250D02*X191325Y-6500D01*
X192075D01*
X192825Y-7250D01*
Y-9500D01*
X189825Y-6500D02*X190575Y-7250D01*
X195375Y-9500D02*X197625D01*
X194625Y-8750D02*X195375Y-9500D01*
X194625Y-7250D02*Y-8750D01*
Y-7250D02*X195375Y-6500D01*
X196875D01*
X197625Y-7250D01*
X194625Y-8000D02*X197625D01*
Y-7250D02*Y-8000D01*
X202125Y-7250D02*Y-8750D01*
Y-7250D02*X202875Y-6500D01*
X204375D01*
X205125Y-7250D01*
Y-8750D01*
X204375Y-9500D02*X205125Y-8750D01*
X202875Y-9500D02*X204375D01*
X202125Y-8750D02*X202875Y-9500D01*
X207675Y-4250D02*Y-9500D01*
Y-4250D02*X208425Y-3500D01*
X209175D01*
X206925Y-6500D02*X208425D01*
X214125Y-3500D02*Y-8750D01*
X214875Y-9500D01*
X213375Y-5750D02*X214875D01*
X216375Y-3500D02*Y-9500D01*
Y-7250D02*X217125Y-6500D01*
X218625D01*
X219375Y-7250D01*
Y-9500D01*
G54D89*X221175Y-5000D02*Y-5150D01*
G54D88*Y-7250D02*Y-9500D01*
X223425D02*X225675D01*
X226425Y-8750D01*
X225675Y-8000D02*X226425Y-8750D01*
X223425Y-8000D02*X225675D01*
X222675Y-7250D02*X223425Y-8000D01*
X222675Y-7250D02*X223425Y-6500D01*
X225675D01*
X226425Y-7250D01*
X222675Y-8750D02*X223425Y-9500D01*
X231675Y-7250D02*Y-11750D01*
X230925Y-6500D02*X231675Y-7250D01*
X232425Y-6500D01*
X233925D01*
X234675Y-7250D01*
Y-8750D01*
X233925Y-9500D02*X234675Y-8750D01*
X232425Y-9500D02*X233925D01*
X231675Y-8750D02*X232425Y-9500D01*
X238725Y-6500D02*X239475Y-7250D01*
X237225Y-6500D02*X238725D01*
X236475Y-7250D02*X237225Y-6500D01*
X236475Y-7250D02*Y-8750D01*
X237225Y-9500D01*
X239475Y-6500D02*Y-8750D01*
X240225Y-9500D01*
X237225D02*X238725D01*
X239475Y-8750D01*
X242775Y-3500D02*Y-8750D01*
X243525Y-9500D01*
X242025Y-5750D02*X243525D01*
X245025Y-3500D02*Y-9500D01*
Y-7250D02*X245775Y-6500D01*
X247275D01*
X248025Y-7250D01*
Y-9500D01*
X200750Y280000D02*Y274000D01*
X202700Y280000D02*X203750Y278950D01*
Y275050D01*
X202700Y274000D02*X203750Y275050D01*
X200000Y274000D02*X202700D01*
X200000Y280000D02*X202700D01*
X207800Y277000D02*X208550Y276250D01*
X206300Y277000D02*X207800D01*
X205550Y276250D02*X206300Y277000D01*
X205550Y276250D02*Y274750D01*
X206300Y274000D01*
X208550Y277000D02*Y274750D01*
X209300Y274000D01*
X206300D02*X207800D01*
X208550Y274750D01*
X211850Y280000D02*Y274750D01*
X212600Y274000D01*
X211100Y277750D02*X212600D01*
X214850Y274000D02*X217100D01*
X214100Y274750D02*X214850Y274000D01*
X214100Y276250D02*Y274750D01*
Y276250D02*X214850Y277000D01*
X216350D01*
X217100Y276250D01*
X214100Y275500D02*X217100D01*
Y276250D02*Y275500D01*
X218900Y277750D02*X219650D01*
X218900Y276250D02*X219650D01*
X224150Y280000D02*Y277000D01*
X224900Y274000D01*
X226400Y277000D01*
X227900Y274000D01*
X228650Y277000D01*
Y280000D02*Y277000D01*
X231200Y274000D02*X233450D01*
X230450Y274750D02*X231200Y274000D01*
X230450Y276250D02*Y274750D01*
Y276250D02*X231200Y277000D01*
X232700D01*
X233450Y276250D01*
X230450Y275500D02*X233450D01*
Y276250D02*Y275500D01*
X238250Y280000D02*Y274000D01*
X237500D02*X238250Y274750D01*
X236000Y274000D02*X237500D01*
X235250Y274750D02*X236000Y274000D01*
X235250Y276250D02*Y274750D01*
Y276250D02*X236000Y277000D01*
X237500D01*
X238250Y276250D01*
X243800Y280000D02*X245000D01*
Y274750D01*
X244250Y274000D02*X245000Y274750D01*
X243500Y274000D02*X244250D01*
X242750Y274750D02*X243500Y274000D01*
X242750Y275500D02*Y274750D01*
X246800Y277000D02*Y274750D01*
X247550Y274000D01*
X249050D01*
X249800Y274750D01*
Y277000D02*Y274750D01*
X251600Y280000D02*Y274750D01*
X252350Y274000D01*
X259250Y274750D02*X260000Y274000D01*
X259250Y275950D02*Y274750D01*
Y275950D02*X260300Y277000D01*
X261200D01*
X262250Y275950D01*
Y274750D01*
X261500Y274000D02*X262250Y274750D01*
X260000Y274000D02*X261500D01*
X259250Y278050D02*X260300Y277000D01*
X259250Y279250D02*Y278050D01*
Y279250D02*X260000Y280000D01*
X261500D01*
X262250Y279250D01*
Y278050D01*
X261200Y277000D02*X262250Y278050D01*
X266750Y278800D02*X267950Y280000D01*
Y274000D01*
X266750D02*X269000D01*
X270800Y276250D02*X273800Y280000D01*
X270800Y276250D02*X274550D01*
X273800Y280000D02*Y274000D01*
X276350Y277750D02*X277100D01*
X276350Y276250D02*X277100D01*
X278900Y280000D02*X281900D01*
X278900D02*Y277000D01*
X279650Y277750D01*
X281150D01*
X281900Y277000D01*
Y274750D01*
X281150Y274000D02*X281900Y274750D01*
X279650Y274000D02*X281150D01*
X278900Y274750D02*X279650Y274000D01*
X284450D02*X286700Y277000D01*
Y279250D02*Y277000D01*
X285950Y280000D02*X286700Y279250D01*
X284450Y280000D02*X285950D01*
X283700Y279250D02*X284450Y280000D01*
X283700Y279250D02*Y277750D01*
X284450Y277000D01*
X286700D01*
X288500Y277750D02*X289250D01*
X288500Y276250D02*X289250D01*
X291050Y280000D02*X294050D01*
X291050D02*Y277000D01*
X291800Y277750D01*
X293300D01*
X294050Y277000D01*
Y274750D01*
X293300Y274000D02*X294050Y274750D01*
X291800Y274000D02*X293300D01*
X291050Y274750D02*X291800Y274000D01*
X295850Y274750D02*X296600Y274000D01*
X295850Y275950D02*Y274750D01*
Y275950D02*X296900Y277000D01*
X297800D01*
X298850Y275950D01*
Y274750D01*
X298100Y274000D02*X298850Y274750D01*
X296600Y274000D02*X298100D01*
X295850Y278050D02*X296900Y277000D01*
X295850Y279250D02*Y278050D01*
Y279250D02*X296600Y280000D01*
X298100D01*
X298850Y279250D01*
Y278050D01*
X297800Y277000D02*X298850Y278050D01*
X303350Y279250D02*X304100Y280000D01*
X306350D01*
X307100Y279250D01*
Y277750D01*
X303350Y274000D02*X307100Y277750D01*
X303350Y274000D02*X307100D01*
X308900Y274750D02*X309650Y274000D01*
X308900Y279250D02*Y274750D01*
Y279250D02*X309650Y280000D01*
X311150D01*
X311900Y279250D01*
Y274750D01*
X311150Y274000D02*X311900Y274750D01*
X309650Y274000D02*X311150D01*
X308900Y275500D02*X311900Y278500D01*
X313700Y278800D02*X314900Y280000D01*
Y274000D01*
X313700D02*X315950D01*
X317750Y280000D02*X320750D01*
X317750D02*Y277000D01*
X318500Y277750D01*
X320000D01*
X320750Y277000D01*
Y274750D01*
X320000Y274000D02*X320750Y274750D01*
X318500Y274000D02*X320000D01*
X317750Y274750D02*X318500Y274000D01*
X325250Y280000D02*Y274750D01*
X326000Y274000D01*
X327500D01*
X328250Y274750D01*
Y280000D02*Y274750D01*
X330050Y280000D02*X333050D01*
X331550D02*Y274000D01*
X335900D02*X337850D01*
X334850Y275050D02*X335900Y274000D01*
X334850Y278950D02*Y275050D01*
Y278950D02*X335900Y280000D01*
X337850D01*
X200000Y293500D02*Y289000D01*
Y293500D02*X201050Y295000D01*
X202700D01*
X203750Y293500D01*
Y289000D01*
X200000Y292000D02*X203750D01*
X205550D02*Y289750D01*
X206300Y289000D01*
X207800D01*
X208550Y289750D01*
Y292000D02*Y289750D01*
X211100Y295000D02*Y289750D01*
X211850Y289000D01*
X210350Y292750D02*X211850D01*
X213350Y295000D02*Y289000D01*
Y291250D02*X214100Y292000D01*
X215600D01*
X216350Y291250D01*
Y289000D01*
X218150Y291250D02*Y289750D01*
Y291250D02*X218900Y292000D01*
X220400D01*
X221150Y291250D01*
Y289750D01*
X220400Y289000D02*X221150Y289750D01*
X218900Y289000D02*X220400D01*
X218150Y289750D02*X218900Y289000D01*
X223700Y291250D02*Y289000D01*
Y291250D02*X224450Y292000D01*
X225950D01*
X222950D02*X223700Y291250D01*
X227750Y292750D02*X228500D01*
X227750Y291250D02*X228500D01*
X233000Y292300D02*X235250D01*
X233000Y289000D02*X236000D01*
X233000Y295000D02*Y289000D01*
Y295000D02*X236000D01*
X238550Y291250D02*Y289000D01*
Y291250D02*X239300Y292000D01*
X240800D01*
X237800D02*X238550Y291250D01*
G54D89*X242600Y293500D02*Y293350D01*
G54D88*Y291250D02*Y289000D01*
X244850Y291250D02*Y289000D01*
Y291250D02*X245600Y292000D01*
X246350D01*
X247100Y291250D01*
Y289000D01*
X244100Y292000D02*X244850Y291250D01*
X251600Y295000D02*Y289000D01*
Y292000D02*X254600Y295000D01*
X251600Y292000D02*X254600Y289000D01*
X257150D02*X259400D01*
X256400Y289750D02*X257150Y289000D01*
X256400Y291250D02*Y289750D01*
Y291250D02*X257150Y292000D01*
X258650D01*
X259400Y291250D01*
X256400Y290500D02*X259400D01*
Y291250D02*Y290500D01*
X261950Y291250D02*Y289000D01*
Y291250D02*X262700Y292000D01*
X263450D01*
X264200Y291250D01*
Y289000D01*
X261200Y292000D02*X261950Y291250D01*
X266750D02*Y289000D01*
Y291250D02*X267500Y292000D01*
X268250D01*
X269000Y291250D01*
Y289000D01*
X266000Y292000D02*X266750Y291250D01*
X271550Y289000D02*X273800D01*
X270800Y289750D02*X271550Y289000D01*
X270800Y291250D02*Y289750D01*
Y291250D02*X271550Y292000D01*
X273050D01*
X273800Y291250D01*
X270800Y290500D02*X273800D01*
Y291250D02*Y290500D01*
X278600Y295000D02*Y289000D01*
X277850D02*X278600Y289750D01*
X276350Y289000D02*X277850D01*
X275600Y289750D02*X276350Y289000D01*
X275600Y291250D02*Y289750D01*
Y291250D02*X276350Y292000D01*
X277850D01*
X278600Y291250D01*
X280400Y292000D02*Y289750D01*
X281150Y289000D01*
X283400Y292000D02*Y287500D01*
X282650Y286750D02*X283400Y287500D01*
X281150Y286750D02*X282650D01*
X280400Y287500D02*X281150Y286750D01*
Y289000D02*X282650D01*
X283400Y289750D01*
X200000Y310000D02*X203000D01*
X201500D02*Y304000D01*
G54D89*X204800Y308500D02*Y308350D01*
G54D88*Y306250D02*Y304000D01*
X207050Y310000D02*Y304750D01*
X207800Y304000D01*
X206300Y307750D02*X207800D01*
X209300Y310000D02*Y304750D01*
X210050Y304000D01*
X212300D02*X214550D01*
X211550Y304750D02*X212300Y304000D01*
X211550Y306250D02*Y304750D01*
Y306250D02*X212300Y307000D01*
X213800D01*
X214550Y306250D01*
X211550Y305500D02*X214550D01*
Y306250D02*Y305500D01*
X216350Y307750D02*X217100D01*
X216350Y306250D02*X217100D01*
X221600Y304750D02*X222350Y304000D01*
X221600Y309250D02*X222350Y310000D01*
X221600Y309250D02*Y304750D01*
X224150Y307000D02*Y304750D01*
X224900Y304000D01*
X226400D01*
X227150Y304750D01*
Y307000D02*Y304750D01*
X229700Y306250D02*Y304000D01*
Y306250D02*X230450Y307000D01*
X231200D01*
X231950Y306250D01*
Y304000D01*
X228950Y307000D02*X229700Y306250D01*
X233750Y310000D02*Y304000D01*
Y306250D02*X236000Y304000D01*
X233750Y306250D02*X235250Y307750D01*
X238550Y306250D02*Y304000D01*
Y306250D02*X239300Y307000D01*
X240050D01*
X240800Y306250D01*
Y304000D01*
X237800Y307000D02*X238550Y306250D01*
X242600D02*Y304750D01*
Y306250D02*X243350Y307000D01*
X244850D01*
X245600Y306250D01*
Y304750D01*
X244850Y304000D02*X245600Y304750D01*
X243350Y304000D02*X244850D01*
X242600Y304750D02*X243350Y304000D01*
X247400Y307000D02*Y304750D01*
X248150Y304000D01*
X248900D01*
X249650Y304750D01*
Y307000D02*Y304750D01*
X250400Y304000D01*
X251150D01*
X251900Y304750D01*
Y307000D02*Y304750D01*
X254450Y306250D02*Y304000D01*
Y306250D02*X255200Y307000D01*
X255950D01*
X256700Y306250D01*
Y304000D01*
X253700Y307000D02*X254450Y306250D01*
X258500Y310000D02*X259250Y309250D01*
Y304750D01*
X258500Y304000D02*X259250Y304750D01*
X263750Y307000D02*X266750D01*
X271250Y310000D02*Y304000D01*
Y310000D02*X274250D01*
X271250Y307300D02*X273500D01*
X278300Y307000D02*X279050Y306250D01*
X276800Y307000D02*X278300D01*
X276050Y306250D02*X276800Y307000D01*
X276050Y306250D02*Y304750D01*
X276800Y304000D01*
X279050Y307000D02*Y304750D01*
X279800Y304000D01*
X276800D02*X278300D01*
X279050Y304750D01*
X281600Y310000D02*Y304000D01*
Y304750D02*X282350Y304000D01*
X283850D01*
X284600Y304750D01*
Y306250D02*Y304750D01*
X283850Y307000D02*X284600Y306250D01*
X282350Y307000D02*X283850D01*
X281600Y306250D02*X282350Y307000D01*
X287150Y306250D02*Y304000D01*
Y306250D02*X287900Y307000D01*
X289400D01*
X286400D02*X287150Y306250D01*
G54D89*X291200Y308500D02*Y308350D01*
G54D88*Y306250D02*Y304000D01*
X293450Y307000D02*X295700D01*
X292700Y306250D02*X293450Y307000D01*
X292700Y306250D02*Y304750D01*
X293450Y304000D01*
X295700D01*
X299750Y307000D02*X300500Y306250D01*
X298250Y307000D02*X299750D01*
X297500Y306250D02*X298250Y307000D01*
X297500Y306250D02*Y304750D01*
X298250Y304000D01*
X300500Y307000D02*Y304750D01*
X301250Y304000D01*
X298250D02*X299750D01*
X300500Y304750D01*
X303800Y310000D02*Y304750D01*
X304550Y304000D01*
X303050Y307750D02*X304550D01*
G54D89*X306050Y308500D02*Y308350D01*
G54D88*Y306250D02*Y304000D01*
X307550Y306250D02*Y304750D01*
Y306250D02*X308300Y307000D01*
X309800D01*
X310550Y306250D01*
Y304750D01*
X309800Y304000D02*X310550Y304750D01*
X308300Y304000D02*X309800D01*
X307550Y304750D02*X308300Y304000D01*
X313100Y306250D02*Y304000D01*
Y306250D02*X313850Y307000D01*
X314600D01*
X315350Y306250D01*
Y304000D01*
X312350Y307000D02*X313100Y306250D01*
X320600Y310000D02*Y304000D01*
X322550Y310000D02*X323600Y308950D01*
Y305050D01*
X322550Y304000D02*X323600Y305050D01*
X319850Y304000D02*X322550D01*
X319850Y310000D02*X322550D01*
X326150Y306250D02*Y304000D01*
Y306250D02*X326900Y307000D01*
X328400D01*
X325400D02*X326150Y306250D01*
X332450Y307000D02*X333200Y306250D01*
X330950Y307000D02*X332450D01*
X330200Y306250D02*X330950Y307000D01*
X330200Y306250D02*Y304750D01*
X330950Y304000D01*
X333200Y307000D02*Y304750D01*
X333950Y304000D01*
X330950D02*X332450D01*
X333200Y304750D01*
X335750Y307000D02*Y304750D01*
X336500Y304000D01*
X337250D01*
X338000Y304750D01*
Y307000D02*Y304750D01*
X338750Y304000D01*
X339500D01*
X340250Y304750D01*
Y307000D02*Y304750D01*
G54D89*X342050Y308500D02*Y308350D01*
G54D88*Y306250D02*Y304000D01*
X344300Y306250D02*Y304000D01*
Y306250D02*X345050Y307000D01*
X345800D01*
X346550Y306250D01*
Y304000D01*
X343550Y307000D02*X344300Y306250D01*
X350600Y307000D02*X351350Y306250D01*
X349100Y307000D02*X350600D01*
X348350Y306250D02*X349100Y307000D01*
X348350Y306250D02*Y304750D01*
X349100Y304000D01*
X350600D01*
X351350Y304750D01*
X348350Y302500D02*X349100Y301750D01*
X350600D01*
X351350Y302500D01*
Y307000D02*Y302500D01*
M02*
