M48
INCH
T58C0.015
T57C0.157
%
T58
X004650Y017630
X004660Y018250
X004660Y016970
X004670Y018890
X005200Y016350
X005200Y008050
X005200Y004850
X005660Y018890
X005700Y018270
X005720Y017620
X005730Y022870
X005750Y016990
X005990Y007040
X007140Y020050
X007150Y016930
X008390Y005850
X008390Y004980
X009080Y021920
X009160Y014570
X009390Y009780
X009700Y013860
X009750Y015010
X010090Y011860
X010100Y008570
X010240Y015220
X010340Y008030
X010700Y011880
X010970Y022400
X010980Y010440
X011030Y021910
X011120Y008030
X011360Y006550
X011470Y013020
X011560Y021080
X011900Y013190
X011960Y017550
X012170Y022460
X012180Y021920
X012370Y006640
X012410Y002450
X012500Y009450
X012540Y008300
X012880Y016220
X013090Y013060
X013210Y014680
X013210Y008870
X013340Y012580
X013380Y007820
X013520Y016200
X013580Y017510
X013630Y004980
X013670Y009160
X013750Y015360
X014250Y009180
X014550Y015940
X014760Y007190
X014920Y002460
X014940Y006710
X015270Y012610
X015300Y014700
X015340Y014120
X015480Y007430
X015590Y009930
X015710Y016270
X015930Y006700
X016150Y014700
X016245Y012585
X016250Y016220
X017410Y002450
X017490Y009360
X017530Y022960
X018000Y010200
X019920Y002440
X022010Y003900
X022950Y007600
X023200Y014900
X023200Y013450
X023250Y009100
X024000Y002950
X024280Y005950
X026050Y004910
X026100Y004150
X027420Y007580
X027450Y006550
T57
X002100Y022950
X002100Y002450
X029800Y022950
X029800Y002450
M30
