  0
SECTION
  2
HEADER
  9
$ACADVER
  1
AC1014
  9
$HANDSEED
  5
FFFF
  9
$MEASUREMENT
 70
     1
  0
ENDSEC
  0
SECTION
  2
TABLES
  0
TABLE
  2
VPORT
  5
8
330
0
100
AcDbSymbolTable
 70
     4
  0
VPORT
  5
2E
330
8
100
AcDbSymbolTableRecord
100
AcDbViewportTableRecord
  2
*ACTIVE
 70
     0
 10
0.0
 20
0.0
 11
1.0
 21
1.0
 12
210.0
 22
148.5
 13
0.0
 23
0.0
 14
10.0
 24
10.0
 15
10.0
 25
10.0
 16
0.0
 26
0.0
 36
1.0
 17
0.0
 27
0.0
 37
0.0
 40
341.0
 41
1.24
 42
50.0
 43
0.0
 44
0.0
 50
0.0
 51
0.0
 71
     0
 72
   100
 73
     1
 74
     3
 75
     0
 76
     0
 77
     0
 78
     0
  0
ENDTAB
  0
TABLE
  2
LTYPE
  5
5
330
0
100
AcDbSymbolTable
 70
     1
  0
LTYPE
  5
14
330
5
100
AcDbSymbolTableRecord
100
AcDbLinetypeTableRecord
  2
BYBLOCK
 70
     0
  3

 72
    65
 73
     0
 40
0.0
  0
LTYPE
  5
15
330
5
100
AcDbSymbolTableRecord
100
AcDbLinetypeTableRecord
  2
BYLAYER
 70
     0
  3

 72
    65
 73
     0
 40
0.0
  0
LTYPE
  5
16
330
5
100
AcDbSymbolTableRecord
100
AcDbLinetypeTableRecord
  2
CONTINUOUS
 70
     0
  3
Solid line
 72
    65
 73
     0
 40
0.0
  0
ENDTAB
  0
TABLE
  2
LAYER
  5
2
100
AcDbSymbolTable
 70
5
  0
LAYER
  5
50
100
AcDbSymbolTableRecord
100
AcDbLayerTableRecord
  2
0
 70
0
  6
CONTINUOUS
  0
LAYER
  5
51
100
AcDbSymbolTableRecord
100
AcDbLayerTableRecord
  2
Layer_4
 70
0
  6
CONTINUOUS
  0
LAYER
  5
52
100
AcDbSymbolTableRecord
100
AcDbLayerTableRecord
  2
Layer_1
 70
0
  6
CONTINUOUS
  0
LAYER
  5
53
100
AcDbSymbolTableRecord
100
AcDbLayerTableRecord
  2
Layer_2
 70
0
  6
CONTINUOUS
  0
LAYER
  5
54
100
AcDbSymbolTableRecord
100
AcDbLayerTableRecord
  2
Layer_3
 70
0
  6
CONTINUOUS
  0
ENDTAB
  0
TABLE
  2
STYLE
  5
3
330
0
100
AcDbSymbolTable
 70
     1
  0
STYLE
  5
11
330
3
100
AcDbSymbolTableRecord
100
AcDbTextStyleTableRecord
  2
STANDARD
 70
     0
 40
0.0
 41
1.0
 50
0.0
 71
     0
 42
2.5
  3
txt
  4

  0
ENDTAB
  0
TABLE
  2
VIEW
  5
6
330
0
100
AcDbSymbolTable
 70
     0
  0
ENDTAB
  0
TABLE
  2
UCS
  5
7
330
0
100
AcDbSymbolTable
 70
     0
  0
ENDTAB
  0
TABLE
  2
APPID
  5
9
330
0
100
AcDbSymbolTable
 70
     2
  0
APPID
  5
12
330
9
100
AcDbSymbolTableRecord
100
AcDbRegAppTableRecord
  2
ACAD
 70
     0
  0
ENDTAB
  0
TABLE
  2
DIMSTYLE
  5
A
330
0
100
AcDbSymbolTable
 70
     1
  0
DIMSTYLE
105
27
330
A
100
AcDbSymbolTableRecord
100
AcDbDimStyleTableRecord
  2
ISO-25
 70
     0
  3

  4

  5

  6

  7

 40
1.0
 41
2.5
 42
0.625
 43
3.75
 44
1.25
 45
0.0
 46
0.0
 47
0.0
 48
0.0
140
2.5
141
2.5
142
0.0
143
0.03937007874016
144
1.0
145
0.0
146
1.0
147
0.625
 71
     0
 72
     0
 73
     0
 74
     0
 75
     0
 76
     0
 77
     1
 78
     8
170
     0
171
     3
172
     1
173
     0
174
     0
175
     0
176
     0
177
     0
178
     0
270
     2
271
     2
272
     2
273
     2
274
     3
340
11
275
     0
280
     0
281
     0
282
     0
283
     0
284
     8
285
     0
286
     0
287
     3
288
     0
  0
ENDTAB
  0
TABLE
  2
BLOCK_RECORD
  5
1
330
0
100
AcDbSymbolTable
 70
     1
  0
BLOCK_RECORD
  5
1F
330
1
100
AcDbSymbolTableRecord
100
AcDbBlockTableRecord
  2
*MODEL_SPACE
  0
BLOCK_RECORD
  5
1B
330
1
100
AcDbSymbolTableRecord
100
AcDbBlockTableRecord
  2
*PAPER_SPACE
  0
ENDTAB
  0
ENDSEC
  0
SECTION
  2
BLOCKS
  0
BLOCK
  5
20
330
1F
100
AcDbEntity
  8
0
100
AcDbBlockBegin
  2
*MODEL_SPACE
 70
     0
 10
0.0
 20
0.0
 30
0.0
  3
*MODEL_SPACE
  1

  0
ENDBLK
  5
21
330
1F
100
AcDbEntity
  8
0
100
AcDbBlockEnd
  0
BLOCK
  5
1C
330
1B
100
AcDbEntity
 67
     1
  8
0
100
AcDbBlockBegin
  2
*PAPER_SPACE
  1

  0
ENDBLK
  5
1D
330
1B
100
AcDbEntity
 67
     1
  8
0
100
AcDbBlockEnd
  0
ENDSEC
  0
SECTION
  2
ENTITIES
  0
LWPOLYLINE
  5
100
100
AcDbEntity
  8
Layer_1
 62
3
100
AcDbPolyline
 90
15
 70
1
 10
107.278688
 20
543.364608
 30
0.0
 10
116.960880
 20
557.694256
 30
0.0
 10
133.614248
 20
571.636608
 30
0.0
 10
152.978632
 20
578.995072
 30
0.0
 10
173.117592
 20
582.093376
 30
0.0
 10
193.256552
 20
582.867952
 30
0.0
 10
203.326032
 20
570.087456
 30
0.0
 10
200.615016
 20
555.370528
 30
0.0
 10
189.383672
 20
541.040880
 30
0.0
 10
168.857424
 20
529.034968
 30
0.0
 10
151.816768
 20
520.901920
 30
0.0
 10
134.776112
 20
518.190912
 30
0.0
 10
119.284608
 20
520.127344
 30
0.0
 10
110.764272
 20
531.745976
 30
0.0
 10
107.278688
 20
543.364608
 30
0.0
  0
SPLINE
  5
101
100
AcDbEntity
  8
Layer_1
 62
3
100
AcDbSpline
 70
8
 71
3
 72
8
 73
4
 74
0
 40
0
 40
0
 40
0
 40
0
 40
1
 40
1
 40
1
 40
1
 10
338.489432
 20
546.462912
 30
0.0
 10
338.489432
 20
546.462912
 30
0.0
 10
313.315728
 20
551.110360
 30
0.0
 10
311.766576
 20
551.497648
 30
0.0
  0
SPLINE
  5
102
100
AcDbEntity
  8
Layer_1
 62
3
100
AcDbSpline
 70
8
 71
3
 72
8
 73
4
 74
0
 40
0
 40
0
 40
0
 40
0
 40
1
 40
1
 40
1
 40
1
 10
311.766576
 20
551.497648
 30
0.0
 10
310.217424
 20
551.884936
 30
0.0
 10
273.812384
 20
547.237488
 30
0.0
 10
273.812384
 20
547.237488
 30
0.0
  0
LWPOLYLINE
  5
103
100
AcDbEntity
  8
Layer_1
 62
3
100
AcDbPolyline
 90
37
 70
1
 10
83.266848
 20
534.456992
 30
0.0
 10
91.399888
 20
536.780720
 30
0.0
 10
97.596496
 20
545.301048
 30
0.0
 10
106.504112
 20
553.821376
 30
0.0
 10
117.348168
 20
565.440008
 30
0.0
 10
131.290520
 20
576.284064
 30
0.0
 10
151.429480
 20
583.255240
 30
0.0
 10
165.759128
 20
584.804392
 30
0.0
 10
186.285368
 20
587.902688
 30
0.0
 10
207.973480
 20
591.000992
 30
0.0
 10
230.048880
 20
597.972170
 30
0.0
 10
255.609864
 20
604.943349
 30
0.0
 10
286.980168
 20
611.527239
 30
0.0
 10
312.153864
 20
616.561979
 30
0.0
 10
329.969096
 20
621.209431
 30
0.0
 10
353.206360
 20
623.920445
 30
0.0
 10
372.183456
 20
623.920445
 30
0.0
 10
402.004608
 20
622.371294
 30
0.0
 10
430.276608
 20
617.723842
 30
0.0
 10
457.386744
 20
609.590801
 30
0.0
 10
490.693488
 20
595.261157
 30
0.0
 10
513.930744
 20
578.607784
 30
0.0
 10
531.745976
 20
559.630688
 30
0.0
 10
548.786632
 20
534.456992
 30
0.0
 10
551.884936
 20
517.803624
 30
0.0
 10
550.335784
 20
503.086688
 30
0.0
 10
529.809536
 20
505.023128
 30
0.0
 10
515.092608
 20
512.768880
 30
0.0
 10
491.855344
 20
517.029048
 30
0.0
 10
470.554528
 20
518.190912
 30
0.0
 10
449.253704
 20
517.029048
 30
0.0
 10
440.733376
 20
515.479896
 30
0.0
 10
419.045264
 20
517.029048
 30
0.0
 10
402.004608
 20
523.612936
 30
0.0
 10
387.287672
 20
531.358688
 30
0.0
 10
362.113976
 20
540.653592
 30
0.0
 10
338.489432
 20
546.462912
 30
0.0
  0
LWPOLYLINE
  5
104
100
AcDbEntity
  8
Layer_1
 62
3
100
AcDbPolyline
 90
15
 70
1
 10
273.812384
 20
547.237488
 30
0.0
 10
246.314960
 20
544.913760
 30
0.0
 10
229.661592
 20
538.717160
 30
0.0
 10
220.753976
 20
528.647680
 30
0.0
 10
202.938744
 20
521.676496
 30
0.0
 10
181.637920
 20
516.641760
 30
0.0
 10
154.915072
 20
514.705320
 30
0.0
 10
129.741368
 20
515.092608
 30
0.0
 10
116.573592
 20
516.254472
 30
0.0
 10
115.024440
 20
508.121432
 30
0.0
 10
107.278688
 20
514.318032
 30
0.0
 10
101.082080
 20
522.838360
 30
0.0
 10
98.758360
 20
526.711240
 30
0.0
 10
87.139728
 20
528.647680
 30
0.0
 10
83.266848
 20
534.456992
 30
0.0
  0
SPLINE
  5
105
100
AcDbEntity
  8
Layer_2
 62
3
100
AcDbSpline
 70
8
 71
3
 72
8
 73
4
 74
0
 40
0
 40
0
 40
0
 40
0
 40
1
 40
1
 40
1
 40
1
 10
156.464224
 20
338.489432
 30
0.0
 10
154.915072
 20
338.489432
 30
0.0
 10
137.874416
 20
332.292824
 30
0.0
 10
137.874416
 20
332.292824
 30
0.0
  0
LWPOLYLINE
  5
106
100
AcDbEntity
  8
Layer_1
 62
3
100
AcDbPolyline
 90
42
 70
1
 10
203.326032
 20
551.110360
 30
0.0
 10
214.170088
 20
568.538304
 30
0.0
 10
220.366688
 20
578.220496
 30
0.0
 10
233.921752
 20
584.804392
 30
0.0
 10
255.222576
 20
590.226416
 30
0.0
 10
279.621704
 20
596.035732
 30
0.0
 10
302.084384
 20
600.683185
 30
0.0
 10
327.258088
 20
605.717924
 30
0.0
 10
349.720768
 20
612.689102
 30
0.0
 10
369.859728
 20
614.238253
 30
0.0
 10
402.391896
 20
613.463678
 30
0.0
 10
421.756280
 20
608.428938
 30
0.0
 10
440.733376
 20
603.781486
 30
0.0
 10
454.288440
 20
596.423020
 30
0.0
 10
464.357920
 20
595.648445
 30
0.0
 10
470.554528
 20
599.134034
 30
0.0
 10
471.329104
 20
604.168774
 30
0.0
 10
455.837592
 20
609.978089
 30
0.0
 10
429.502032
 20
618.111130
 30
0.0
 10
396.582576
 20
622.371294
 30
0.0
 10
362.888552
 20
624.307733
 30
0.0
 10
338.102144
 20
622.758582
 30
0.0
 10
316.026744
 20
617.723842
 30
0.0
 10
293.564056
 20
612.301814
 30
0.0
 10
263.355616
 20
606.492499
 30
0.0
 10
229.274304
 20
597.972170
 30
0.0
 10
205.262464
 20
590.613704
 30
0.0
 10
180.476056
 20
586.740832
 30
0.0
 10
154.527784
 20
584.029816
 30
0.0
 10
137.487128
 20
578.607784
 30
0.0
 10
122.770192
 20
570.862032
 30
0.0
 10
108.053264
 20
556.145104
 30
0.0
 10
96.434632
 20
544.139184
 30
0.0
 10
97.983784
 20
530.584112
 30
0.0
 10
102.631232
 20
520.901920
 30
0.0
 10
116.960880
 20
516.641760
 30
0.0
 10
132.065096
 20
514.705320
 30
0.0
 10
151.816768
 20
517.416336
 30
0.0
 10
172.730304
 20
527.873104
 30
0.0
 10
191.707400
 20
540.266304
 30
0.0
 10
203.713320
 20
549.948496
 30
0.0
 10
203.326032
 20
551.110360
 30
0.0
  0
SPLINE
  5
107
100
AcDbEntity
  8
Layer_2
 62
3
100
AcDbSpline
 70
8
 71
3
 72
8
 73
4
 74
0
 40
0
 40
0
 40
0
 40
0
 40
1
 40
1
 40
1
 40
1
 10
162.273536
 20
297.824224
 30
0.0
 10
162.273536
 20
297.824224
 30
0.0
 10
178.926904
 20
299.373376
 30
0.0
 10
180.476056
 20
300.147952
 30
0.0
  0
SPLINE
  5
108
100
AcDbEntity
  8
Layer_2
 62
3
100
AcDbSpline
 70
8
 71
3
 72
8
 73
4
 74
0
 40
0
 40
0
 40
0
 40
0
 40
1
 40
1
 40
1
 40
1
 10
180.476056
 20
300.147952
 30
0.0
 10
182.025208
 20
300.922520
 30
0.0
 10
190.158248
 20
305.182688
 30
0.0
 10
190.158248
 20
305.182688
 30
0.0
  0
LWPOLYLINE
  5
109
100
AcDbEntity
  8
Layer_2
 62
3
100
AcDbPolyline
 90
9
 70
1
 10
137.874416
 20
332.292824
 30
0.0
 10
128.192224
 20
328.807240
 30
0.0
 10
120.059176
 20
321.836056
 30
0.0
 10
118.122744
 20
311.766576
 30
0.0
 10
117.735456
 20
304.408112
 30
0.0
 10
123.544768
 20
297.824224
 30
0.0
 10
134.001536
 20
295.500496
 30
0.0
 10
149.105752
 20
295.887784
 30
0.0
 10
162.273536
 20
297.824224
 30
0.0
  0
LWPOLYLINE
  5
10a
100
AcDbEntity
  8
Layer_2
 62
3
100
AcDbPolyline
 90
7
 70
1
 10
190.158248
 20
305.182688
 30
0.0
 10
202.164168
 20
312.928440
 30
0.0
 10
200.615016
 20
328.032664
 30
0.0
 10
192.481976
 20
335.391128
 30
0.0
 10
178.539616
 20
338.489432
 30
0.0
 10
161.111672
 20
338.489432
 30
0.0
 10
156.464224
 20
338.489432
 30
0.0
  0
SPLINE
  5
10b
100
AcDbEntity
  8
Layer_2
 62
3
100
AcDbSpline
 70
8
 71
3
 72
8
 73
4
 74
0
 40
0
 40
0
 40
0
 40
0
 40
1
 40
1
 40
1
 40
1
 10
156.851512
 20
284.269152
 30
0.0
 10
156.851512
 20
284.269152
 30
0.0
 10
161.886248
 20
278.847128
 30
0.0
 10
163.822688
 20
278.072552
 30
0.0
  0
SPLINE
  5
10c
100
AcDbEntity
  8
Layer_2
 62
3
100
AcDbSpline
 70
8
 71
3
 72
8
 73
4
 74
0
 40
0
 40
0
 40
0
 40
0
 40
1
 40
1
 40
1
 40
1
 10
163.822688
 20
278.072552
 30
0.0
 10
165.759128
 20
277.297976
 30
0.0
 10
176.990464
 20
271.875952
 30
0.0
 10
176.990464
 20
271.875952
 30
0.0
  0
LWPOLYLINE
  5
10d
100
AcDbEntity
  8
Layer_2
 62
3
100
AcDbPolyline
 90
15
 70
1
 10
165.759128
 20
347.784336
 30
0.0
 10
141.747288
 20
340.425864
 30
0.0
 10
119.284608
 20
332.680112
 30
0.0
 10
103.018520
 20
326.483512
 30
0.0
 10
90.625320
 20
319.125048
 30
0.0
 10
86.365152
 20
314.864880
 30
0.0
 10
88.688880
 20
310.604712
 30
0.0
 10
98.371072
 20
306.344552
 30
0.0
 10
101.856656
 20
296.275072
 30
0.0
 10
107.665976
 20
293.564056
 30
0.0
 10
113.088000
 20
299.373376
 30
0.0
 10
121.608328
 20
292.402192
 30
0.0
 10
133.614248
 20
289.303896
 30
0.0
 10
147.556608
 20
285.431016
 30
0.0
 10
156.851512
 20
284.269152
 30
0.0
  0
SPLINE
  5
10e
100
AcDbEntity
  8
Layer_2
 62
3
100
AcDbSpline
 70
8
 71
3
 72
8
 73
4
 74
0
 40
0
 40
0
 40
0
 40
0
 40
1
 40
1
 40
1
 40
1
 10
227.337864
 20
279.621704
 30
0.0
 10
227.337864
 20
279.621704
 30
0.0
 10
252.511568
 20
281.170856
 30
0.0
 10
254.060712
 20
281.945424
 30
0.0
  0
SPLINE
  5
10f
100
AcDbEntity
  8
Layer_2
 62
3
100
AcDbSpline
 70
8
 71
3
 72
8
 73
4
 74
0
 40
0
 40
0
 40
0
 40
0
 40
1
 40
1
 40
1
 40
1
 10
254.060712
 20
281.945424
 30
0.0
 10
255.609864
 20
282.720000
 30
0.0
 10
278.459840
 20
285.431016
 30
0.0
 10
278.459840
 20
285.431016
 30
0.0
  0
LWPOLYLINE
  5
110
100
AcDbEntity
  8
Layer_2
 62
3
100
AcDbPolyline
 90
8
 70
1
 10
176.990464
 20
271.875952
 30
0.0
 10
181.250632
 20
272.650520
 30
0.0
 10
182.799784
 20
283.107288
 30
0.0
 10
181.637920
 20
288.529320
 30
0.0
 10
191.707400
 20
287.367456
 30
0.0
 10
203.713320
 20
284.269152
 30
0.0
 10
215.719232
 20
283.107288
 30
0.0
 10
227.337864
 20
279.621704
 30
0.0
  0
SPLINE
  5
111
100
AcDbEntity
  8
Layer_2
 62
3
100
AcDbSpline
 70
8
 71
3
 72
8
 73
4
 74
0
 40
0
 40
0
 40
0
 40
0
 40
1
 40
1
 40
1
 40
1
 10
546.075624
 20
393.484280
 30
0.0
 10
546.075624
 20
393.484280
 30
0.0
 10
536.393432
 20
404.328336
 30
0.0
 10
534.844280
 20
405.877480
 30
0.0
  0
SPLINE
  5
112
100
AcDbEntity
  8
Layer_2
 62
3
100
AcDbSpline
 70
8
 71
3
 72
8
 73
4
 74
0
 40
0
 40
0
 40
0
 40
0
 40
1
 40
1
 40
1
 40
1
 10
534.844280
 20
405.877480
 30
0.0
 10
533.295128
 20
407.426632
 30
0.0
 10
524.774800
 20
416.721536
 30
0.0
 10
524.774800
 20
416.721536
 30
0.0
  0
LWPOLYLINE
  5
113
100
AcDbEntity
  8
Layer_2
 62
3
100
AcDbPolyline
 90
64
 70
1
 10
278.459840
 20
285.431016
 30
0.0
 10
297.436936
 20
288.916608
 30
0.0
 10
335.003840
 20
288.529320
 30
0.0
 10
341.200440
 20
289.303896
 30
0.0
 10
347.009760
 20
280.783568
 30
0.0
 10
360.564824
 20
283.494576
 30
0.0
 10
363.275840
 20
286.592880
 30
0.0
 10
359.402960
 20
295.887784
 30
0.0
 10
358.628384
 20
299.760664
 30
0.0
 10
362.501264
 20
304.408112
 30
0.0
 10
364.824992
 20
298.986088
 30
0.0
 10
369.085152
 20
285.431016
 30
0.0
 10
377.992768
 20
282.332712
 30
0.0
 10
387.287672
 20
276.910688
 30
0.0
 10
383.027512
 20
296.662360
 30
0.0
 10
380.316496
 20
309.830144
 30
0.0
 10
383.027512
 20
317.963184
 30
0.0
 10
389.998688
 20
316.026744
 30
0.0
 10
393.484280
 20
303.633536
 30
0.0
 10
400.455456
 20
286.980168
 30
0.0
 10
406.652056
 20
279.621704
 30
0.0
 10
408.588496
 20
280.783568
 30
0.0
 10
408.201208
 20
288.529320
 30
0.0
 10
401.617320
 20
300.922520
 30
0.0
 10
398.131728
 20
316.026744
 30
0.0
 10
403.553760
 20
312.928440
 30
0.0
 10
406.264768
 20
301.309808
 30
0.0
 10
410.524936
 20
289.691184
 30
0.0
 10
410.524936
 20
282.332712
 30
0.0
 10
424.467296
 20
278.072552
 30
0.0
 10
432.600336
 20
278.459840
 30
0.0
 10
443.444392
 20
279.234416
 30
0.0
 10
441.507952
 20
287.754744
 30
0.0
 10
439.958800
 20
295.113208
 30
0.0
 10
446.155400
 20
283.494576
 30
0.0
 10
445.768112
 20
273.425096
 30
0.0
 10
450.415568
 20
271.488664
 30
0.0
 10
459.710472
 20
278.072552
 30
0.0
 10
462.421488
 20
286.592880
 30
0.0
 10
460.485048
 20
297.049648
 30
0.0
 10
465.519784
 20
299.373376
 30
0.0
 10
467.456224
 20
290.853048
 30
0.0
 10
470.167240
 20
285.818304
 30
0.0
 10
482.947728
 20
289.303896
 30
0.0
 10
489.918912
 20
290.853048
 30
0.0
 10
493.017208
 20
292.014904
 30
0.0
 10
487.207896
 20
304.020824
 30
0.0
 10
482.560440
 20
313.703016
 30
0.0
 10
486.433320
 20
315.639456
 30
0.0
 10
490.693488
 20
307.119128
 30
0.0
 10
494.953648
 20
295.113208
 30
0.0
 10
496.890088
 20
291.627616
 30
0.0
 10
510.057872
 20
295.887784
 30
0.0
 10
517.029048
 20
300.535240
 30
0.0
 10
529.034968
 20
305.182688
 30
0.0
 10
542.202744
 20
309.055568
 30
0.0
 10
553.046800
 20
314.090304
 30
0.0
 10
559.630688
 20
322.223344
 30
0.0
 10
565.052720
 20
329.969096
 30
0.0
 10
563.890856
 20
346.235184
 30
0.0
 10
560.792552
 20
361.339400
 30
0.0
 10
557.694256
 20
371.796168
 30
0.0
 10
551.497648
 20
382.252936
 30
0.0
 10
546.075624
 20
393.484280
 30
0.0
  0
SPLINE
  5
114
100
AcDbEntity
  8
Layer_2
 62
3
100
AcDbSpline
 70
8
 71
3
 72
8
 73
4
 74
0
 40
0
 40
0
 40
0
 40
0
 40
1
 40
1
 40
1
 40
1
 10
455.063016
 20
436.085920
 30
0.0
 10
455.063016
 20
436.085920
 30
0.0
 10
435.698632
 20
437.247784
 30
0.0
 10
434.149488
 20
436.860496
 30
0.0
  0
SPLINE
  5
115
100
AcDbEntity
  8
Layer_2
 62
3
100
AcDbSpline
 70
8
 71
3
 72
8
 73
4
 74
0
 40
0
 40
0
 40
0
 40
0
 40
1
 40
1
 40
1
 40
1
 10
434.149488
 20
436.860496
 30
0.0
 10
432.600336
 20
436.473208
 30
0.0
 10
409.363072
 20
433.374912
 30
0.0
 10
409.363072
 20
433.374912
 30
0.0
  0
LWPOLYLINE
  5
116
100
AcDbEntity
  8
Layer_2
 62
3
100
AcDbPolyline
 90
5
 70
1
 10
524.774800
 20
416.721536
 30
0.0
 10
510.832440
 20
424.854576
 30
0.0
 10
492.629920
 20
429.889320
 30
0.0
 10
474.814688
 20
433.374912
 30
0.0
 10
455.063016
 20
436.085920
 30
0.0
  0
SPLINE
  5
117
100
AcDbEntity
  8
Layer_2
 62
3
100
AcDbSpline
 70
8
 71
3
 72
8
 73
4
 74
0
 40
0
 40
0
 40
0
 40
0
 40
1
 40
1
 40
1
 40
1
 10
125.481208
 20
292.789480
 30
0.0
 10
124.319344
 20
292.014904
 30
0.0
 10
150.654904
 20
294.338632
 30
0.0
 10
150.654904
 20
294.338632
 30
0.0
  0
LWPOLYLINE
  5
118
100
AcDbEntity
  8
Layer_2
 62
3
100
AcDbPolyline
 90
11
 70
1
 10
409.363072
 20
433.374912
 30
0.0
 10
386.900384
 20
430.276608
 30
0.0
 10
356.691952
 20
422.918144
 30
0.0
 10
329.581808
 20
413.623240
 30
0.0
 10
300.535240
 20
403.941048
 30
0.0
 10
278.459840
 20
395.033432
 30
0.0
 10
249.413264
 20
382.252936
 30
0.0
 10
228.499728
 20
369.472440
 30
0.0
 10
208.748056
 20
359.402960
 30
0.0
 10
191.320112
 20
353.593648
 30
0.0
 10
165.759128
 20
347.784336
 30
0.0
  0
LWPOLYLINE
  5
119
100
AcDbEntity
  8
Layer_2
 62
3
100
AcDbPolyline
 90
41
 70
1
 10
150.654904
 20
294.338632
 30
0.0
 10
170.019288
 20
296.275072
 30
0.0
 10
189.770960
 20
300.535240
 30
0.0
 10
207.973480
 20
309.055568
 30
0.0
 10
220.366688
 20
320.674192
 30
0.0
 10
233.921752
 20
336.165704
 30
0.0
 10
242.442088
 20
347.397048
 30
0.0
 10
259.095456
 20
359.790248
 30
0.0
 10
282.332712
 20
370.247016
 30
0.0
 10
302.858960
 20
379.154632
 30
0.0
 10
322.997920
 20
388.836824
 30
0.0
 10
349.720768
 20
398.519016
 30
0.0
 10
369.472440
 20
403.553760
 30
0.0
 10
394.646144
 20
410.524936
 30
0.0
 10
417.108824
 20
414.785104
 30
0.0
 10
443.057104
 20
412.848664
 30
0.0
 10
467.068936
 20
412.848664
 30
0.0
 10
477.525704
 20
422.530856
 30
0.0
 10
479.462144
 20
430.663896
 30
0.0
 10
465.907072
 20
434.149488
 30
0.0
 10
439.571512
 20
436.473208
 30
0.0
 10
410.912224
 20
433.374912
 30
0.0
 10
379.929208
 20
429.114744
 30
0.0
 10
343.911456
 20
419.045264
 30
0.0
 10
302.858960
 20
403.941048
 30
0.0
 10
263.355616
 20
388.062248
 30
0.0
 10
245.540384
 20
380.316496
 30
0.0
 10
227.725152
 20
368.697864
 30
0.0
 10
208.748056
 20
359.015672
 30
0.0
 10
181.250632
 20
351.269920
 30
0.0
 10
156.851512
 20
344.686032
 30
0.0
 10
130.515944
 20
336.165704
 30
0.0
 10
104.954960
 20
326.870800
 30
0.0
 10
88.688880
 20
317.575896
 30
0.0
 10
87.527016
 20
310.604712
 30
0.0
 10
99.145648
 20
305.569976
 30
0.0
 10
103.018520
 20
295.113208
 30
0.0
 10
108.053264
 20
293.176768
 30
0.0
 10
113.862576
 20
299.760664
 30
0.0
 10
123.932056
 20
291.240328
 30
0.0
 10
125.481208
 20
292.789480
 30
0.0
  0
LWPOLYLINE
  5
11a
100
AcDbEntity
  8
Layer_3
 62
3
100
AcDbPolyline
 90
15
 70
1
 10
159.175232
 20
155.302360
 30
0.0
 10
142.909152
 20
153.365920
 30
0.0
 10
130.128656
 20
146.782032
 30
0.0
 10
121.608328
 20
136.712552
 30
0.0
 10
112.313424
 20
124.706632
 30
0.0
 10
111.538848
 20
111.926136
 30
0.0
 10
115.799016
 20
101.469368
 30
0.0
 10
130.128656
 20
95.660056
 30
0.0
 10
144.458304
 20
98.371072
 30
0.0
 10
165.759128
 20
107.665976
 30
0.0
 10
180.088768
 20
119.284608
 30
0.0
 10
190.158248
 20
128.966792
 30
0.0
 10
188.996384
 20
146.394744
 30
0.0
 10
174.279456
 20
153.365920
 30
0.0
 10
159.175232
 20
155.302360
 30
0.0
  0
SPLINE
  5
11b
100
AcDbEntity
  8
Layer_3
 62
3
100
AcDbSpline
 70
8
 71
3
 72
8
 73
4
 74
0
 40
0
 40
0
 40
0
 40
0
 40
1
 40
1
 40
1
 40
1
 10
476.751128
 20
97.983784
 30
0.0
 10
476.751128
 20
97.983784
 30
0.0
 10
484.884168
 20
89.850744
 30
0.0
 10
486.433320
 20
90.625320
 30
0.0
  0
SPLINE
  5
11c
100
AcDbEntity
  8
Layer_3
 62
3
100
AcDbSpline
 70
8
 71
3
 72
8
 73
4
 74
0
 40
0
 40
0
 40
0
 40
0
 40
1
 40
1
 40
1
 40
1
 10
486.433320
 20
90.625320
 30
0.0
 10
487.982472
 20
91.399888
 30
0.0
 10
503.861264
 20
89.850744
 30
0.0
 10
503.861264
 20
89.850744
 30
0.0
  0
LWPOLYLINE
  5
11d
100
AcDbEntity
  8
Layer_3
 62
3
100
AcDbPolyline
 90
31
 70
1
 10
149.880328
 20
159.949808
 30
0.0
 10
131.290520
 20
156.076936
 30
0.0
 10
120.059176
 20
148.331176
 30
0.0
 10
108.053264
 20
135.937976
 30
0.0
 10
97.596496
 20
125.481208
 30
0.0
 10
87.527016
 20
115.411728
 30
0.0
 10
83.654136
 20
108.827840
 30
0.0
 10
81.717696
 20
105.342248
 30
0.0
 10
87.914304
 20
101.856656
 30
0.0
 10
95.660056
 20
106.891400
 30
0.0
 10
100.307504
 20
108.440552
 30
0.0
 10
103.405808
 20
100.694792
 30
0.0
 10
103.793096
 20
91.399888
 30
0.0
 10
109.602416
 20
85.977864
 30
0.0
 10
114.637152
 20
93.336328
 30
0.0
 10
131.290520
 20
91.012600
 30
0.0
 10
151.816768
 20
91.787176
 30
0.0
 10
175.441320
 20
97.596496
 30
0.0
 10
195.580280
 20
103.018520
 30
0.0
 10
222.690416
 20
109.215128
 30
0.0
 10
242.054800
 20
116.186304
 30
0.0
 10
263.355616
 20
123.932056
 30
0.0
 10
287.367456
 20
128.192224
 30
0.0
 10
314.090304
 20
133.614248
 30
0.0
 10
336.165704
 20
133.614248
 30
0.0
 10
361.339400
 20
129.354080
 30
0.0
 10
388.449536
 20
121.995616
 30
0.0
 10
414.785104
 20
115.411728
 30
0.0
 10
441.120664
 20
106.116824
 30
0.0
 10
462.421488
 20
99.145648
 30
0.0
 10
476.751128
 20
97.983784
 30
0.0
  0
SPLINE
  5
11e
100
AcDbEntity
  8
Layer_3
 62
3
100
AcDbSpline
 70
8
 71
3
 72
8
 73
4
 74
0
 40
0
 40
0
 40
0
 40
0
 40
1
 40
1
 40
1
 40
1
 10
116.573592
 20
94.110904
 30
0.0
 10
116.573592
 20
94.110904
 30
0.0
 10
132.065096
 20
93.723616
 30
0.0
 10
133.614248
 20
93.723616
 30
0.0
  0
SPLINE
  5
11f
100
AcDbEntity
  8
Layer_3
 62
3
100
AcDbSpline
 70
8
 71
3
 72
8
 73
4
 74
0
 40
0
 40
0
 40
0
 40
0
 40
1
 40
1
 40
1
 40
1
 10
133.614248
 20
93.723616
 30
0.0
 10
135.163400
 20
93.723616
 30
0.0
 10
149.880328
 20
96.434632
 30
0.0
 10
151.429480
 20
96.821920
 30
0.0
  0
SPLINE
  5
120
100
AcDbEntity
  8
Layer_3
 62
3
100
AcDbSpline
 70
8
 71
3
 72
8
 73
4
 74
0
 40
0
 40
0
 40
0
 40
0
 40
1
 40
1
 40
1
 40
1
 10
151.429480
 20
96.821920
 30
0.0
 10
152.978632
 20
97.209208
 30
0.0
 10
169.244712
 20
103.405808
 30
0.0
 10
169.244712
 20
103.405808
 30
0.0
  0
LWPOLYLINE
  5
121
100
AcDbEntity
  8
Layer_3
 62
3
100
AcDbPolyline
 90
38
 70
1
 10
503.861264
 20
89.850744
 30
0.0
 10
509.670584
 20
91.787176
 30
0.0
 10
515.092608
 20
87.527016
 30
0.0
 10
525.549376
 20
87.527016
 30
0.0
 10
532.520552
 20
92.174464
 30
0.0
 10
535.231568
 20
96.821920
 30
0.0
 10
544.526472
 20
101.082080
 30
0.0
 10
551.110360
 20
105.342248
 30
0.0
 10
563.116280
 20
114.637152
 30
0.0
 10
570.087456
 20
121.995616
 30
0.0
 10
570.862032
 20
130.128656
 30
0.0
 10
572.023896
 20
132.452384
 30
0.0
 10
577.833208
 20
126.643072
 30
0.0
 10
585.966256
 20
125.868496
 30
0.0
 10
596.035736
 20
128.192224
 30
0.0
 10
603.781488
 20
137.099840
 30
0.0
 10
605.330640
 20
146.394744
 30
0.0
 10
600.295896
 20
158.400656
 30
0.0
 10
591.775568
 20
170.019288
 30
0.0
 10
573.185760
 20
184.736224
 30
0.0
 10
555.370528
 20
194.031128
 30
0.0
 10
535.618856
 20
206.424328
 30
0.0
 10
515.092608
 20
214.944656
 30
0.0
 10
493.017208
 20
221.141264
 30
0.0
 10
473.265536
 20
225.788712
 30
0.0
 10
448.091840
 20
228.887016
 30
0.0
 10
423.692720
 20
229.274304
 30
0.0
 10
400.068168
 20
228.112440
 30
0.0
 10
377.605480
 20
225.014136
 30
0.0
 10
348.558904
 20
219.204824
 30
0.0
 10
322.997920
 20
212.620936
 30
0.0
 10
292.014904
 20
203.326032
 30
0.0
 10
265.679344
 20
194.418416
 30
0.0
 10
239.731072
 20
185.898088
 30
0.0
 10
216.106520
 20
176.990464
 30
0.0
 10
194.418416
 20
171.181152
 30
0.0
 10
173.117592
 20
165.371840
 30
0.0
 10
149.880328
 20
159.949808
 30
0.0
  0
SPLINE
  5
122
100
AcDbEntity
  8
Layer_3
 62
3
100
AcDbSpline
 70
8
 71
3
 72
8
 73
4
 74
0
 40
0
 40
0
 40
0
 40
0
 40
1
 40
1
 40
1
 40
1
 10
265.679344
 20
168.857424
 30
0.0
 10
265.679344
 20
168.857424
 30
0.0
 10
287.754744
 20
178.926904
 30
0.0
 10
289.303896
 20
179.314192
 30
0.0
  0
SPLINE
  5
123
100
AcDbEntity
  8
Layer_3
 62
3
100
AcDbSpline
 70
8
 71
3
 72
8
 73
4
 74
0
 40
0
 40
0
 40
0
 40
0
 40
1
 40
1
 40
1
 40
1
 10
289.303896
 20
179.314192
 30
0.0
 10
290.853048
 20
179.701480
 30
0.0
 10
325.321648
 20
187.834520
 30
0.0
 10
325.321648
 20
187.834520
 30
0.0
  0
SPLINE
  5
124
100
AcDbEntity
  8
Layer_3
 62
3
100
AcDbSpline
 70
8
 71
3
 72
8
 73
4
 74
0
 40
0
 40
0
 40
0
 40
0
 40
1
 40
1
 40
1
 40
1
 10
325.321648
 20
187.834520
 30
0.0
 10
325.321648
 20
187.834520
 30
0.0
 10
346.622472
 20
197.904000
 30
0.0
 10
348.171624
 20
198.291288
 30
0.0
  0
SPLINE
  5
125
100
AcDbEntity
  8
Layer_3
 62
3
100
AcDbSpline
 70
8
 71
3
 72
8
 73
4
 74
0
 40
0
 40
0
 40
0
 40
0
 40
1
 40
1
 40
1
 40
1
 10
348.171624
 20
198.291288
 30
0.0
 10
349.720768
 20
198.678576
 30
0.0
 10
377.992768
 20
205.649752
 30
0.0
 10
377.992768
 20
205.649752
 30
0.0
  0
LWPOLYLINE
  5
126
100
AcDbEntity
  8
Layer_3
 62
3
100
AcDbPolyline
 90
7
 70
1
 10
169.244712
 20
103.405808
 30
0.0
 10
183.187072
 20
111.538848
 30
0.0
 10
197.516712
 20
124.706632
 30
0.0
 10
210.297208
 20
140.198136
 30
0.0
 10
223.077704
 20
152.204056
 30
0.0
 10
246.314960
 20
161.111672
 30
0.0
 10
265.679344
 20
168.857424
 30
0.0
  0
LWPOLYLINE
  5
127
100
AcDbEntity
  8
Layer_3
 62
3
100
AcDbPolyline
 90
31
 70
1
 10
377.992768
 20
205.649752
 30
0.0
 10
406.652056
 20
209.135344
 30
0.0
 10
427.952880
 20
210.297208
 30
0.0
 10
450.415568
 20
208.748056
 30
0.0
 10
465.907072
 20
204.875184
 30
0.0
 10
481.785872
 20
207.198904
 30
0.0
 10
489.918912
 20
213.395512
 30
0.0
 10
487.595184
 20
221.915840
 30
0.0
 10
470.554528
 20
226.176000
 30
0.0
 10
442.282528
 20
229.274304
 30
0.0
 10
407.426632
 20
228.887016
 30
0.0
 10
380.316496
 20
225.788712
 30
0.0
 10
349.720768
 20
219.979400
 30
0.0
 10
317.188608
 20
211.071784
 30
0.0
 10
285.431016
 20
201.776880
 30
0.0
 10
255.222576
 20
190.545536
 30
0.0
 10
228.112440
 20
181.250632
 30
0.0
 10
209.522632
 20
174.666744
 30
0.0
 10
180.476056
 20
166.920992
 30
0.0
 10
156.851512
 20
161.886248
 30
0.0
 10
132.065096
 20
156.851512
 30
0.0
 10
117.735456
 20
146.782032
 30
0.0
 10
99.145648
 20
126.255784
 30
0.0
 10
88.688880
 20
116.573592
 30
0.0
 10
81.330408
 20
105.342248
 30
0.0
 10
87.914304
 20
101.469368
 30
0.0
 10
96.047344
 20
106.504112
 30
0.0
 10
100.694792
 20
109.215128
 30
0.0
 10
102.243944
 20
101.469368
 30
0.0
 10
104.567672
 20
92.949040
 30
0.0
 10
116.573592
 20
94.110904
 30
0.0
  0
ENDSEC
  0
SECTION
  2
OBJECTS
  0
DICTIONARY
  5
C
330
0
100
AcDbDictionary
  3
ACAD_GROUP
350
D
  3
ACAD_MLINESTYLE
350
17
  0
DICTIONARY
  5
D
330
C
100
AcDbDictionary
  0
DICTIONARY
  5
1A
330
C
100
AcDbDictionary
  0
DICTIONARY
  5
17
330
C
100
AcDbDictionary
  3
STANDARD
350
18
  0
DICTIONARY
  5
19
330
C
100
AcDbDictionary
  0
ENDSEC
  0
EOF
