G04 start of page 8 for group -3984 idx -3984 *
G04 Title: (unknown), fab *
G04 Creator: pcb 20140316 *
G04 CreationDate: Wed Mar 11 08:06:14 2015 UTC *
G04 For: frankenteddy *
G04 Format: Gerber/RS-274X *
G04 PCB-Dimensions (mil): 1889.76 1771.65 *
G04 PCB-Coordinate-Origin: lower left *
%MOIN*%
%FSLAX25Y25*%
%LNFAB*%
%ADD45C,0.0100*%
%ADD44C,0.0075*%
%ADD43C,0.0060*%
%ADD42C,0.0001*%
%ADD41R,0.0080X0.0080*%
G54D41*X169000Y22165D02*Y20565D01*
G54D42*G36*
X168454Y22312D02*X170533Y23512D01*
X170933Y22819D01*
X168853Y21619D01*
X168454Y22312D01*
G37*
G36*
X169147Y21619D02*X167067Y22819D01*
X167467Y23512D01*
X169546Y22312D01*
X169147Y21619D01*
G37*
G54D41*X169000Y152165D02*Y150565D01*
G54D42*G36*
X168454Y152312D02*X170533Y153512D01*
X170933Y152819D01*
X168853Y151619D01*
X168454Y152312D01*
G37*
G36*
X169147Y151619D02*X167067Y152819D01*
X167467Y153512D01*
X169546Y152312D01*
X169147Y151619D01*
G37*
G54D41*X15000Y233415D02*Y231815D01*
G54D42*G36*
X14454Y233562D02*X16533Y234762D01*
X16933Y234069D01*
X14853Y232869D01*
X14454Y233562D01*
G37*
G36*
X15147Y232869D02*X13067Y234069D01*
X13467Y234762D01*
X15546Y233562D01*
X15147Y232869D01*
G37*
G54D43*X135000Y235665D02*X136500Y232665D01*
X138000Y235665D01*
X136500Y232665D02*Y229665D01*
X139800Y232965D02*X142050D01*
X139800Y229665D02*X142800D01*
X139800Y235665D02*Y229665D01*
Y235665D02*X142800D01*
X147600D02*X148350Y234915D01*
X145350Y235665D02*X147600D01*
X144600Y234915D02*X145350Y235665D01*
X144600Y234915D02*Y233415D01*
X145350Y232665D01*
X147600D01*
X148350Y231915D01*
Y230415D01*
X147600Y229665D02*X148350Y230415D01*
X145350Y229665D02*X147600D01*
X144600Y230415D02*X145350Y229665D01*
X98000Y234915D02*X98750Y235665D01*
X101000D01*
X101750Y234915D01*
Y233415D01*
X98000Y229665D02*X101750Y233415D01*
X98000Y229665D02*X101750D01*
X45000Y230415D02*X45750Y229665D01*
X45000Y234915D02*Y230415D01*
Y234915D02*X45750Y235665D01*
X47250D01*
X48000Y234915D01*
Y230415D01*
X47250Y229665D02*X48000Y230415D01*
X45750Y229665D02*X47250D01*
X45000Y231165D02*X48000Y234165D01*
X49800Y229665D02*X50550D01*
X52350Y234465D02*X53550Y235665D01*
Y229665D01*
X52350D02*X54600D01*
X57150D02*X60150Y235665D01*
X56400D02*X60150D01*
X61950Y230415D02*X62700Y229665D01*
X61950Y231615D02*Y230415D01*
Y231615D02*X63000Y232665D01*
X63900D01*
X64950Y231615D01*
Y230415D01*
X64200Y229665D02*X64950Y230415D01*
X62700Y229665D02*X64200D01*
X61950Y233715D02*X63000Y232665D01*
X61950Y234915D02*Y233715D01*
Y234915D02*X62700Y235665D01*
X64200D01*
X64950Y234915D01*
Y233715D01*
X63900Y232665D02*X64950Y233715D01*
X3000Y250665D02*X3750Y249915D01*
X750Y250665D02*X3000D01*
X0Y249915D02*X750Y250665D01*
X0Y249915D02*Y248415D01*
X750Y247665D01*
X3000D01*
X3750Y246915D01*
Y245415D01*
X3000Y244665D02*X3750Y245415D01*
X750Y244665D02*X3000D01*
X0Y245415D02*X750Y244665D01*
X5550Y247665D02*Y245415D01*
X6300Y244665D01*
X8550Y247665D02*Y243165D01*
X7800Y242415D02*X8550Y243165D01*
X6300Y242415D02*X7800D01*
X5550Y243165D02*X6300Y242415D01*
Y244665D02*X7800D01*
X8550Y245415D01*
X11100Y246915D02*Y244665D01*
Y246915D02*X11850Y247665D01*
X12600D01*
X13350Y246915D01*
Y244665D01*
Y246915D02*X14100Y247665D01*
X14850D01*
X15600Y246915D01*
Y244665D01*
X10350Y247665D02*X11100Y246915D01*
X17400Y250665D02*Y244665D01*
Y245415D02*X18150Y244665D01*
X19650D01*
X20400Y245415D01*
Y246915D02*Y245415D01*
X19650Y247665D02*X20400Y246915D01*
X18150Y247665D02*X19650D01*
X17400Y246915D02*X18150Y247665D01*
X22200Y246915D02*Y245415D01*
Y246915D02*X22950Y247665D01*
X24450D01*
X25200Y246915D01*
Y245415D01*
X24450Y244665D02*X25200Y245415D01*
X22950Y244665D02*X24450D01*
X22200Y245415D02*X22950Y244665D01*
X27000Y250665D02*Y245415D01*
X27750Y244665D01*
X0Y241415D02*X29250D01*
X41750Y250665D02*Y244665D01*
X43700Y250665D02*X44750Y249615D01*
Y245715D01*
X43700Y244665D02*X44750Y245715D01*
X41000Y244665D02*X43700D01*
X41000Y250665D02*X43700D01*
G54D44*X46550Y249165D02*Y249015D01*
G54D43*Y246915D02*Y244665D01*
X50300Y247665D02*X51050Y246915D01*
X48800Y247665D02*X50300D01*
X48050Y246915D02*X48800Y247665D01*
X48050Y246915D02*Y245415D01*
X48800Y244665D01*
X51050Y247665D02*Y245415D01*
X51800Y244665D01*
X48800D02*X50300D01*
X51050Y245415D01*
X54350Y246915D02*Y244665D01*
Y246915D02*X55100Y247665D01*
X55850D01*
X56600Y246915D01*
Y244665D01*
Y246915D02*X57350Y247665D01*
X58100D01*
X58850Y246915D01*
Y244665D01*
X53600Y247665D02*X54350Y246915D01*
X60650Y244665D02*X61400D01*
X65900Y245415D02*X66650Y244665D01*
X65900Y249915D02*X66650Y250665D01*
X65900Y249915D02*Y245415D01*
X68450Y250665D02*X69950D01*
X69200D02*Y244665D01*
X68450D02*X69950D01*
X72500Y246915D02*Y244665D01*
Y246915D02*X73250Y247665D01*
X74000D01*
X74750Y246915D01*
Y244665D01*
X71750Y247665D02*X72500Y246915D01*
X77300Y247665D02*X79550D01*
X76550Y246915D02*X77300Y247665D01*
X76550Y246915D02*Y245415D01*
X77300Y244665D01*
X79550D01*
X81350Y250665D02*Y244665D01*
Y246915D02*X82100Y247665D01*
X83600D01*
X84350Y246915D01*
Y244665D01*
X86150Y250665D02*X86900Y249915D01*
Y245415D01*
X86150Y244665D02*X86900Y245415D01*
X41000Y241415D02*X88700D01*
X96050Y244665D02*X98000D01*
X95000Y245715D02*X96050Y244665D01*
X95000Y249615D02*Y245715D01*
Y249615D02*X96050Y250665D01*
X98000D01*
X99800Y246915D02*Y245415D01*
Y246915D02*X100550Y247665D01*
X102050D01*
X102800Y246915D01*
Y245415D01*
X102050Y244665D02*X102800Y245415D01*
X100550Y244665D02*X102050D01*
X99800Y245415D02*X100550Y244665D01*
X104600Y247665D02*Y245415D01*
X105350Y244665D01*
X106850D01*
X107600Y245415D01*
Y247665D02*Y245415D01*
X110150Y246915D02*Y244665D01*
Y246915D02*X110900Y247665D01*
X111650D01*
X112400Y246915D01*
Y244665D01*
X109400Y247665D02*X110150Y246915D01*
X114950Y250665D02*Y245415D01*
X115700Y244665D01*
X114200Y248415D02*X115700D01*
X95000Y241415D02*X117200D01*
X130750Y250665D02*Y244665D01*
X130000Y250665D02*X133000D01*
X133750Y249915D01*
Y248415D01*
X133000Y247665D02*X133750Y248415D01*
X130750Y247665D02*X133000D01*
X135550Y250665D02*Y245415D01*
X136300Y244665D01*
X140050Y247665D02*X140800Y246915D01*
X138550Y247665D02*X140050D01*
X137800Y246915D02*X138550Y247665D01*
X137800Y246915D02*Y245415D01*
X138550Y244665D01*
X140800Y247665D02*Y245415D01*
X141550Y244665D01*
X138550D02*X140050D01*
X140800Y245415D01*
X144100Y250665D02*Y245415D01*
X144850Y244665D01*
X143350Y248415D02*X144850D01*
X147100Y244665D02*X149350D01*
X146350Y245415D02*X147100Y244665D01*
X146350Y246915D02*Y245415D01*
Y246915D02*X147100Y247665D01*
X148600D01*
X149350Y246915D01*
X146350Y246165D02*X149350D01*
Y246915D02*Y246165D01*
X154150Y250665D02*Y244665D01*
X153400D02*X154150Y245415D01*
X151900Y244665D02*X153400D01*
X151150Y245415D02*X151900Y244665D01*
X151150Y246915D02*Y245415D01*
Y246915D02*X151900Y247665D01*
X153400D01*
X154150Y246915D01*
X157450Y247665D02*Y246915D01*
Y245415D02*Y244665D01*
X155950Y249915D02*Y249165D01*
Y249915D02*X156700Y250665D01*
X158200D01*
X158950Y249915D01*
Y249165D01*
X157450Y247665D02*X158950Y249165D01*
X130000Y241415D02*X160750D01*
X0Y265665D02*X3000D01*
X1500D02*Y259665D01*
X4800Y265665D02*Y259665D01*
Y261915D02*X5550Y262665D01*
X7050D01*
X7800Y261915D01*
Y259665D01*
X10350D02*X12600D01*
X9600Y260415D02*X10350Y259665D01*
X9600Y261915D02*Y260415D01*
Y261915D02*X10350Y262665D01*
X11850D01*
X12600Y261915D01*
X9600Y261165D02*X12600D01*
Y261915D02*Y261165D01*
X15150Y261915D02*Y259665D01*
Y261915D02*X15900Y262665D01*
X17400D01*
X14400D02*X15150Y261915D01*
X19950Y259665D02*X22200D01*
X19200Y260415D02*X19950Y259665D01*
X19200Y261915D02*Y260415D01*
Y261915D02*X19950Y262665D01*
X21450D01*
X22200Y261915D01*
X19200Y261165D02*X22200D01*
Y261915D02*Y261165D01*
X28950Y262665D02*X29700Y261915D01*
X27450Y262665D02*X28950D01*
X26700Y261915D02*X27450Y262665D01*
X26700Y261915D02*Y260415D01*
X27450Y259665D01*
X29700Y262665D02*Y260415D01*
X30450Y259665D01*
X27450D02*X28950D01*
X29700Y260415D01*
X33000Y261915D02*Y259665D01*
Y261915D02*X33750Y262665D01*
X35250D01*
X32250D02*X33000Y261915D01*
X37800Y259665D02*X40050D01*
X37050Y260415D02*X37800Y259665D01*
X37050Y261915D02*Y260415D01*
Y261915D02*X37800Y262665D01*
X39300D01*
X40050Y261915D01*
X37050Y261165D02*X40050D01*
Y261915D02*Y261165D01*
X44550Y264465D02*X45750Y265665D01*
Y259665D01*
X44550D02*X46800D01*
X54300Y265665D02*Y259665D01*
X53550D02*X54300Y260415D01*
X52050Y259665D02*X53550D01*
X51300Y260415D02*X52050Y259665D01*
X51300Y261915D02*Y260415D01*
Y261915D02*X52050Y262665D01*
X53550D01*
X54300Y261915D01*
G54D44*X56100Y264165D02*Y264015D01*
G54D43*Y261915D02*Y259665D01*
X58350Y264915D02*Y259665D01*
Y264915D02*X59100Y265665D01*
X59850D01*
X57600Y262665D02*X59100D01*
X62100Y264915D02*Y259665D01*
Y264915D02*X62850Y265665D01*
X63600D01*
X61350Y262665D02*X62850D01*
X65850Y259665D02*X68100D01*
X65100Y260415D02*X65850Y259665D01*
X65100Y261915D02*Y260415D01*
Y261915D02*X65850Y262665D01*
X67350D01*
X68100Y261915D01*
X65100Y261165D02*X68100D01*
Y261915D02*Y261165D01*
X70650Y261915D02*Y259665D01*
Y261915D02*X71400Y262665D01*
X72900D01*
X69900D02*X70650Y261915D01*
X75450Y259665D02*X77700D01*
X74700Y260415D02*X75450Y259665D01*
X74700Y261915D02*Y260415D01*
Y261915D02*X75450Y262665D01*
X76950D01*
X77700Y261915D01*
X74700Y261165D02*X77700D01*
Y261915D02*Y261165D01*
X80250Y261915D02*Y259665D01*
Y261915D02*X81000Y262665D01*
X81750D01*
X82500Y261915D01*
Y259665D01*
X79500Y262665D02*X80250Y261915D01*
X85050Y265665D02*Y260415D01*
X85800Y259665D01*
X84300Y263415D02*X85800D01*
X93000Y265665D02*Y259665D01*
X92250D02*X93000Y260415D01*
X90750Y259665D02*X92250D01*
X90000Y260415D02*X90750Y259665D01*
X90000Y261915D02*Y260415D01*
Y261915D02*X90750Y262665D01*
X92250D01*
X93000Y261915D01*
X95550D02*Y259665D01*
Y261915D02*X96300Y262665D01*
X97800D01*
X94800D02*X95550Y261915D01*
G54D44*X99600Y264165D02*Y264015D01*
G54D43*Y261915D02*Y259665D01*
X101100Y265665D02*Y260415D01*
X101850Y259665D01*
X103350Y265665D02*Y260415D01*
X104100Y259665D01*
X109050D02*X111300D01*
X112050Y260415D01*
X111300Y261165D02*X112050Y260415D01*
X109050Y261165D02*X111300D01*
X108300Y261915D02*X109050Y261165D01*
X108300Y261915D02*X109050Y262665D01*
X111300D01*
X112050Y261915D01*
X108300Y260415D02*X109050Y259665D01*
G54D44*X113850Y264165D02*Y264015D01*
G54D43*Y261915D02*Y259665D01*
X115350Y262665D02*X118350D01*
X115350Y259665D02*X118350Y262665D01*
X115350Y259665D02*X118350D01*
X120900D02*X123150D01*
X120150Y260415D02*X120900Y259665D01*
X120150Y261915D02*Y260415D01*
Y261915D02*X120900Y262665D01*
X122400D01*
X123150Y261915D01*
X120150Y261165D02*X123150D01*
Y261915D02*Y261165D01*
X125700Y259665D02*X127950D01*
X128700Y260415D01*
X127950Y261165D02*X128700Y260415D01*
X125700Y261165D02*X127950D01*
X124950Y261915D02*X125700Y261165D01*
X124950Y261915D02*X125700Y262665D01*
X127950D01*
X128700Y261915D01*
X124950Y260415D02*X125700Y259665D01*
X133200Y262665D02*Y260415D01*
X133950Y259665D01*
X135450D01*
X136200Y260415D01*
Y262665D02*Y260415D01*
X138750Y259665D02*X141000D01*
X141750Y260415D01*
X141000Y261165D02*X141750Y260415D01*
X138750Y261165D02*X141000D01*
X138000Y261915D02*X138750Y261165D01*
X138000Y261915D02*X138750Y262665D01*
X141000D01*
X141750Y261915D01*
X138000Y260415D02*X138750Y259665D01*
X144300D02*X146550D01*
X143550Y260415D02*X144300Y259665D01*
X143550Y261915D02*Y260415D01*
Y261915D02*X144300Y262665D01*
X145800D01*
X146550Y261915D01*
X143550Y261165D02*X146550D01*
Y261915D02*Y261165D01*
X151350Y265665D02*Y259665D01*
X150600D02*X151350Y260415D01*
X149100Y259665D02*X150600D01*
X148350Y260415D02*X149100Y259665D01*
X148350Y261915D02*Y260415D01*
Y261915D02*X149100Y262665D01*
X150600D01*
X151350Y261915D01*
G54D44*X155850Y264165D02*Y264015D01*
G54D43*Y261915D02*Y259665D01*
X158100Y261915D02*Y259665D01*
Y261915D02*X158850Y262665D01*
X159600D01*
X160350Y261915D01*
Y259665D01*
X157350Y262665D02*X158100Y261915D01*
X165600Y265665D02*Y260415D01*
X166350Y259665D01*
X164850Y263415D02*X166350D01*
X167850Y265665D02*Y259665D01*
Y261915D02*X168600Y262665D01*
X170100D01*
X170850Y261915D01*
Y259665D01*
G54D44*X172650Y264165D02*Y264015D01*
G54D43*Y261915D02*Y259665D01*
X174900D02*X177150D01*
X177900Y260415D01*
X177150Y261165D02*X177900Y260415D01*
X174900Y261165D02*X177150D01*
X174150Y261915D02*X174900Y261165D01*
X174150Y261915D02*X174900Y262665D01*
X177150D01*
X177900Y261915D01*
X174150Y260415D02*X174900Y259665D01*
X182400Y265665D02*Y260415D01*
X183150Y259665D01*
X186900Y262665D02*X187650Y261915D01*
X185400Y262665D02*X186900D01*
X184650Y261915D02*X185400Y262665D01*
X184650Y261915D02*Y260415D01*
X185400Y259665D01*
X187650Y262665D02*Y260415D01*
X188400Y259665D01*
X185400D02*X186900D01*
X187650Y260415D01*
X190200Y262665D02*Y260415D01*
X190950Y259665D01*
X193200Y262665D02*Y258165D01*
X192450Y257415D02*X193200Y258165D01*
X190950Y257415D02*X192450D01*
X190200Y258165D02*X190950Y257415D01*
Y259665D02*X192450D01*
X193200Y260415D01*
X195000Y261915D02*Y260415D01*
Y261915D02*X195750Y262665D01*
X197250D01*
X198000Y261915D01*
Y260415D01*
X197250Y259665D02*X198000Y260415D01*
X195750Y259665D02*X197250D01*
X195000Y260415D02*X195750Y259665D01*
X199800Y262665D02*Y260415D01*
X200550Y259665D01*
X202050D01*
X202800Y260415D01*
Y262665D02*Y260415D01*
X205350Y265665D02*Y260415D01*
X206100Y259665D01*
X204600Y263415D02*X206100D01*
X207600Y258165D02*X209100Y259665D01*
X213600Y264915D02*X214350Y265665D01*
X216600D01*
X217350Y264915D01*
Y263415D01*
X213600Y259665D02*X217350Y263415D01*
X213600Y259665D02*X217350D01*
X221850Y265665D02*Y259665D01*
Y261915D02*X222600Y262665D01*
X224100D01*
X224850Y261915D01*
Y259665D01*
X226650Y261915D02*Y260415D01*
Y261915D02*X227400Y262665D01*
X228900D01*
X229650Y261915D01*
Y260415D01*
X228900Y259665D02*X229650Y260415D01*
X227400Y259665D02*X228900D01*
X226650Y260415D02*X227400Y259665D01*
X231450Y265665D02*Y260415D01*
X232200Y259665D01*
X234450D02*X236700D01*
X233700Y260415D02*X234450Y259665D01*
X233700Y261915D02*Y260415D01*
Y261915D02*X234450Y262665D01*
X235950D01*
X236700Y261915D01*
X233700Y261165D02*X236700D01*
Y261915D02*Y261165D01*
X239250Y259665D02*X241500D01*
X242250Y260415D01*
X241500Y261165D02*X242250Y260415D01*
X239250Y261165D02*X241500D01*
X238500Y261915D02*X239250Y261165D01*
X238500Y261915D02*X239250Y262665D01*
X241500D01*
X242250Y261915D01*
X238500Y260415D02*X239250Y259665D01*
X247500Y265665D02*Y260415D01*
X248250Y259665D01*
X246750Y263415D02*X248250D01*
X249750Y261915D02*Y260415D01*
Y261915D02*X250500Y262665D01*
X252000D01*
X252750Y261915D01*
Y260415D01*
X252000Y259665D02*X252750Y260415D01*
X250500Y259665D02*X252000D01*
X249750Y260415D02*X250500Y259665D01*
X255300Y265665D02*Y260415D01*
X256050Y259665D01*
X254550Y263415D02*X256050D01*
X259800Y262665D02*X260550Y261915D01*
X258300Y262665D02*X259800D01*
X257550Y261915D02*X258300Y262665D01*
X257550Y261915D02*Y260415D01*
X258300Y259665D01*
X260550Y262665D02*Y260415D01*
X261300Y259665D01*
X258300D02*X259800D01*
X260550Y260415D01*
X263100Y265665D02*Y260415D01*
X263850Y259665D01*
G54D45*X0Y177165D02*X188976D01*
X0D02*Y0D01*
X188976Y177165D02*Y0D01*
X0D02*X188976D01*
G54D43*X200000Y190665D02*Y184665D01*
Y190665D02*X202250Y187665D01*
X204500Y190665D01*
Y184665D01*
X208550Y187665D02*X209300Y186915D01*
X207050Y187665D02*X208550D01*
X206300Y186915D02*X207050Y187665D01*
X206300Y186915D02*Y185415D01*
X207050Y184665D01*
X209300Y187665D02*Y185415D01*
X210050Y184665D01*
X207050D02*X208550D01*
X209300Y185415D01*
X211850Y187665D02*X214850Y184665D01*
X211850D02*X214850Y187665D01*
G54D44*X216650Y189165D02*Y189015D01*
G54D43*Y186915D02*Y184665D01*
X218900Y186915D02*Y184665D01*
Y186915D02*X219650Y187665D01*
X220400D01*
X221150Y186915D01*
Y184665D01*
Y186915D02*X221900Y187665D01*
X222650D01*
X223400Y186915D01*
Y184665D01*
X218150Y187665D02*X218900Y186915D01*
X225200Y187665D02*Y185415D01*
X225950Y184665D01*
X227450D01*
X228200Y185415D01*
Y187665D02*Y185415D01*
X230750Y186915D02*Y184665D01*
Y186915D02*X231500Y187665D01*
X232250D01*
X233000Y186915D01*
Y184665D01*
Y186915D02*X233750Y187665D01*
X234500D01*
X235250Y186915D01*
Y184665D01*
X230000Y187665D02*X230750Y186915D01*
X240500Y190665D02*Y184665D01*
X242450Y190665D02*X243500Y189615D01*
Y185715D01*
X242450Y184665D02*X243500Y185715D01*
X239750Y184665D02*X242450D01*
X239750Y190665D02*X242450D01*
G54D44*X245300Y189165D02*Y189015D01*
G54D43*Y186915D02*Y184665D01*
X247550Y186915D02*Y184665D01*
Y186915D02*X248300Y187665D01*
X249050D01*
X249800Y186915D01*
Y184665D01*
Y186915D02*X250550Y187665D01*
X251300D01*
X252050Y186915D01*
Y184665D01*
X246800Y187665D02*X247550Y186915D01*
X254600Y184665D02*X256850D01*
X253850Y185415D02*X254600Y184665D01*
X253850Y186915D02*Y185415D01*
Y186915D02*X254600Y187665D01*
X256100D01*
X256850Y186915D01*
X253850Y186165D02*X256850D01*
Y186915D02*Y186165D01*
X259400Y186915D02*Y184665D01*
Y186915D02*X260150Y187665D01*
X260900D01*
X261650Y186915D01*
Y184665D01*
X258650Y187665D02*X259400Y186915D01*
X264200Y184665D02*X266450D01*
X267200Y185415D01*
X266450Y186165D02*X267200Y185415D01*
X264200Y186165D02*X266450D01*
X263450Y186915D02*X264200Y186165D01*
X263450Y186915D02*X264200Y187665D01*
X266450D01*
X267200Y186915D01*
X263450Y185415D02*X264200Y184665D01*
G54D44*X269000Y189165D02*Y189015D01*
G54D43*Y186915D02*Y184665D01*
X270500Y186915D02*Y185415D01*
Y186915D02*X271250Y187665D01*
X272750D01*
X273500Y186915D01*
Y185415D01*
X272750Y184665D02*X273500Y185415D01*
X271250Y184665D02*X272750D01*
X270500Y185415D02*X271250Y184665D01*
X276050Y186915D02*Y184665D01*
Y186915D02*X276800Y187665D01*
X277550D01*
X278300Y186915D01*
Y184665D01*
X275300Y187665D02*X276050Y186915D01*
X280850Y184665D02*X283100D01*
X283850Y185415D01*
X283100Y186165D02*X283850Y185415D01*
X280850Y186165D02*X283100D01*
X280100Y186915D02*X280850Y186165D01*
X280100Y186915D02*X280850Y187665D01*
X283100D01*
X283850Y186915D01*
X280100Y185415D02*X280850Y184665D01*
X285650Y188415D02*X286400D01*
X285650Y186915D02*X286400D01*
X290900Y189465D02*X292100Y190665D01*
Y184665D01*
X290900D02*X293150D01*
X294950Y185415D02*X295700Y184665D01*
X294950Y186615D02*Y185415D01*
Y186615D02*X296000Y187665D01*
X296900D01*
X297950Y186615D01*
Y185415D01*
X297200Y184665D02*X297950Y185415D01*
X295700Y184665D02*X297200D01*
X294950Y188715D02*X296000Y187665D01*
X294950Y189915D02*Y188715D01*
Y189915D02*X295700Y190665D01*
X297200D01*
X297950Y189915D01*
Y188715D01*
X296900Y187665D02*X297950Y188715D01*
X299750Y185415D02*X300500Y184665D01*
X299750Y186615D02*Y185415D01*
Y186615D02*X300800Y187665D01*
X301700D01*
X302750Y186615D01*
Y185415D01*
X302000Y184665D02*X302750Y185415D01*
X300500Y184665D02*X302000D01*
X299750Y188715D02*X300800Y187665D01*
X299750Y189915D02*Y188715D01*
Y189915D02*X300500Y190665D01*
X302000D01*
X302750Y189915D01*
Y188715D01*
X301700Y187665D02*X302750Y188715D01*
X305300Y184665D02*X307550Y187665D01*
Y189915D02*Y187665D01*
X306800Y190665D02*X307550Y189915D01*
X305300Y190665D02*X306800D01*
X304550Y189915D02*X305300Y190665D01*
X304550Y189915D02*Y188415D01*
X305300Y187665D01*
X307550D01*
X309350Y184665D02*X310100D01*
X312650D02*X315650Y190665D01*
X311900D02*X315650D01*
X319700D02*X320450Y189915D01*
X318200Y190665D02*X319700D01*
X317450Y189915D02*X318200Y190665D01*
X317450Y189915D02*Y185415D01*
X318200Y184665D01*
X319700Y187965D02*X320450Y187215D01*
X317450Y187965D02*X319700D01*
X318200Y184665D02*X319700D01*
X320450Y185415D01*
Y187215D02*Y185415D01*
X322250Y189915D02*X323000Y190665D01*
X324500D01*
X325250Y189915D01*
X324500Y184665D02*X325250Y185415D01*
X323000Y184665D02*X324500D01*
X322250Y185415D02*X323000Y184665D01*
Y187965D02*X324500D01*
X325250Y189915D02*Y188715D01*
Y187215D02*Y185415D01*
Y187215D02*X324500Y187965D01*
X325250Y188715D02*X324500Y187965D01*
X327800Y184665D02*X330800Y190665D01*
X327050D02*X330800D01*
X332600Y185415D02*X333350Y184665D01*
X332600Y186615D02*Y185415D01*
Y186615D02*X333650Y187665D01*
X334550D01*
X335600Y186615D01*
Y185415D01*
X334850Y184665D02*X335600Y185415D01*
X333350Y184665D02*X334850D01*
X332600Y188715D02*X333650Y187665D01*
X332600Y189915D02*Y188715D01*
Y189915D02*X333350Y190665D01*
X334850D01*
X335600Y189915D01*
Y188715D01*
X334550Y187665D02*X335600Y188715D01*
X337400Y185415D02*X338150Y184665D01*
X337400Y189915D02*Y185415D01*
Y189915D02*X338150Y190665D01*
X339650D01*
X340400Y189915D01*
Y185415D01*
X339650Y184665D02*X340400Y185415D01*
X338150Y184665D02*X339650D01*
X337400Y186165D02*X340400Y189165D01*
X345650Y186915D02*Y184665D01*
Y186915D02*X346400Y187665D01*
X347150D01*
X347900Y186915D01*
Y184665D01*
Y186915D02*X348650Y187665D01*
X349400D01*
X350150Y186915D01*
Y184665D01*
X344900Y187665D02*X345650Y186915D01*
G54D44*X351950Y189165D02*Y189015D01*
G54D43*Y186915D02*Y184665D01*
X353450Y190665D02*Y185415D01*
X354200Y184665D01*
X356450D02*X358700D01*
X359450Y185415D01*
X358700Y186165D02*X359450Y185415D01*
X356450Y186165D02*X358700D01*
X355700Y186915D02*X356450Y186165D01*
X355700Y186915D02*X356450Y187665D01*
X358700D01*
X359450Y186915D01*
X355700Y185415D02*X356450Y184665D01*
X363950Y187665D02*Y185415D01*
X364700Y184665D01*
X365450D01*
X366200Y185415D01*
Y187665D02*Y185415D01*
X366950Y184665D01*
X367700D01*
X368450Y185415D01*
Y187665D02*Y185415D01*
G54D44*X370250Y189165D02*Y189015D01*
G54D43*Y186915D02*Y184665D01*
X374750Y190665D02*Y184665D01*
X374000D02*X374750Y185415D01*
X372500Y184665D02*X374000D01*
X371750Y185415D02*X372500Y184665D01*
X371750Y186915D02*Y185415D01*
Y186915D02*X372500Y187665D01*
X374000D01*
X374750Y186915D01*
X377300Y184665D02*X379550D01*
X376550Y185415D02*X377300Y184665D01*
X376550Y186915D02*Y185415D01*
Y186915D02*X377300Y187665D01*
X378800D01*
X379550Y186915D01*
X376550Y186165D02*X379550D01*
Y186915D02*Y186165D01*
X381350Y183165D02*X382850Y184665D01*
X387350Y189465D02*X388550Y190665D01*
Y184665D01*
X387350D02*X389600D01*
X392150D02*X395150Y190665D01*
X391400D02*X395150D01*
X397700Y184665D02*X400700Y190665D01*
X396950D02*X400700D01*
X402500Y189465D02*X403700Y190665D01*
Y184665D01*
X402500D02*X404750D01*
X406550D02*X407300D01*
X411350Y190665D02*X412100Y189915D01*
X409850Y190665D02*X411350D01*
X409100Y189915D02*X409850Y190665D01*
X409100Y189915D02*Y185415D01*
X409850Y184665D01*
X411350Y187965D02*X412100Y187215D01*
X409100Y187965D02*X411350D01*
X409850Y184665D02*X411350D01*
X412100Y185415D01*
Y187215D02*Y185415D01*
X413900Y190665D02*X416900D01*
X413900D02*Y187665D01*
X414650Y188415D01*
X416150D01*
X416900Y187665D01*
Y185415D01*
X416150Y184665D02*X416900Y185415D01*
X414650Y184665D02*X416150D01*
X413900Y185415D02*X414650Y184665D01*
X418700Y189915D02*X419450Y190665D01*
X420950D01*
X421700Y189915D01*
X420950Y184665D02*X421700Y185415D01*
X419450Y184665D02*X420950D01*
X418700Y185415D02*X419450Y184665D01*
Y187965D02*X420950D01*
X421700Y189915D02*Y188715D01*
Y187215D02*Y185415D01*
Y187215D02*X420950Y187965D01*
X421700Y188715D02*X420950Y187965D01*
X423500Y190665D02*X426500D01*
X423500D02*Y187665D01*
X424250Y188415D01*
X425750D01*
X426500Y187665D01*
Y185415D01*
X425750Y184665D02*X426500Y185415D01*
X424250Y184665D02*X425750D01*
X423500Y185415D02*X424250Y184665D01*
X428300Y186915D02*X431300Y190665D01*
X428300Y186915D02*X432050D01*
X431300Y190665D02*Y184665D01*
X433850Y189915D02*X434600Y190665D01*
X436100D01*
X436850Y189915D01*
X436100Y184665D02*X436850Y185415D01*
X434600Y184665D02*X436100D01*
X433850Y185415D02*X434600Y184665D01*
Y187965D02*X436100D01*
X436850Y189915D02*Y188715D01*
Y187215D02*Y185415D01*
Y187215D02*X436100Y187965D01*
X436850Y188715D02*X436100Y187965D01*
X442100Y186915D02*Y184665D01*
Y186915D02*X442850Y187665D01*
X443600D01*
X444350Y186915D01*
Y184665D01*
Y186915D02*X445100Y187665D01*
X445850D01*
X446600Y186915D01*
Y184665D01*
X441350Y187665D02*X442100Y186915D01*
G54D44*X448400Y189165D02*Y189015D01*
G54D43*Y186915D02*Y184665D01*
X449900Y190665D02*Y185415D01*
X450650Y184665D01*
X452900D02*X455150D01*
X455900Y185415D01*
X455150Y186165D02*X455900Y185415D01*
X452900Y186165D02*X455150D01*
X452150Y186915D02*X452900Y186165D01*
X452150Y186915D02*X452900Y187665D01*
X455150D01*
X455900Y186915D01*
X452150Y185415D02*X452900Y184665D01*
X460400Y190665D02*Y184665D01*
Y186915D02*X461150Y187665D01*
X462650D01*
X463400Y186915D01*
Y184665D01*
G54D44*X465200Y189165D02*Y189015D01*
G54D43*Y186915D02*Y184665D01*
X468950Y187665D02*X469700Y186915D01*
X467450Y187665D02*X468950D01*
X466700Y186915D02*X467450Y187665D01*
X466700Y186915D02*Y185415D01*
X467450Y184665D01*
X468950D01*
X469700Y185415D01*
X466700Y183165D02*X467450Y182415D01*
X468950D01*
X469700Y183165D01*
Y187665D02*Y183165D01*
X471500Y190665D02*Y184665D01*
Y186915D02*X472250Y187665D01*
X473750D01*
X474500Y186915D01*
Y184665D01*
X0Y-9500D02*X3000D01*
X3750Y-8750D01*
Y-6950D02*Y-8750D01*
X3000Y-6200D02*X3750Y-6950D01*
X750Y-6200D02*X3000D01*
X750Y-3500D02*Y-9500D01*
X0Y-3500D02*X3000D01*
X3750Y-4250D01*
Y-5450D01*
X3000Y-6200D02*X3750Y-5450D01*
X5550Y-7250D02*Y-8750D01*
Y-7250D02*X6300Y-6500D01*
X7800D01*
X8550Y-7250D01*
Y-8750D01*
X7800Y-9500D02*X8550Y-8750D01*
X6300Y-9500D02*X7800D01*
X5550Y-8750D02*X6300Y-9500D01*
X12600Y-6500D02*X13350Y-7250D01*
X11100Y-6500D02*X12600D01*
X10350Y-7250D02*X11100Y-6500D01*
X10350Y-7250D02*Y-8750D01*
X11100Y-9500D01*
X13350Y-6500D02*Y-8750D01*
X14100Y-9500D01*
X11100D02*X12600D01*
X13350Y-8750D01*
X16650Y-7250D02*Y-9500D01*
Y-7250D02*X17400Y-6500D01*
X18900D01*
X15900D02*X16650Y-7250D01*
X23700Y-3500D02*Y-9500D01*
X22950D02*X23700Y-8750D01*
X21450Y-9500D02*X22950D01*
X20700Y-8750D02*X21450Y-9500D01*
X20700Y-7250D02*Y-8750D01*
Y-7250D02*X21450Y-6500D01*
X22950D01*
X23700Y-7250D01*
X28200D02*Y-8750D01*
Y-7250D02*X28950Y-6500D01*
X30450D01*
X31200Y-7250D01*
Y-8750D01*
X30450Y-9500D02*X31200Y-8750D01*
X28950Y-9500D02*X30450D01*
X28200Y-8750D02*X28950Y-9500D01*
X33000Y-6500D02*Y-8750D01*
X33750Y-9500D01*
X35250D01*
X36000Y-8750D01*
Y-6500D02*Y-8750D01*
X38550Y-3500D02*Y-8750D01*
X39300Y-9500D01*
X37800Y-5750D02*X39300D01*
X40800Y-3500D02*Y-8750D01*
X41550Y-9500D01*
G54D44*X43050Y-5000D02*Y-5150D01*
G54D43*Y-7250D02*Y-9500D01*
X45300Y-7250D02*Y-9500D01*
Y-7250D02*X46050Y-6500D01*
X46800D01*
X47550Y-7250D01*
Y-9500D01*
X44550Y-6500D02*X45300Y-7250D01*
X50100Y-9500D02*X52350D01*
X49350Y-8750D02*X50100Y-9500D01*
X49350Y-7250D02*Y-8750D01*
Y-7250D02*X50100Y-6500D01*
X51600D01*
X52350Y-7250D01*
X49350Y-8000D02*X52350D01*
Y-7250D02*Y-8000D01*
G54D44*X56850Y-5000D02*Y-5150D01*
G54D43*Y-7250D02*Y-9500D01*
X59100D02*X61350D01*
X62100Y-8750D01*
X61350Y-8000D02*X62100Y-8750D01*
X59100Y-8000D02*X61350D01*
X58350Y-7250D02*X59100Y-8000D01*
X58350Y-7250D02*X59100Y-6500D01*
X61350D01*
X62100Y-7250D01*
X58350Y-8750D02*X59100Y-9500D01*
X67350Y-3500D02*Y-8750D01*
X68100Y-9500D01*
X66600Y-5750D02*X68100D01*
X69600Y-3500D02*Y-9500D01*
Y-7250D02*X70350Y-6500D01*
X71850D01*
X72600Y-7250D01*
Y-9500D01*
X75150D02*X77400D01*
X74400Y-8750D02*X75150Y-9500D01*
X74400Y-7250D02*Y-8750D01*
Y-7250D02*X75150Y-6500D01*
X76650D01*
X77400Y-7250D01*
X74400Y-8000D02*X77400D01*
Y-7250D02*Y-8000D01*
X82650Y-6500D02*X84900D01*
X81900Y-7250D02*X82650Y-6500D01*
X81900Y-7250D02*Y-8750D01*
X82650Y-9500D01*
X84900D01*
X87450D02*X89700D01*
X86700Y-8750D02*X87450Y-9500D01*
X86700Y-7250D02*Y-8750D01*
Y-7250D02*X87450Y-6500D01*
X88950D01*
X89700Y-7250D01*
X86700Y-8000D02*X89700D01*
Y-7250D02*Y-8000D01*
X92250Y-7250D02*Y-9500D01*
Y-7250D02*X93000Y-6500D01*
X93750D01*
X94500Y-7250D01*
Y-9500D01*
X91500Y-6500D02*X92250Y-7250D01*
X97050Y-3500D02*Y-8750D01*
X97800Y-9500D01*
X96300Y-5750D02*X97800D01*
X100050Y-9500D02*X102300D01*
X99300Y-8750D02*X100050Y-9500D01*
X99300Y-7250D02*Y-8750D01*
Y-7250D02*X100050Y-6500D01*
X101550D01*
X102300Y-7250D01*
X99300Y-8000D02*X102300D01*
Y-7250D02*Y-8000D01*
X104850Y-7250D02*Y-9500D01*
Y-7250D02*X105600Y-6500D01*
X107100D01*
X104100D02*X104850Y-7250D01*
X108900Y-3500D02*Y-8750D01*
X109650Y-9500D01*
G54D44*X111150Y-5000D02*Y-5150D01*
G54D43*Y-7250D02*Y-9500D01*
X113400Y-7250D02*Y-9500D01*
Y-7250D02*X114150Y-6500D01*
X114900D01*
X115650Y-7250D01*
Y-9500D01*
X112650Y-6500D02*X113400Y-7250D01*
X118200Y-9500D02*X120450D01*
X117450Y-8750D02*X118200Y-9500D01*
X117450Y-7250D02*Y-8750D01*
Y-7250D02*X118200Y-6500D01*
X119700D01*
X120450Y-7250D01*
X117450Y-8000D02*X120450D01*
Y-7250D02*Y-8000D01*
X124950Y-7250D02*Y-8750D01*
Y-7250D02*X125700Y-6500D01*
X127200D01*
X127950Y-7250D01*
Y-8750D01*
X127200Y-9500D02*X127950Y-8750D01*
X125700Y-9500D02*X127200D01*
X124950Y-8750D02*X125700Y-9500D01*
X130500Y-4250D02*Y-9500D01*
Y-4250D02*X131250Y-3500D01*
X132000D01*
X129750Y-6500D02*X131250D01*
X136950Y-3500D02*Y-8750D01*
X137700Y-9500D01*
X136200Y-5750D02*X137700D01*
X139200Y-3500D02*Y-9500D01*
Y-7250D02*X139950Y-6500D01*
X141450D01*
X142200Y-7250D01*
Y-9500D01*
G54D44*X144000Y-5000D02*Y-5150D01*
G54D43*Y-7250D02*Y-9500D01*
X146250D02*X148500D01*
X149250Y-8750D01*
X148500Y-8000D02*X149250Y-8750D01*
X146250Y-8000D02*X148500D01*
X145500Y-7250D02*X146250Y-8000D01*
X145500Y-7250D02*X146250Y-6500D01*
X148500D01*
X149250Y-7250D01*
X145500Y-8750D02*X146250Y-9500D01*
X153750Y-8750D02*X154500Y-9500D01*
X153750Y-7550D02*Y-8750D01*
Y-7550D02*X154800Y-6500D01*
X155700D01*
X156750Y-7550D01*
Y-8750D01*
X156000Y-9500D02*X156750Y-8750D01*
X154500Y-9500D02*X156000D01*
X153750Y-5450D02*X154800Y-6500D01*
X153750Y-4250D02*Y-5450D01*
Y-4250D02*X154500Y-3500D01*
X156000D01*
X156750Y-4250D01*
Y-5450D01*
X155700Y-6500D02*X156750Y-5450D01*
X158550Y-9500D02*X159300D01*
X161100Y-8750D02*X161850Y-9500D01*
X161100Y-4250D02*Y-8750D01*
Y-4250D02*X161850Y-3500D01*
X163350D01*
X164100Y-4250D01*
Y-8750D01*
X163350Y-9500D02*X164100Y-8750D01*
X161850Y-9500D02*X163350D01*
X161100Y-8000D02*X164100Y-5000D01*
X165900Y-8750D02*X166650Y-9500D01*
X165900Y-4250D02*Y-8750D01*
Y-4250D02*X166650Y-3500D01*
X168150D01*
X168900Y-4250D01*
Y-8750D01*
X168150Y-9500D02*X168900Y-8750D01*
X166650Y-9500D02*X168150D01*
X165900Y-8000D02*X168900Y-5000D01*
X170700Y-8750D02*X171450Y-9500D01*
X170700Y-4250D02*Y-8750D01*
Y-4250D02*X171450Y-3500D01*
X172950D01*
X173700Y-4250D01*
Y-8750D01*
X172950Y-9500D02*X173700Y-8750D01*
X171450Y-9500D02*X172950D01*
X170700Y-8000D02*X173700Y-5000D01*
X175500Y-8750D02*X176250Y-9500D01*
X175500Y-4250D02*Y-8750D01*
Y-4250D02*X176250Y-3500D01*
X177750D01*
X178500Y-4250D01*
Y-8750D01*
X177750Y-9500D02*X178500Y-8750D01*
X176250Y-9500D02*X177750D01*
X175500Y-8000D02*X178500Y-5000D01*
X180300Y-8750D02*X181050Y-9500D01*
X180300Y-4250D02*Y-8750D01*
Y-4250D02*X181050Y-3500D01*
X182550D01*
X183300Y-4250D01*
Y-8750D01*
X182550Y-9500D02*X183300Y-8750D01*
X181050Y-9500D02*X182550D01*
X180300Y-8000D02*X183300Y-5000D01*
X185100Y-8750D02*X185850Y-9500D01*
X185100Y-4250D02*Y-8750D01*
Y-4250D02*X185850Y-3500D01*
X187350D01*
X188100Y-4250D01*
Y-8750D01*
X187350Y-9500D02*X188100Y-8750D01*
X185850Y-9500D02*X187350D01*
X185100Y-8000D02*X188100Y-5000D01*
X193350Y-7250D02*Y-9500D01*
Y-7250D02*X194100Y-6500D01*
X194850D01*
X195600Y-7250D01*
Y-9500D01*
Y-7250D02*X196350Y-6500D01*
X197100D01*
X197850Y-7250D01*
Y-9500D01*
X192600Y-6500D02*X193350Y-7250D01*
G54D44*X199650Y-5000D02*Y-5150D01*
G54D43*Y-7250D02*Y-9500D01*
X201150Y-3500D02*Y-8750D01*
X201900Y-9500D01*
X206850Y-7250D02*Y-9500D01*
Y-7250D02*X207600Y-6500D01*
X209100D01*
X206100D02*X206850Y-7250D01*
X211650Y-9500D02*X213900D01*
X210900Y-8750D02*X211650Y-9500D01*
X210900Y-7250D02*Y-8750D01*
Y-7250D02*X211650Y-6500D01*
X213150D01*
X213900Y-7250D01*
X210900Y-8000D02*X213900D01*
Y-7250D02*Y-8000D01*
X216450Y-6500D02*X218700D01*
X215700Y-7250D02*X216450Y-6500D01*
X215700Y-7250D02*Y-8750D01*
X216450Y-9500D01*
X218700D01*
X221250Y-3500D02*Y-8750D01*
X222000Y-9500D01*
X220500Y-5750D02*X222000D01*
X225750Y-6500D02*X226500Y-7250D01*
X224250Y-6500D02*X225750D01*
X223500Y-7250D02*X224250Y-6500D01*
X223500Y-7250D02*Y-8750D01*
X224250Y-9500D01*
X226500Y-6500D02*Y-8750D01*
X227250Y-9500D01*
X224250D02*X225750D01*
X226500Y-8750D01*
X229800Y-7250D02*Y-9500D01*
Y-7250D02*X230550Y-6500D01*
X231300D01*
X232050Y-7250D01*
Y-9500D01*
X229050Y-6500D02*X229800Y-7250D01*
X236100Y-6500D02*X236850Y-7250D01*
X234600Y-6500D02*X236100D01*
X233850Y-7250D02*X234600Y-6500D01*
X233850Y-7250D02*Y-8750D01*
X234600Y-9500D01*
X236100D01*
X236850Y-8750D01*
X233850Y-11000D02*X234600Y-11750D01*
X236100D01*
X236850Y-11000D01*
Y-6500D02*Y-11000D01*
X238650Y-3500D02*Y-8750D01*
X239400Y-9500D01*
X241650D02*X243900D01*
X240900Y-8750D02*X241650Y-9500D01*
X240900Y-7250D02*Y-8750D01*
Y-7250D02*X241650Y-6500D01*
X243150D01*
X243900Y-7250D01*
X240900Y-8000D02*X243900D01*
Y-7250D02*Y-8000D01*
X248400Y-6500D02*X251400D01*
X255900Y-8750D02*X256650Y-9500D01*
X255900Y-4250D02*Y-8750D01*
Y-4250D02*X256650Y-3500D01*
X258150D01*
X258900Y-4250D01*
Y-8750D01*
X258150Y-9500D02*X258900Y-8750D01*
X256650Y-9500D02*X258150D01*
X255900Y-8000D02*X258900Y-5000D01*
X260700Y-11000D02*X262200Y-9500D01*
X264000Y-8750D02*X264750Y-9500D01*
X264000Y-4250D02*Y-8750D01*
Y-4250D02*X264750Y-3500D01*
X266250D01*
X267000Y-4250D01*
Y-8750D01*
X266250Y-9500D02*X267000Y-8750D01*
X264750Y-9500D02*X266250D01*
X264000Y-8000D02*X267000Y-5000D01*
X272250Y-3500D02*Y-8750D01*
X273000Y-9500D01*
X271500Y-5750D02*X273000D01*
X274500Y-7250D02*Y-8750D01*
Y-7250D02*X275250Y-6500D01*
X276750D01*
X277500Y-7250D01*
Y-8750D01*
X276750Y-9500D02*X277500Y-8750D01*
X275250Y-9500D02*X276750D01*
X274500Y-8750D02*X275250Y-9500D01*
X282000Y-4700D02*X283200Y-3500D01*
Y-9500D01*
X282000D02*X284250D01*
X286050Y-8750D02*X286800Y-9500D01*
X286050Y-7550D02*Y-8750D01*
Y-7550D02*X287100Y-6500D01*
X288000D01*
X289050Y-7550D01*
Y-8750D01*
X288300Y-9500D02*X289050Y-8750D01*
X286800Y-9500D02*X288300D01*
X286050Y-5450D02*X287100Y-6500D01*
X286050Y-4250D02*Y-5450D01*
Y-4250D02*X286800Y-3500D01*
X288300D01*
X289050Y-4250D01*
Y-5450D01*
X288000Y-6500D02*X289050Y-5450D01*
X290850Y-8750D02*X291600Y-9500D01*
X290850Y-7550D02*Y-8750D01*
Y-7550D02*X291900Y-6500D01*
X292800D01*
X293850Y-7550D01*
Y-8750D01*
X293100Y-9500D02*X293850Y-8750D01*
X291600Y-9500D02*X293100D01*
X290850Y-5450D02*X291900Y-6500D01*
X290850Y-4250D02*Y-5450D01*
Y-4250D02*X291600Y-3500D01*
X293100D01*
X293850Y-4250D01*
Y-5450D01*
X292800Y-6500D02*X293850Y-5450D01*
X296400Y-9500D02*X298650Y-6500D01*
Y-4250D02*Y-6500D01*
X297900Y-3500D02*X298650Y-4250D01*
X296400Y-3500D02*X297900D01*
X295650Y-4250D02*X296400Y-3500D01*
X295650Y-4250D02*Y-5750D01*
X296400Y-6500D01*
X298650D01*
X300450Y-9500D02*X301200D01*
X303750D02*X306750Y-3500D01*
X303000D02*X306750D01*
X310800D02*X311550Y-4250D01*
X309300Y-3500D02*X310800D01*
X308550Y-4250D02*X309300Y-3500D01*
X308550Y-4250D02*Y-8750D01*
X309300Y-9500D01*
X310800Y-6200D02*X311550Y-6950D01*
X308550Y-6200D02*X310800D01*
X309300Y-9500D02*X310800D01*
X311550Y-8750D01*
Y-6950D02*Y-8750D01*
X313350Y-4250D02*X314100Y-3500D01*
X315600D01*
X316350Y-4250D01*
X315600Y-9500D02*X316350Y-8750D01*
X314100Y-9500D02*X315600D01*
X313350Y-8750D02*X314100Y-9500D01*
Y-6200D02*X315600D01*
X316350Y-4250D02*Y-5450D01*
Y-6950D02*Y-8750D01*
Y-6950D02*X315600Y-6200D01*
X316350Y-5450D02*X315600Y-6200D01*
X318900Y-9500D02*X321900Y-3500D01*
X318150D02*X321900D01*
X323700Y-8750D02*X324450Y-9500D01*
X323700Y-7550D02*Y-8750D01*
Y-7550D02*X324750Y-6500D01*
X325650D01*
X326700Y-7550D01*
Y-8750D01*
X325950Y-9500D02*X326700Y-8750D01*
X324450Y-9500D02*X325950D01*
X323700Y-5450D02*X324750Y-6500D01*
X323700Y-4250D02*Y-5450D01*
Y-4250D02*X324450Y-3500D01*
X325950D01*
X326700Y-4250D01*
Y-5450D01*
X325650Y-6500D02*X326700Y-5450D01*
X328500Y-8750D02*X329250Y-9500D01*
X328500Y-4250D02*Y-8750D01*
Y-4250D02*X329250Y-3500D01*
X330750D01*
X331500Y-4250D01*
Y-8750D01*
X330750Y-9500D02*X331500Y-8750D01*
X329250Y-9500D02*X330750D01*
X328500Y-8000D02*X331500Y-5000D01*
X333300Y-11000D02*X334800Y-9500D01*
X336600Y-4700D02*X337800Y-3500D01*
Y-9500D01*
X336600D02*X338850D01*
X341400D02*X344400Y-3500D01*
X340650D02*X344400D01*
X346950Y-9500D02*X349950Y-3500D01*
X346200D02*X349950D01*
X351750Y-4700D02*X352950Y-3500D01*
Y-9500D01*
X351750D02*X354000D01*
X355800D02*X356550D01*
X360600Y-3500D02*X361350Y-4250D01*
X359100Y-3500D02*X360600D01*
X358350Y-4250D02*X359100Y-3500D01*
X358350Y-4250D02*Y-8750D01*
X359100Y-9500D01*
X360600Y-6200D02*X361350Y-6950D01*
X358350Y-6200D02*X360600D01*
X359100Y-9500D02*X360600D01*
X361350Y-8750D01*
Y-6950D02*Y-8750D01*
X363150Y-3500D02*X366150D01*
X363150D02*Y-6500D01*
X363900Y-5750D01*
X365400D01*
X366150Y-6500D01*
Y-8750D01*
X365400Y-9500D02*X366150Y-8750D01*
X363900Y-9500D02*X365400D01*
X363150Y-8750D02*X363900Y-9500D01*
X367950Y-4250D02*X368700Y-3500D01*
X370200D01*
X370950Y-4250D01*
X370200Y-9500D02*X370950Y-8750D01*
X368700Y-9500D02*X370200D01*
X367950Y-8750D02*X368700Y-9500D01*
Y-6200D02*X370200D01*
X370950Y-4250D02*Y-5450D01*
Y-6950D02*Y-8750D01*
Y-6950D02*X370200Y-6200D01*
X370950Y-5450D02*X370200Y-6200D01*
X372750Y-3500D02*X375750D01*
X372750D02*Y-6500D01*
X373500Y-5750D01*
X375000D01*
X375750Y-6500D01*
Y-8750D01*
X375000Y-9500D02*X375750Y-8750D01*
X373500Y-9500D02*X375000D01*
X372750Y-8750D02*X373500Y-9500D01*
X377550Y-7250D02*X380550Y-3500D01*
X377550Y-7250D02*X381300D01*
X380550Y-3500D02*Y-9500D01*
X383100Y-4250D02*X383850Y-3500D01*
X385350D01*
X386100Y-4250D01*
X385350Y-9500D02*X386100Y-8750D01*
X383850Y-9500D02*X385350D01*
X383100Y-8750D02*X383850Y-9500D01*
Y-6200D02*X385350D01*
X386100Y-4250D02*Y-5450D01*
Y-6950D02*Y-8750D01*
Y-6950D02*X385350Y-6200D01*
X386100Y-5450D02*X385350Y-6200D01*
X391350Y-7250D02*Y-9500D01*
Y-7250D02*X392100Y-6500D01*
X392850D01*
X393600Y-7250D01*
Y-9500D01*
Y-7250D02*X394350Y-6500D01*
X395100D01*
X395850Y-7250D01*
Y-9500D01*
X390600Y-6500D02*X391350Y-7250D01*
G54D44*X397650Y-5000D02*Y-5150D01*
G54D43*Y-7250D02*Y-9500D01*
X399150Y-3500D02*Y-8750D01*
X399900Y-9500D01*
X402150D02*X404400D01*
X405150Y-8750D01*
X404400Y-8000D02*X405150Y-8750D01*
X402150Y-8000D02*X404400D01*
X401400Y-7250D02*X402150Y-8000D01*
X401400Y-7250D02*X402150Y-6500D01*
X404400D01*
X405150Y-7250D01*
X401400Y-8750D02*X402150Y-9500D01*
X200750Y205665D02*Y199665D01*
X202700Y205665D02*X203750Y204615D01*
Y200715D01*
X202700Y199665D02*X203750Y200715D01*
X200000Y199665D02*X202700D01*
X200000Y205665D02*X202700D01*
X207800Y202665D02*X208550Y201915D01*
X206300Y202665D02*X207800D01*
X205550Y201915D02*X206300Y202665D01*
X205550Y201915D02*Y200415D01*
X206300Y199665D01*
X208550Y202665D02*Y200415D01*
X209300Y199665D01*
X206300D02*X207800D01*
X208550Y200415D01*
X211850Y205665D02*Y200415D01*
X212600Y199665D01*
X211100Y203415D02*X212600D01*
X214850Y199665D02*X217100D01*
X214100Y200415D02*X214850Y199665D01*
X214100Y201915D02*Y200415D01*
Y201915D02*X214850Y202665D01*
X216350D01*
X217100Y201915D01*
X214100Y201165D02*X217100D01*
Y201915D02*Y201165D01*
X218900Y203415D02*X219650D01*
X218900Y201915D02*X219650D01*
X224150Y205665D02*Y202665D01*
X224900Y199665D01*
X226400Y202665D01*
X227900Y199665D01*
X228650Y202665D01*
Y205665D02*Y202665D01*
X231200Y199665D02*X233450D01*
X230450Y200415D02*X231200Y199665D01*
X230450Y201915D02*Y200415D01*
Y201915D02*X231200Y202665D01*
X232700D01*
X233450Y201915D01*
X230450Y201165D02*X233450D01*
Y201915D02*Y201165D01*
X238250Y205665D02*Y199665D01*
X237500D02*X238250Y200415D01*
X236000Y199665D02*X237500D01*
X235250Y200415D02*X236000Y199665D01*
X235250Y201915D02*Y200415D01*
Y201915D02*X236000Y202665D01*
X237500D01*
X238250Y201915D01*
X242750Y205665D02*Y199665D01*
Y205665D02*X245000Y202665D01*
X247250Y205665D01*
Y199665D01*
X251300Y202665D02*X252050Y201915D01*
X249800Y202665D02*X251300D01*
X249050Y201915D02*X249800Y202665D01*
X249050Y201915D02*Y200415D01*
X249800Y199665D01*
X252050Y202665D02*Y200415D01*
X252800Y199665D01*
X249800D02*X251300D01*
X252050Y200415D01*
X255350Y201915D02*Y199665D01*
Y201915D02*X256100Y202665D01*
X257600D01*
X254600D02*X255350Y201915D01*
X262100Y204465D02*X263300Y205665D01*
Y199665D01*
X262100D02*X264350D01*
X266150Y204465D02*X267350Y205665D01*
Y199665D01*
X266150D02*X268400D01*
X272900Y200415D02*X273650Y199665D01*
X272900Y204915D02*Y200415D01*
Y204915D02*X273650Y205665D01*
X275150D01*
X275900Y204915D01*
Y200415D01*
X275150Y199665D02*X275900Y200415D01*
X273650Y199665D02*X275150D01*
X272900Y201165D02*X275900Y204165D01*
X277700Y200415D02*X278450Y199665D01*
X277700Y201615D02*Y200415D01*
Y201615D02*X278750Y202665D01*
X279650D01*
X280700Y201615D01*
Y200415D01*
X279950Y199665D02*X280700Y200415D01*
X278450Y199665D02*X279950D01*
X277700Y203715D02*X278750Y202665D01*
X277700Y204915D02*Y203715D01*
Y204915D02*X278450Y205665D01*
X279950D01*
X280700Y204915D01*
Y203715D01*
X279650Y202665D02*X280700Y203715D01*
X282500Y203415D02*X283250D01*
X282500Y201915D02*X283250D01*
X285050Y200415D02*X285800Y199665D01*
X285050Y204915D02*Y200415D01*
Y204915D02*X285800Y205665D01*
X287300D01*
X288050Y204915D01*
Y200415D01*
X287300Y199665D02*X288050Y200415D01*
X285800Y199665D02*X287300D01*
X285050Y201165D02*X288050Y204165D01*
X292100Y205665D02*X292850Y204915D01*
X290600Y205665D02*X292100D01*
X289850Y204915D02*X290600Y205665D01*
X289850Y204915D02*Y200415D01*
X290600Y199665D01*
X292100Y202965D02*X292850Y202215D01*
X289850Y202965D02*X292100D01*
X290600Y199665D02*X292100D01*
X292850Y200415D01*
Y202215D02*Y200415D01*
X294650Y203415D02*X295400D01*
X294650Y201915D02*X295400D01*
X297200Y204465D02*X298400Y205665D01*
Y199665D01*
X297200D02*X299450D01*
X301250Y201915D02*X304250Y205665D01*
X301250Y201915D02*X305000D01*
X304250Y205665D02*Y199665D01*
X309500Y204915D02*X310250Y205665D01*
X312500D01*
X313250Y204915D01*
Y203415D01*
X309500Y199665D02*X313250Y203415D01*
X309500Y199665D02*X313250D01*
X315050Y200415D02*X315800Y199665D01*
X315050Y204915D02*Y200415D01*
Y204915D02*X315800Y205665D01*
X317300D01*
X318050Y204915D01*
Y200415D01*
X317300Y199665D02*X318050Y200415D01*
X315800Y199665D02*X317300D01*
X315050Y201165D02*X318050Y204165D01*
X319850Y204465D02*X321050Y205665D01*
Y199665D01*
X319850D02*X322100D01*
X323900Y205665D02*X326900D01*
X323900D02*Y202665D01*
X324650Y203415D01*
X326150D01*
X326900Y202665D01*
Y200415D01*
X326150Y199665D02*X326900Y200415D01*
X324650Y199665D02*X326150D01*
X323900Y200415D02*X324650Y199665D01*
X331400Y205665D02*Y200415D01*
X332150Y199665D01*
X333650D01*
X334400Y200415D01*
Y205665D02*Y200415D01*
X336200Y205665D02*X339200D01*
X337700D02*Y199665D01*
X342050D02*X344000D01*
X341000Y200715D02*X342050Y199665D01*
X341000Y204615D02*Y200715D01*
Y204615D02*X342050Y205665D01*
X344000D01*
X200000Y219165D02*Y214665D01*
Y219165D02*X201050Y220665D01*
X202700D01*
X203750Y219165D01*
Y214665D01*
X200000Y217665D02*X203750D01*
X205550D02*Y215415D01*
X206300Y214665D01*
X207800D01*
X208550Y215415D01*
Y217665D02*Y215415D01*
X211100Y220665D02*Y215415D01*
X211850Y214665D01*
X210350Y218415D02*X211850D01*
X213350Y220665D02*Y214665D01*
Y216915D02*X214100Y217665D01*
X215600D01*
X216350Y216915D01*
Y214665D01*
X218150Y216915D02*Y215415D01*
Y216915D02*X218900Y217665D01*
X220400D01*
X221150Y216915D01*
Y215415D01*
X220400Y214665D02*X221150Y215415D01*
X218900Y214665D02*X220400D01*
X218150Y215415D02*X218900Y214665D01*
X223700Y216915D02*Y214665D01*
Y216915D02*X224450Y217665D01*
X225950D01*
X222950D02*X223700Y216915D01*
X227750Y218415D02*X228500D01*
X227750Y216915D02*X228500D01*
X233000Y217965D02*X235250D01*
X233000Y214665D02*X236000D01*
X233000Y220665D02*Y214665D01*
Y220665D02*X236000D01*
X238550Y216915D02*Y214665D01*
Y216915D02*X239300Y217665D01*
X240800D01*
X237800D02*X238550Y216915D01*
G54D44*X242600Y219165D02*Y219015D01*
G54D43*Y216915D02*Y214665D01*
X244850Y216915D02*Y214665D01*
Y216915D02*X245600Y217665D01*
X246350D01*
X247100Y216915D01*
Y214665D01*
X244100Y217665D02*X244850Y216915D01*
X251600Y220665D02*Y214665D01*
Y217665D02*X254600Y220665D01*
X251600Y217665D02*X254600Y214665D01*
X257150D02*X259400D01*
X256400Y215415D02*X257150Y214665D01*
X256400Y216915D02*Y215415D01*
Y216915D02*X257150Y217665D01*
X258650D01*
X259400Y216915D01*
X256400Y216165D02*X259400D01*
Y216915D02*Y216165D01*
X261950Y216915D02*Y214665D01*
Y216915D02*X262700Y217665D01*
X263450D01*
X264200Y216915D01*
Y214665D01*
X261200Y217665D02*X261950Y216915D01*
X266750D02*Y214665D01*
Y216915D02*X267500Y217665D01*
X268250D01*
X269000Y216915D01*
Y214665D01*
X266000Y217665D02*X266750Y216915D01*
X271550Y214665D02*X273800D01*
X270800Y215415D02*X271550Y214665D01*
X270800Y216915D02*Y215415D01*
Y216915D02*X271550Y217665D01*
X273050D01*
X273800Y216915D01*
X270800Y216165D02*X273800D01*
Y216915D02*Y216165D01*
X278600Y220665D02*Y214665D01*
X277850D02*X278600Y215415D01*
X276350Y214665D02*X277850D01*
X275600Y215415D02*X276350Y214665D01*
X275600Y216915D02*Y215415D01*
Y216915D02*X276350Y217665D01*
X277850D01*
X278600Y216915D01*
X280400Y217665D02*Y215415D01*
X281150Y214665D01*
X283400Y217665D02*Y213165D01*
X282650Y212415D02*X283400Y213165D01*
X281150Y212415D02*X282650D01*
X280400Y213165D02*X281150Y212415D01*
Y214665D02*X282650D01*
X283400Y215415D01*
X200000Y235665D02*X203000D01*
X201500D02*Y229665D01*
G54D44*X204800Y234165D02*Y234015D01*
G54D43*Y231915D02*Y229665D01*
X207050Y235665D02*Y230415D01*
X207800Y229665D01*
X206300Y233415D02*X207800D01*
X209300Y235665D02*Y230415D01*
X210050Y229665D01*
X212300D02*X214550D01*
X211550Y230415D02*X212300Y229665D01*
X211550Y231915D02*Y230415D01*
Y231915D02*X212300Y232665D01*
X213800D01*
X214550Y231915D01*
X211550Y231165D02*X214550D01*
Y231915D02*Y231165D01*
X216350Y233415D02*X217100D01*
X216350Y231915D02*X217100D01*
X221600Y230415D02*X222350Y229665D01*
X221600Y234915D02*X222350Y235665D01*
X221600Y234915D02*Y230415D01*
X224150Y232665D02*Y230415D01*
X224900Y229665D01*
X226400D01*
X227150Y230415D01*
Y232665D02*Y230415D01*
X229700Y231915D02*Y229665D01*
Y231915D02*X230450Y232665D01*
X231200D01*
X231950Y231915D01*
Y229665D01*
X228950Y232665D02*X229700Y231915D01*
X233750Y235665D02*Y229665D01*
Y231915D02*X236000Y229665D01*
X233750Y231915D02*X235250Y233415D01*
X238550Y231915D02*Y229665D01*
Y231915D02*X239300Y232665D01*
X240050D01*
X240800Y231915D01*
Y229665D01*
X237800Y232665D02*X238550Y231915D01*
X242600D02*Y230415D01*
Y231915D02*X243350Y232665D01*
X244850D01*
X245600Y231915D01*
Y230415D01*
X244850Y229665D02*X245600Y230415D01*
X243350Y229665D02*X244850D01*
X242600Y230415D02*X243350Y229665D01*
X247400Y232665D02*Y230415D01*
X248150Y229665D01*
X248900D01*
X249650Y230415D01*
Y232665D02*Y230415D01*
X250400Y229665D01*
X251150D01*
X251900Y230415D01*
Y232665D02*Y230415D01*
X254450Y231915D02*Y229665D01*
Y231915D02*X255200Y232665D01*
X255950D01*
X256700Y231915D01*
Y229665D01*
X253700Y232665D02*X254450Y231915D01*
X258500Y235665D02*X259250Y234915D01*
Y230415D01*
X258500Y229665D02*X259250Y230415D01*
X263750Y232665D02*X266750D01*
X271250Y235665D02*Y229665D01*
Y235665D02*X274250D01*
X271250Y232965D02*X273500D01*
X278300Y232665D02*X279050Y231915D01*
X276800Y232665D02*X278300D01*
X276050Y231915D02*X276800Y232665D01*
X276050Y231915D02*Y230415D01*
X276800Y229665D01*
X279050Y232665D02*Y230415D01*
X279800Y229665D01*
X276800D02*X278300D01*
X279050Y230415D01*
X281600Y235665D02*Y229665D01*
Y230415D02*X282350Y229665D01*
X283850D01*
X284600Y230415D01*
Y231915D02*Y230415D01*
X283850Y232665D02*X284600Y231915D01*
X282350Y232665D02*X283850D01*
X281600Y231915D02*X282350Y232665D01*
X287150Y231915D02*Y229665D01*
Y231915D02*X287900Y232665D01*
X289400D01*
X286400D02*X287150Y231915D01*
G54D44*X291200Y234165D02*Y234015D01*
G54D43*Y231915D02*Y229665D01*
X293450Y232665D02*X295700D01*
X292700Y231915D02*X293450Y232665D01*
X292700Y231915D02*Y230415D01*
X293450Y229665D01*
X295700D01*
X299750Y232665D02*X300500Y231915D01*
X298250Y232665D02*X299750D01*
X297500Y231915D02*X298250Y232665D01*
X297500Y231915D02*Y230415D01*
X298250Y229665D01*
X300500Y232665D02*Y230415D01*
X301250Y229665D01*
X298250D02*X299750D01*
X300500Y230415D01*
X303800Y235665D02*Y230415D01*
X304550Y229665D01*
X303050Y233415D02*X304550D01*
G54D44*X306050Y234165D02*Y234015D01*
G54D43*Y231915D02*Y229665D01*
X307550Y231915D02*Y230415D01*
Y231915D02*X308300Y232665D01*
X309800D01*
X310550Y231915D01*
Y230415D01*
X309800Y229665D02*X310550Y230415D01*
X308300Y229665D02*X309800D01*
X307550Y230415D02*X308300Y229665D01*
X313100Y231915D02*Y229665D01*
Y231915D02*X313850Y232665D01*
X314600D01*
X315350Y231915D01*
Y229665D01*
X312350Y232665D02*X313100Y231915D01*
X320600Y235665D02*Y229665D01*
X322550Y235665D02*X323600Y234615D01*
Y230715D01*
X322550Y229665D02*X323600Y230715D01*
X319850Y229665D02*X322550D01*
X319850Y235665D02*X322550D01*
X326150Y231915D02*Y229665D01*
Y231915D02*X326900Y232665D01*
X328400D01*
X325400D02*X326150Y231915D01*
X332450Y232665D02*X333200Y231915D01*
X330950Y232665D02*X332450D01*
X330200Y231915D02*X330950Y232665D01*
X330200Y231915D02*Y230415D01*
X330950Y229665D01*
X333200Y232665D02*Y230415D01*
X333950Y229665D01*
X330950D02*X332450D01*
X333200Y230415D01*
X335750Y232665D02*Y230415D01*
X336500Y229665D01*
X337250D01*
X338000Y230415D01*
Y232665D02*Y230415D01*
X338750Y229665D01*
X339500D01*
X340250Y230415D01*
Y232665D02*Y230415D01*
G54D44*X342050Y234165D02*Y234015D01*
G54D43*Y231915D02*Y229665D01*
X344300Y231915D02*Y229665D01*
Y231915D02*X345050Y232665D01*
X345800D01*
X346550Y231915D01*
Y229665D01*
X343550Y232665D02*X344300Y231915D01*
X350600Y232665D02*X351350Y231915D01*
X349100Y232665D02*X350600D01*
X348350Y231915D02*X349100Y232665D01*
X348350Y231915D02*Y230415D01*
X349100Y229665D01*
X350600D01*
X351350Y230415D01*
X348350Y228165D02*X349100Y227415D01*
X350600D01*
X351350Y228165D01*
Y232665D02*Y228165D01*
M02*
