G04 start of page 5 for group -4063 idx -4063 *
G04 Title: (unknown), componentmask *
G04 Creator: pcb 20140316 *
G04 CreationDate: Wed Mar 11 08:06:14 2015 UTC *
G04 For: frankenteddy *
G04 Format: Gerber/RS-274X *
G04 PCB-Dimensions (mil): 1889.76 1771.65 *
G04 PCB-Coordinate-Origin: lower left *
%MOIN*%
%FSLAX25Y25*%
%LNTOPMASK*%
%ADD31C,0.0001*%
%ADD30R,0.0260X0.0260*%
%ADD29C,0.0260*%
%ADD28R,0.0494X0.0494*%
%ADD27R,0.1084X0.1084*%
%ADD26R,0.0572X0.0572*%
%ADD25R,0.0660X0.0660*%
G54D25*X129000Y92665D02*Y85665D01*
X139000Y92665D02*Y85665D01*
X149000Y92665D02*Y85665D01*
X139000Y109665D02*Y102665D01*
X149000Y109665D02*Y102665D01*
G54D26*X123190Y127346D02*Y124984D01*
X135000Y127346D02*Y124984D01*
G54D25*X129000Y109665D02*Y102665D01*
G54D26*X112819Y91355D02*X115181D01*
X112819Y103165D02*X115181D01*
G54D25*X64000Y153665D02*Y146665D01*
G54D26*X55819Y133975D02*X58181D01*
G54D25*X74000Y153665D02*Y146665D01*
X84000Y153665D02*Y146665D01*
X94000Y153665D02*Y146665D01*
X104000Y153665D02*Y146665D01*
X114000Y153665D02*Y146665D01*
G54D26*X123190Y138346D02*Y135984D01*
X135000Y138346D02*Y135984D01*
G54D27*X21921Y149921D02*Y144409D01*
X42000Y149921D02*Y144409D01*
G54D28*X82000Y75268D02*Y63063D01*
X76094Y75268D02*Y63063D01*
X70189Y75268D02*Y63063D01*
G54D29*X72000Y90665D02*Y85665D01*
G54D30*X77000Y90665D02*Y85665D01*
X82000Y90665D02*Y85665D01*
X87000Y90665D02*Y85665D01*
Y110065D02*Y105065D01*
X82000Y110065D02*Y105065D01*
X77000Y110065D02*Y105065D01*
X72000Y110065D02*Y105065D01*
X92000Y90665D02*Y85665D01*
Y110065D02*Y105065D01*
X97000Y90665D02*Y85665D01*
Y110065D02*Y105065D01*
X102000Y90665D02*Y85665D01*
Y110065D02*Y105065D01*
G54D26*X126819Y40355D02*X129181D01*
X126819Y52165D02*X129181D01*
X114819Y52070D02*X117181D01*
X102819D02*X105181D01*
X114819Y40260D02*X117181D01*
X102819D02*X105181D01*
X64819Y40070D02*X67181D01*
X64819Y51880D02*X67181D01*
X76819Y51975D02*X79181D01*
X76819Y40165D02*X79181D01*
X22819Y32355D02*X25181D01*
X22819Y44165D02*X25181D01*
X34819Y32355D02*X37181D01*
X34819Y44165D02*X37181D01*
X45819Y32355D02*X48181D01*
X45819Y44165D02*X48181D01*
G54D27*X21921Y118819D02*Y113307D01*
X42000Y118819D02*Y113307D01*
G54D26*X55819Y122165D02*X58181D01*
G54D31*G36*
X32925Y99260D02*X35688Y91667D01*
X30315Y89712D01*
X27552Y97304D01*
X32925Y99260D01*
G37*
G36*
X21827Y95221D02*X24591Y87628D01*
X19218Y85672D01*
X16454Y93265D01*
X21827Y95221D01*
G37*
G36*
X37569Y90313D02*X45526Y88910D01*
X44533Y83279D01*
X36576Y84682D01*
X37569Y90313D01*
G37*
G36*
X35518Y78683D02*X43475Y77279D01*
X42482Y71648D01*
X34525Y73051D01*
X35518Y78683D01*
G37*
G36*
X22833Y70229D02*X28027Y76418D01*
X32407Y72743D01*
X27213Y66553D01*
X22833Y70229D01*
G37*
G36*
X13786Y77820D02*X18980Y84010D01*
X23360Y80334D01*
X18166Y74145D01*
X13786Y77820D01*
G37*
M02*
