G04 start of page 7 for group -4015 idx -4015 *
G04 Title: (unknown), toppaste *
G04 Creator: pcb 20140316 *
G04 CreationDate: Wed Mar 11 08:06:14 2015 UTC *
G04 For: frankenteddy *
G04 Format: Gerber/RS-274X *
G04 PCB-Dimensions (mil): 1889.76 1771.65 *
G04 PCB-Coordinate-Origin: lower left *
%MOIN*%
%FSLAX25Y25*%
%LNTOPPASTE*%
%ADD40C,0.0001*%
%ADD39R,0.0984X0.0984*%
%ADD38R,0.0512X0.0512*%
%ADD37R,0.0200X0.0200*%
%ADD36C,0.0200*%
%ADD35R,0.0394X0.0394*%
%ADD34R,0.0600X0.0600*%
G54D34*X129000Y92665D02*Y85665D01*
X139000Y92665D02*Y85665D01*
X149000Y92665D02*Y85665D01*
X129000Y109665D02*Y102665D01*
X139000Y109665D02*Y102665D01*
X149000Y109665D02*Y102665D01*
X64000Y153665D02*Y146665D01*
X74000Y153665D02*Y146665D01*
X84000Y153665D02*Y146665D01*
X94000Y153665D02*Y146665D01*
X104000Y153665D02*Y146665D01*
X114000Y153665D02*Y146665D01*
G54D35*X82000Y75268D02*Y63063D01*
X76094Y75268D02*Y63063D01*
X70189Y75268D02*Y63063D01*
G54D36*X72000Y90665D02*Y85665D01*
G54D37*X77000Y90665D02*Y85665D01*
X82000Y90665D02*Y85665D01*
X87000Y90665D02*Y85665D01*
X92000Y90665D02*Y85665D01*
X97000Y90665D02*Y85665D01*
X102000Y90665D02*Y85665D01*
Y110065D02*Y105065D01*
X97000Y110065D02*Y105065D01*
X92000Y110065D02*Y105065D01*
X87000Y110065D02*Y105065D01*
X82000Y110065D02*Y105065D01*
X77000Y110065D02*Y105065D01*
X72000Y110065D02*Y105065D01*
G54D38*X126819Y40355D02*X129181D01*
X126819Y52165D02*X129181D01*
G54D39*X21921Y118819D02*Y113307D01*
Y149921D02*Y144409D01*
X42000Y118819D02*Y113307D01*
Y149921D02*Y144409D01*
G54D38*X123190Y138346D02*Y135984D01*
X135000Y138346D02*Y135984D01*
X123190Y127346D02*Y124984D01*
X135000Y127346D02*Y124984D01*
X55819Y122165D02*X58181D01*
X55819Y133975D02*X58181D01*
X114819Y40260D02*X117181D01*
X114819Y52070D02*X117181D01*
X102819Y40260D02*X105181D01*
X102819Y52070D02*X105181D01*
X112819Y91355D02*X115181D01*
X112819Y103165D02*X115181D01*
X64819Y40070D02*X67181D01*
X64819Y51880D02*X67181D01*
X76819Y40165D02*X79181D01*
X76819Y51975D02*X79181D01*
X22819Y32355D02*X25181D01*
X22819Y44165D02*X25181D01*
X34819Y32355D02*X37181D01*
X34819Y44165D02*X37181D01*
X45819Y32355D02*X48181D01*
X45819Y44165D02*X48181D01*
G54D40*G36*
X32746Y98876D02*X35304Y91847D01*
X30495Y90096D01*
X27936Y97125D01*
X32746Y98876D01*
G37*
G36*
X21648Y94836D02*X24206Y87807D01*
X19397Y86057D01*
X16839Y93086D01*
X21648Y94836D01*
G37*
G36*
X37812Y89966D02*X45179Y88667D01*
X44290Y83626D01*
X36923Y84925D01*
X37812Y89966D01*
G37*
G36*
X35761Y78335D02*X43128Y77036D01*
X42239Y71996D01*
X34872Y73295D01*
X35761Y78335D01*
G37*
G36*
X23255Y70266D02*X28064Y75996D01*
X31984Y72706D01*
X27176Y66976D01*
X23255Y70266D01*
G37*
G36*
X14209Y77857D02*X19017Y83587D01*
X22938Y80297D01*
X18129Y74567D01*
X14209Y77857D01*
G37*
M02*
